<svg xmlns="http://www.w3.org/2000/svg" xmlns:xlink="http://www.w3.org/1999/xlink" viewBox="0 0 1508 1258"><defs><style>.a,.g,.i,.k,.m,.p,.q,.r{fill:none;}.b{clip-path:url(#a);}.c{fill:url(#b);}.d{clip-path:url(#c);}.e{fill:#8c2671;}.f{opacity:0.99;}.g{stroke:#fff;}.g,.i,.k,.l,.m{stroke-miterlimit:10;}.g,.m{stroke-width:32px;}.h{fill:#fff;}.i,.m{stroke:#000;}.i{stroke-width:36px;}.j{fill:#db387b;}.k{stroke:#010101;stroke-width:23px;}.l{stroke:#000;}.n{fill:#de387b;}.o{fill:#020000;}.p{stroke:#db387b;}.p,.q,.r{stroke-linecap:round;stroke-linejoin:round;}.p,.q{stroke-width:22px;}.q,.r{stroke:#8c2671;}.r{stroke-width:13px;}</style><clipPath id="a"><rect class="a" width="1508" height="1258"/></clipPath><linearGradient id="b" y1="1258" x2="1" y2="1258" gradientTransform="matrix(0, 1282.9, 1282.9, 0, -1613134.02, 5.86)" gradientUnits="userSpaceOnUse"><stop offset="0" stop-color="#892670"/><stop offset="1" stop-color="#de387b"/></linearGradient><clipPath id="c"><rect class="a" width="1508" height="1258"/></clipPath></defs><title>contact-bg</title><g class="b"><rect class="c" width="1508" height="1258"/></g><g class="d"><path class="e" d="M1127.81,1051.89c-4.08,13.1-12,21.48-27.37,24.16l8.46,3.52c10.78,4.51,17.39,14.28,17.24,25.83-.18,11.93-6,20.48-16.72,25.37-14,6.35-30.55-.35-36.74-14.44a27.48,27.48,0,0,1,14.49-36.51c2.4-1,4.93-1.79,9.45-3.4-13.85-2.76-22.23-9.5-27.23-22.12-4.67,12-12.53,18.86-24.3,22.12,19,9.36,26,21.08,22.24,35.64-3.45,13.25-14.85,21.55-28.93,21.07a27.93,27.93,0,0,1-26.51-23.07c-2.4-14.49,5.31-26.12,22.08-32.84-4.82-2.82-10-4.9-13.86-8.39s-6.64-8.56-9.86-12.86c-3,3.89-5.78,9-9.91,12.63-3.94,3.5-9.22,5.48-14.51,8.45,9.62,3.2,17.77,8.26,21.44,18.3a28,28,0,0,1,.43,18.64c-3.2,9.88-13.23,20.72-30.43,18.93-12-1.26-22.42-11.41-24-23.74-1.94-14.81,5.52-25.43,22.76-32.06-5.15-3-10.85-5.2-14.94-9.07-4.25-4-7-9.65-10.17-14.33-7.41,16.29-18.71,23.57-33.4,21.15-11.66-1.93-21.71-12.19-23.39-23.84-2.09-14.56,5.31-25.63,22.49-33-12-4-20.35-11.18-23.63-24.64-1.21,2.2-2,3.35-2.52,4.63-5.39,12.73-18,20.53-30.05,18.48-14.19-2.42-23.86-12.48-24.83-25.85-1-14,7.06-25.21,21.28-29.53,1-.29,1.91-.66,4.42-1.53-17.88-5.42-27.9-15.51-25.67-33.82,1.47-12.1,11.19-21.69,23.23-23.82,13.37-2.38,23.42,3.63,33.69,20.53,4-10.22,10.35-17.76,21.78-21.75-11.19-4.34-17.94-11.79-21.59-22.51-11.33,18.81-22.12,24.71-36.5,20.48-13.23-3.91-21.3-14.89-20.78-28.32.48-12.46,9.59-23.71,21.33-26.34,15.18-3.41,26.46,3.08,35.28,20.34,2.94-4.53,5.27-9.55,8.9-13.3s8.72-6.42,13.09-9.51c-16.15-8.65-22.3-18.91-20-33.54,1.85-11.5,11.94-21.39,23.85-23.39,13.68-2.29,24.77,4.55,33.45,21,4.49-11.36,11.85-19.3,24.13-21.9-20.29-12.06-26-21.68-21.81-36.79,3.37-12.31,14.61-20.6,27.77-20.48a27.86,27.86,0,0,1,27.09,21.3c3.86,14.86-1.79,24.2-22,36,11.33,2.36,18.57,9.38,23.85,20.49,4.66-10.79,11.64-17.65,23.5-20.92-10.41-4.31-18.06-9.87-21.17-19.81a29.47,29.47,0,0,1,0-17.85,28.33,28.33,0,0,1,28.65-19.34c12.11.68,22.88,8.82,26.18,20.53,4,14.3-1.9,25.16-20.52,36.69,10.56,3.18,17.81,9.66,22.16,20.53,5.84-11.17,13.32-18.77,27.37-20.39-9.06-2.57-16.06-5.44-20.65-11.88s-7.62-13.47-5.75-21.61c3.5-15.37,15.32-24.49,30.36-23.65a28.09,28.09,0,0,1,25.65,23.08c2.53,15.76-5.39,27-24.82,33.89,14,2.47,22.35,10.53,26.66,23.71,7.22-16.31,18.27-24,31.35-22.58a29.32,29.32,0,0,1,25.89,24.2c2.48,13.39-4.87,24.75-21.31,32.89,31.12,12.43,28.9,48.19.31,59.29,11.79,3.84,19.25,11.62,22.24,23.68,12.47-20.5,22.47-26.11,37.66-21.34a28,28,0,0,1,19.66,28.36c-.52,12.33-10,23.56-21.81,25.92-15.34,3-26-3.42-34.77-21.27-2.66,4.56-4.66,9.6-8.08,13.39s-8.46,6.64-13.25,10.24c14.15,6.49,21.9,17,19.88,33.06-1.5,11.93-9.48,19.9-25.26,25.08,7.44,2,13.74,4.83,18.28,10.55s7,12.51,6.46,19.94a28.87,28.87,0,0,1-24.64,26.27c-14,1.89-25.15-5.68-32.78-23M867.29,959.42c12.89,3.17,20.88,11,25.18,25.14,3.37-12.58,9.93-20,20-24.49-4.51-3.4-8.88-5.88-12.14-9.39s-5.63-8.18-8.81-13c-4.3,12.08-12.47,18.64-24.25,21.74m261.07,38.33c-3.93,10.12-10.41,16.48-20.72,20.6,10.6,4.7,17.17,12,20.33,22.51,4.24-12.41,12.15-19.88,25.87-22.79-12.28-2.75-20.38-9-25.48-20.32M926.79,1018c13.45,3.55,20.72,11.12,24.61,24.06,2.81-11.6,9.32-18.66,19.49-23.66-9.89-3.93-15.73-10.19-20-19.12-5.17,9.39-12,15.78-24.11,18.72M1128,820.39c-3.22,9.69-9.76,16.16-19.3,21.29,9.87,3.74,15.51,10.24,19.48,18.42,3.3-3.89,6-8,9.68-11.14,3.48-3,7.89-4.92,12.59-7.73-11.56-3.32-18.31-10.32-22.45-20.84m-178.18,37.8c6.36-6.2,12.24-12,18.29-17.85-8.24-3.44-13-10.84-17.29-20-3.59,10.92-10.48,17.36-21.65,21.34,10.13,3.73,16.54,9.08,20.65,16.47m199.33,42.4c-9.6-3-15.77-9.63-20-17.1-5.39,5.93-10.64,11.73-15.28,16.85,4.94,5.19,10.15,10.68,15.51,16.33,4.47-6.87,10.5-13,19.77-16.08m-123.67,118L1010,1004.05c-5.59,4.92-11.22,9.87-17.37,15.26,8.24,3.5,13.78,10.36,16.85,18l16-18.71m44.16-14.63c-5.16,4.89-10.72,10.18-15.47,14.67l15.92,18.45a31.61,31.61,0,0,1,17.23-17.95c-6.21-5.32-12-10.31-17.68-15.17m77.63-43.59c-6.62-5.71-12.9-11.14-18.59-16l-14.78,15.4c5.12,5.87,10.17,11.67,15.36,17.61,3.38-8.23,9.84-13.84,18-17m-61.07-119.35c-2.81-2.19-6.54-4.55-9.57-7.61s-5-6.56-6.89-9.12l-14.57,16.62c5,4.72,10.08,9.52,14.69,13.87,5.55-4.66,11.11-9.36,16.34-13.76m-75.85-16.44-15.83,16.88,15.12,13.32c5-4.68,10.09-9.48,14.79-13.87-4.74-5.51-9.64-11.19-14.08-16.33m-76.85,76.16c5.1,4.16,11.07,9.05,16.89,13.82,4.44-4.62,9.27-9.63,14-14.48L951,885.26l-17.43,15.51m.45,58.67,17.08,16c4.2-4.78,8.95-10.22,13.44-15.33-4.69-4.77-9.74-10-14.17-14.44L934,959.44m134.6,12.8,13.21-13.89c-2.34-2-6.83-5.88-10-8.55l-12.12,12.37c2.7,3.05,6.27,7.11,8.86,10.07m14.92-71.75-13.57-12.91-10.43,11.47,12,11.68c3.5-3,7.8-6.66,12-10.24m-85.1,58.29,12.14,14.15c3.4-3.91,7-8,9.44-10.83q-5.72-6.58-11-12.66c-4,3.56-8.09,7.16-10.57,9.34m10.17-48.26,11.92-11.29c-3.49-3.77-7.16-7.74-9.68-10.48-4.12,4.31-8.23,8.56-12.26,12.76l10,9"/><path class="e" d="M1215.78,843.7a27.65,27.65,0,0,1,27.93,27.62c.07,15.51-13,28.55-28.43,28.33-14.8-.21-28.93-13.53-28.29-28,.78-17.52,14.63-28.69,28.79-28"/><path class="e" d="M1215.64,1016c-15.45.18-28-11.32-28.21-27.36-.26-15.77,12.43-28.24,28.46-27.95,15.5.28,27.84,12.48,27.77,27.78a27.76,27.76,0,0,1-28,27.53"/><path class="e" d="M950.27,754.49a27.68,27.68,0,1,1-28-27.69c15.08-.24,28,12.51,28,27.69"/><path class="e" d="M863.68,840.6c-15.63,0-27.78-12.1-27.7-27.57s12.37-27.3,28.1-27.18A27.18,27.18,0,0,1,891.35,813c.14,15.47-12,27.57-27.67,27.59"/><path class="e" d="M891.13,1046.5A27,27,0,0,1,864,1073.77,27.4,27.4,0,0,1,836.07,1047c-.3-15,12.62-28,27.77-27.95a27.58,27.58,0,0,1,27.29,27.41"/><path class="e" d="M1184.16,754.46a27.88,27.88,0,0,1-27.09,27.76c-15,.31-27.88-12.67-27.76-27.93.12-14.85,12.77-27.44,27.51-27.35s27.29,12.63,27.34,27.52"/><path class="e" d="M895.25,1105.47c-.1-15.34,11.75-26.87,27.13-27.37a27.28,27.28,0,0,1,27.69,27c.38,14.77-12.42,27.45-27.32,27.57a27.35,27.35,0,0,1-27.5-27.19"/><path class="e" d="M1215.44,840.44A27.24,27.24,0,1,1,1243,813.37a27.32,27.32,0,0,1-27.58,27.07"/><path class="e" d="M1156.77,1078.36A27,27,0,0,1,1184,1105.5c-.14,14.46-12.33,26.73-26.88,27s-27.54-12.36-27.64-27.09a27,27,0,0,1,27.28-27.09"/><path class="e" d="M1215,1073.47a26.75,26.75,0,0,1-26.48-26.91c0-13.43,9.86-27.21,27.34-27,17.92.21,27.13,14.38,26.89,27.46-.28,15.16-12.32,26.71-27.75,26.48"/><path class="e" d="M832.44,930.3c-.12,14.37-12.48,26.74-27,27s-27.52-12.67-27.4-27.31a27.14,27.14,0,0,1,27.77-26.66c14.62.22,26.71,12.53,26.59,27"/><path class="e" d="M1066.78,696.17a26.93,26.93,0,1,1-53.85-.11,26.93,26.93,0,0,1,53.85.11"/><path class="e" d="M1007.9,696.58A27.07,27.07,0,0,1,980.77,723c-14.62-.1-26.87-12.42-26.7-26.9a26.92,26.92,0,0,1,53.83.45"/><path class="e" d="M805,845a26.69,26.69,0,0,1,27.17,26.24c.18,14.44-12,26.8-26.67,26.92a27.1,27.1,0,0,1-27.17-26.42A26.68,26.68,0,0,1,805,845"/><path class="e" d="M1098.43,670c15.11.07,26.69,11.76,26.5,26.75a26.73,26.73,0,1,1-26.5-26.75"/><path class="e" d="M1300.56,929.77a25.93,25.93,0,0,1-25.78,26.62c-15,.29-27.31-11.27-27.51-25.95-.21-14.43,12.31-27,26.83-27a26.74,26.74,0,0,1,26.46,26.28"/><path class="e" d="M1066.42,1163.88a26.86,26.86,0,0,1-26.32,26.35c-14.84.22-27.13-12.39-26.79-27.52a26.56,26.56,0,0,1,53.11,1.17"/><path class="e" d="M778.44,988.59c.48-14.16,10.12-26.8,26.8-26.81s26.82,12.51,26.72,26.78c-.09,13.9-9.9,26-26.27,26.41-15.4.35-26.46-11.08-27.25-26.38"/><path class="e" d="M863.84,781a26.43,26.43,0,1,1-.23-52.85c14.82,0,27.08,12.16,26.88,26.74A26.72,26.72,0,0,1,863.84,781"/><path class="e" d="M1215.32,728.25a26.31,26.31,0,1,1-26.15,26.4,26.58,26.58,0,0,1,26.15-26.4"/><path class="e" d="M1300.35,871.49A26.49,26.49,0,0,1,1274.22,898c-14.47.14-27.07-12.53-26.8-26.9a26.33,26.33,0,0,1,26.8-25.75c14.82.09,26.13,11.39,26.13,26.16"/><path class="e" d="M863.32,1131.32a25.77,25.77,0,0,1-25.89-26.27,26.54,26.54,0,0,1,26.24-26.28c14.4,0,27,12.79,26.52,27.06a26.21,26.21,0,0,1-26.87,25.49"/><path class="e" d="M1098,1189.61c-14.56-.15-26.44-12.12-26.23-26.4a26.36,26.36,0,0,1,26.8-25.78,25.75,25.75,0,0,1,26,26.36c-.09,14.67-11.73,26-26.53,25.82"/><path class="e" d="M1273.86,962.29c14.87-.08,26.36,11.19,26.42,25.91a25.82,25.82,0,0,1-26.07,26.29,26.46,26.46,0,0,1-26.7-26c-.12-14.34,11.78-26.16,26.35-26.25"/><path class="e" d="M980.77,1137.27a26.27,26.27,0,1,1-26.16,26.23,26,26,0,0,1,26.16-26.23"/><path class="e" d="M831.39,813.56c-.17,14.7-11.73,25.76-26.67,25.54a25.56,25.56,0,0,1-25.57-26.61c.36-14.33,11.67-25.18,26.23-25.14,14.82,0,26.18,11.49,26,26.21"/><path class="e" d="M948.7,696.8c-.19,14.07-11.91,26.2-26,25.75-16.36-.52-26.22-12.37-26.41-26.28-.19-14.46,11.9-26.11,26.5-26A26,26,0,0,1,948.7,696.8"/><path class="e" d="M1215.38,1131.2c-14.45-.09-26.33-12.1-26.07-26.35a26.44,26.44,0,0,1,26.06-25.63c14.35-.15,26.49,11.79,26.49,26a26.23,26.23,0,0,1-26.48,26"/><path class="e" d="M831.16,1046.81a25.91,25.91,0,1,1-26.09-26.17,25.67,25.67,0,0,1,26.09,26.17"/><path class="e" d="M1182.64,696.8a25.91,25.91,0,1,1-25.83-26.41,25.7,25.7,0,0,1,25.83,26.41"/><path class="e" d="M1274,838.84a25.41,25.41,0,0,1-25.77-25.45c-.08-14.63,11.49-26,26.29-25.8a25.63,25.63,0,1,1-.52,51.25"/><path class="e" d="M922.28,1189.11a25.63,25.63,0,0,1,.17-51.25,25.63,25.63,0,1,1-.17,51.25"/><path class="e" d="M1273.45,1071.94c-14.53-.19-25.35-11.51-25-26.14a25.81,25.81,0,0,1,25.76-24.94c14,.14,26,12.27,25.63,26.11-.46,15.33-13.47,26-26.4,25"/><path class="e" d="M1156.55,1189a25.55,25.55,0,1,1,25.85-25.33,25.51,25.51,0,0,1-25.85,25.33"/><path class="e" d="M805.29,779.62a25.18,25.18,0,0,1-25.57-24.8c-.18-14.13,11.39-25.4,25.9-25.26a25,25,0,1,1-.33,50.06"/><path class="e" d="M889,696.62a25,25,0,0,1-25.37,24.88c-14,0-25.49-11.22-25.32-25s10.07-25.28,25.87-25.45c13.92-.16,24.92,11.72,24.82,25.61"/><path class="e" d="M1065,637.53a25.16,25.16,0,1,1-50.31.26,25.16,25.16,0,0,1,50.31-.26"/><path class="e" d="M771.55,929.8a25.16,25.16,0,1,1-50.31.6,25.16,25.16,0,0,1,50.31-.6"/><path class="e" d="M804.22,1130.08A25,25,0,0,1,780,1104.81a25.48,25.48,0,0,1,25.89-24.62c13.76.34,25.19,12.37,24.61,25.88a25,25,0,0,1-26.29,24"/><path class="e" d="M980.77,662.56c-14-.13-25.35-11.55-25-25.32a25.5,25.5,0,0,1,25.89-24.63c13.43.34,24.62,11.74,24.61,25.08a25.07,25.07,0,0,1-25.48,24.87"/><path class="e" d="M1190.59,696.18c.06-14.09,11.12-24.85,25.38-24.66a24.5,24.5,0,0,1,24.63,24.61,25,25,0,1,1-50,0"/><path class="e" d="M771.41,871.51a25,25,0,1,1-50-.43c.17-13.74,10.93-24.32,24.81-24.42,14.23-.09,25.22,10.74,25.2,24.85"/><path class="e" d="M888.86,1163.36c.09,13.53-11.74,25.41-25.21,25.32a25.19,25.19,0,0,1-.26-50.38c13.38-.3,25.39,11.5,25.47,25.06"/><path class="e" d="M1273.91,729.76a24.8,24.8,0,1,1-25,24.51,25,25,0,0,1,25-24.51"/><path class="e" d="M1098.24,662.42a24.89,24.89,0,0,1-25.11-24.37c-.22-13.62,11.47-25.42,25.17-25.4a25,25,0,0,1,25,25.43c-.22,13.77-11.09,24.34-25,24.34"/><path class="e" d="M771.36,988.16c.08,13.82-11.56,25.58-25.16,25.39a25.4,25.4,0,0,1-24.73-25c-.09-13.82,11.57-25.58,25.16-25.39a25.46,25.46,0,0,1,24.73,25"/><path class="e" d="M1039.73,1246.85a24.72,24.72,0,1,1,24.94-24.39,24.62,24.62,0,0,1-24.94,24.39"/><path class="e" d="M1333,954.62c-14.06,0-24.7-10.38-24.82-24.25a24.84,24.84,0,0,1,25.08-25.16c13.4.24,24.73,11.75,24.66,25A24.6,24.6,0,0,1,1333,954.62"/><path class="e" d="M1308.25,871.47c0-13.89,10.67-24.47,24.66-24.47a24.57,24.57,0,0,1,24.88,24.49c0,13.3-11.55,24.82-24.92,24.82a24.75,24.75,0,0,1-24.62-24.84"/><path class="e" d="M1273.83,1129.7a24.55,24.55,0,0,1-24.72-24.65c.14-13.3,11.85-24.78,25.11-24.64a24.8,24.8,0,0,1,24.46,25c-.09,13.87-10.78,24.3-24.85,24.25"/><path class="e" d="M1122.87,1222.52a24.49,24.49,0,0,1-24.94,24.25c-13.43-.19-24.71-11.73-24.43-25a25.13,25.13,0,0,1,25.18-24.29,24.57,24.57,0,0,1,24.19,25"/><path class="e" d="M980.83,1246.82a24.68,24.68,0,1,1,24.85-24.49,24.58,24.58,0,0,1-24.85,24.49"/><path class="e" d="M1240.39,1163.78a24.79,24.79,0,1,1-24.52-24.77,24.63,24.63,0,0,1,24.52,24.77"/><path class="e" d="M746.46,837.52A24.28,24.28,0,1,1,771.12,813a24.5,24.5,0,0,1-24.66,24.55"/><path class="e" d="M771.06,1046.42c.13,13.23-11.38,24.77-24.69,24.75a25.14,25.14,0,0,1-24.63-24c-.4-13.33,10.73-24.76,24.27-24.93a24.65,24.65,0,0,1,25,24.16"/><path class="e" d="M1333.08,1012.77c-13.9.09-24.7-10.5-24.77-24.23A24.09,24.09,0,0,1,1332.75,964a24.39,24.39,0,1,1,.33,48.77"/><path class="e" d="M922.3,662c-13.66-.1-25-11.43-24.37-24.85.59-12.79,9.19-23.36,24.51-24.13,13.33-.69,24.67,11.15,24.66,24.68A24.2,24.2,0,0,1,922.3,662"/><path class="e" d="M1157.13,662a24.1,24.1,0,0,1-24.8-24.33,24.41,24.41,0,1,1,48.81,0,24.09,24.09,0,0,1-24,24.3"/><path class="e" d="M1333.25,837.21a24,24,0,1,1,23.8-24.36,23.79,23.79,0,0,1-23.8,24.36"/><path class="e" d="M1180.83,1222.07a24.09,24.09,0,1,1-24.18-24.23,24.41,24.41,0,0,1,24.18,24.23"/><path class="e" d="M946.89,1222.52c-.21,12.94-11.64,24.52-24.47,23.9-15.6-.74-24.4-12.49-24-25.06.36-12.32,9.79-23.4,24.76-23.47,13.11-.05,24,11.7,23.73,24.63"/><path class="e" d="M805,720.18A23.66,23.66,0,0,1,781.17,696a24.09,24.09,0,1,1,48.18.57c-.09,13.36-10.79,23.72-24.37,23.6"/><path class="e" d="M1332.68,1070.44a24.07,24.07,0,0,1-24.11-24.07c.16-13,11.47-24.06,24.49-24a24.24,24.24,0,0,1,23.91,24.35c-.09,13.51-10.63,23.79-24.29,23.68"/><path class="e" d="M805.29,1139.65a23.83,23.83,0,1,1-23.95,23.4,24.07,24.07,0,0,1,23.95-23.4"/><path class="e" d="M1274.1,719.92c-13.28,0-23.67-10-23.83-23.15A24,24,0,0,1,1274,672.33c13,0,24.28,11.45,24.07,24.34a23.79,23.79,0,0,1-24,23.25"/><path class="e" d="M887.41,637.88c-.07,13-10.83,24.14-23.66,23.64-14-.53-23.43-10.39-23.9-23.58s10.71-24,24.23-23.81a23.35,23.35,0,0,1,23.33,23.75"/><path class="e" d="M746.06,778.07a23.23,23.23,0,0,1-23.37-23.64c.07-13.5,10.73-23.65,24.49-23.33a23.21,23.21,0,0,1,23,24c-.29,13.17-10.72,23.11-24.07,22.94"/><path class="e" d="M1297.61,1163.47a23.59,23.59,0,1,1-23.63-23.65,23.84,23.84,0,0,1,23.63,23.65"/><path class="e" d="M1239.08,637.89a23.48,23.48,0,1,1-23.47-23.71,23.47,23.47,0,0,1,23.47,23.71"/><path class="e" d="M722.93,1105.07a23.48,23.48,0,1,1,23.51,23.73,23.4,23.4,0,0,1-23.51-23.73"/><path class="e" d="M980.55,602.54a23.13,23.13,0,1,1,.5-46.26c13.14,0,23.87,10.93,23.4,23.82a23.31,23.31,0,0,1-23.9,22.44"/><path class="e" d="M1332.65,731.4a23.17,23.17,0,1,1,.52,46.33c-13.41.1-23.71-10.07-23.63-23.31a23,23,0,0,1,23.11-23"/><path class="e" d="M1063.19,579.31a22.92,22.92,0,0,1-22.8,23.28c-13.44.21-23.82-9.82-23.87-23a23.34,23.34,0,0,1,46.67-.26"/><path class="e" d="M863.79,1245.3c-13.37,0-23.61-10.24-23.44-23.49a23,23,0,0,1,23.3-22.84,23.17,23.17,0,1,1,.14,46.33"/><path class="e" d="M711.47,930a23.26,23.26,0,0,1-23,23.22c-13.37.24-23.82-9.91-23.84-23.13a23.44,23.44,0,0,1,46.88-.09"/><path class="e" d="M688.17,848.46a23.28,23.28,0,0,1,23.28,23c0,12.51-10.66,23.18-23.25,23.3a23.44,23.44,0,0,1-23.5-23.71c.19-12.91,10.34-22.7,23.47-22.62"/><path class="e" d="M1121.42,579.91A22.81,22.81,0,0,1,1098,602.49a23.09,23.09,0,1,1,1-46.16,22.91,22.91,0,0,1,22.47,23.58"/><path class="e" d="M1333,1128.13c-13.13,0-23.07-9.67-23.19-22.65a23.37,23.37,0,0,1,23.48-23.52c12.49.24,23.11,11,23,23.4a23.08,23.08,0,0,1-23.31,22.77"/><path class="e" d="M664.84,987.83a23.1,23.1,0,0,1,23.47-22.66c12.6.24,23.14,10.91,23.05,23.32s-10.83,23.06-23.29,23.15a23.27,23.27,0,0,1-23.23-23.81"/><path class="e" d="M1238.79,1222.22a23.19,23.19,0,1,1-22.9-23.16,23,23,0,0,1,22.9,23.16"/><path class="e" d="M1391.45,952.88A22.86,22.86,0,0,1,1368.22,930c.06-12.55,11-23.29,23.42-23a23.57,23.57,0,0,1,22.82,22.82,22.86,22.86,0,0,1-23,23.1"/><path class="e" d="M1040,1303.15a22.88,22.88,0,0,1-23.23-22.89c.07-12.55,11-23.29,23.42-23A23.57,23.57,0,0,1,1063,1280a22.83,22.83,0,0,1-23,23.12"/><path class="e" d="M1391.42,848.76a23.15,23.15,0,0,1,22.95,22.39c.21,12.32-10.74,23.35-23.13,23.28-12.12-.07-22.72-10.53-22.93-22.63-.22-12.48,10.41-23.1,23.11-23"/><path class="e" d="M980.6,1303.06a22.58,22.58,0,0,1-22.4-22.67c-.14-10.7,7.93-22.68,23.21-22.85,12.38-.14,22.37,10.46,22.37,22.84a22.46,22.46,0,0,1-23.18,22.68"/><path class="e" d="M687.81,835.76c-12.73,0-22.54-9.69-22.64-22.27-.13-13,9.82-22.85,22.93-22.8a22.54,22.54,0,1,1-.29,45.07"/><path class="e" d="M945.37,579.31a22.86,22.86,0,1,1-22.52-22.79,23,23,0,0,1,22.52,22.79"/><path class="e" d="M746.4,673.66a23.08,23.08,0,0,1,22.94,22.44c.17,12.49-10.76,23.22-23.33,22.92-12.4-.29-22.68-10.74-22.52-22.92a23.05,23.05,0,0,1,22.91-22.44"/><path class="e" d="M827.9,637.74a22.64,22.64,0,1,1-22.4-22.67,22.39,22.39,0,0,1,22.4,22.67"/><path class="e" d="M1391.28,1010.79c-12.57,0-23-9.94-22.83-22.27a22.82,22.82,0,0,1,23.35-22.7c12.43.6,22.64,10.53,22.47,22.79a22.68,22.68,0,0,1-23,22.18"/><path class="e" d="M1098.05,1257.78a22.63,22.63,0,1,1-22.46,22.68,22.58,22.58,0,0,1,22.46-22.68"/><path class="e" d="M1179.29,579.45a22.86,22.86,0,0,1-22.35,22.77c-12.48.15-22.93-10.49-22.76-23.19.16-12.25,10.61-22.53,22.76-22.37a22.91,22.91,0,0,1,22.35,22.79"/><path class="e" d="M710.55,1046.45a22.66,22.66,0,0,1-45.32.28A22.88,22.88,0,0,1,687.81,1024a22.53,22.53,0,0,1,22.74,22.46"/><path class="e" d="M1274,615.52a22.32,22.32,0,0,1,22.69,22.34c-.12,12.18-10.76,22.51-23,22.32A22.48,22.48,0,0,1,1251.62,638c-.16-12.67,9.6-22.46,22.38-22.48"/><path class="e" d="M746.07,1185.77c-12.46-.14-22.62-10.57-22.22-22.82a22.59,22.59,0,1,1,22.22,22.82"/><path class="e" d="M1391.33,835.5c-12.5,0-22.76-10.19-22.6-22.47a22.6,22.6,0,0,1,45.19,0c.17,12.27-10.09,22.47-22.59,22.47"/><path class="e" d="M827.61,1222a22.36,22.36,0,1,1-22.13-22.13A22.49,22.49,0,0,1,827.61,1222"/><path class="e" d="M1332.73,718.37a22.12,22.12,0,0,1-22.39-21.77c-.18-12.17,10.39-22.77,22.64-22.7a22.32,22.32,0,0,1,22.15,22.94c-.18,12.37-9.77,21.58-22.4,21.53"/><path class="e" d="M1391.45,1068.57c-12.52,0-22.19-9.33-22.33-21.67-.15-12.75,9.6-22.44,22.51-22.6,12.14-.15,21.93,10.16,21.91,22.36,0,12.37-9.57,21.86-22.09,21.91"/><path class="e" d="M1354.93,1163.86a22.1,22.1,0,0,1-22.4,21.74c-12.06-.22-22.11-10.57-21.85-22.48a22.51,22.51,0,0,1,22.59-21.75,22.13,22.13,0,0,1,21.66,22.49"/><path class="e" d="M864,557.66a21.53,21.53,0,0,1,21.74,22.08c-.14,12.27-9.88,21.65-22.35,21.51a21.92,21.92,0,0,1-21.9-22.11c.23-12.21,10.07-21.6,22.51-21.48"/><path class="e" d="M687.36,776.37A21.87,21.87,0,0,1,665.75,754c.43-12.24,10.33-21.43,22.8-21.17A21.55,21.55,0,0,1,710,755.18c-.26,12.22-10.12,21.46-22.64,21.19"/><path class="e" d="M1273.72,1200.37c12.44-.14,22.28,9.26,22.52,21.46a21.91,21.91,0,0,1-21.88,22.13c-12.47.14-22.22-9.24-22.36-21.49a21.53,21.53,0,0,1,21.72-22.1"/><path class="e" d="M1215.4,601c-12.24-.07-21.48-9.21-21.58-21.34-.11-12.49,9.36-21.87,22-21.81,12.21.07,21.49,9.26,21.59,21.36.1,12.51-9.32,21.86-22,21.79"/><path class="e" d="M709.86,1105.48A21.87,21.87,0,1,1,688,1083.42a21.86,21.86,0,0,1,21.83,22.06"/><path class="e" d="M1390.74,776a21.49,21.49,0,1,1,22.2-20.69c-.33,11.9-10,20.93-22.2,20.69"/><path class="e" d="M1391.57,1126.43c-12.17.09-21.63-9-21.74-21a21.5,21.5,0,1,1,43-.48,21,21,0,0,1-21.26,21.44"/><path class="e" d="M1039.85,500.07a21.14,21.14,0,0,1,21.47,21.36c-.12,11.63-10.36,21.62-21.86,21.31a21.93,21.93,0,0,1-21.05-21.29,21.12,21.12,0,0,1,21.44-21.38"/><path class="e" d="M629.81,951.23c-12.21.1-21.55-9-21.62-21.05-.07-11.09,8.08-21.52,21.45-21.39,13.85.12,21,10.77,21.21,20.8a20.91,20.91,0,0,1-21,21.64"/><path class="e" d="M745.88,658.79A21.14,21.14,0,0,1,725,636.93c.38-11.27,10.33-20.86,21.57-20.77A21.89,21.89,0,0,1,767.87,638c-.17,11.87-9.81,21-22,20.81"/><path class="e" d="M1098.28,500.11a20.93,20.93,0,0,1,21.24,20.68c.17,11.93-9.48,22.26-21.21,21.76-12.28-.52-20.77-8.87-21.36-20.93-.59-11.76,9.31-21.5,21.33-21.51"/><path class="e" d="M608.3,871.73a21.23,21.23,0,0,1,42.46-.48c.12,11-7.73,21.1-21.41,21.58-11.37.4-20.93-9.64-21.05-21.1"/><path class="e" d="M959.77,521.09a21.24,21.24,0,0,1,42.47.31c-.09,11.46-9.55,21.49-21,21.18-13.55-.39-21.62-10.45-21.5-21.49"/><path class="e" d="M650.76,988.5c-.07,12-9.55,21.14-21.79,20.88a20.73,20.73,0,0,1-20.67-21.15c.08-12.05,9.51-21.08,21.79-20.84a20.7,20.7,0,0,1,20.67,21.11"/><path class="e" d="M746.75,1243.31c-11.21.22-21.23-9.33-21.61-20.61s9.78-21.77,21.32-21.73c11.24,0,21.08,9.83,21.19,21s-9.61,21.08-20.9,21.31"/><path class="e" d="M784.29,579.69a21,21,0,1,1,21,20.91,21.13,21.13,0,0,1-21-20.91"/><path class="e" d="M709,696.68a21.06,21.06,0,1,1-20.48-21.35A21,21,0,0,1,709,696.68"/><path class="e" d="M1332.53,658.65a20.95,20.95,0,1,1,21.4-20.6,21,21,0,0,1-21.4,20.6"/><path class="e" d="M1471.07,930.13a20.89,20.89,0,1,1-41.78,0,20.89,20.89,0,0,1,41.78,0"/><path class="e" d="M1273.76,558.4c11.19-.21,21.24,9.67,21.29,21s-9.89,21.62-21.1,21c-13.47-.69-20.55-10.5-20.74-20.45a21.2,21.2,0,0,1,20.55-21.56"/><path class="e" d="M1449.62,892.07a20.34,20.34,0,0,1-20.24-21.4,20.81,20.81,0,0,1,41.6,1.13c-.14,11.74-9.41,20.53-21.36,20.27"/><path class="e" d="M708.79,1163.31a20.44,20.44,0,0,1-20.86,20.84,20.67,20.67,0,1,1-.38-41.34,20.53,20.53,0,0,1,21.24,20.5"/><path class="e" d="M922.83,541.82c-11.9.12-21.08-8.86-21.08-20.61a21,21,0,0,1,21-20.93,21.29,21.29,0,0,1,20.81,20.43,20.83,20.83,0,0,1-20.74,21.11"/><path class="e" d="M650.33,813a20.82,20.82,0,1,1-21.26-20.43A20.48,20.48,0,0,1,650.33,813"/><path class="e" d="M629.24,1067.07a20.23,20.23,0,0,1-20.44-20.36,20.74,20.74,0,1,1,41.46.55c-.29,11.34-9.39,19.91-21,19.81"/><path class="e" d="M1156.22,541.65a20.23,20.23,0,0,1-20.21-20.6,20.74,20.74,0,1,1,41.47.21c0,11.75-9.26,20.6-21.26,20.39"/><path class="e" d="M1470.93,988.63a20.74,20.74,0,1,1-20.88-20.93,20.57,20.57,0,0,1,20.88,20.93"/><path class="e" d="M1353.58,1222c.1,11.58-9.53,21.31-20.91,21.13-11-.17-20.61-9.77-20.74-20.7-.14-11.21,9.91-21.22,21.13-21.08a20.87,20.87,0,0,1,20.52,20.65"/><path class="e" d="M1450.41,833.7A20.49,20.49,0,1,1,1470.79,813a20.82,20.82,0,0,1-20.38,20.71"/><path class="e" d="M1391.23,716.68c-11.64,0-20.48-8.79-20.52-20.27A21,21,0,0,1,1391,675.57c11.37-.23,21,9.53,20.93,21s-9.07,20.11-20.72,20.06"/><path class="e" d="M1450.24,1066.81a20.53,20.53,0,0,1-20.6-20.36c.1-11,10-20.55,20.89-20.27s20,9.5,20.19,20.17c.19,11.08-9.17,20.43-20.48,20.46"/><path class="e" d="M1411.75,1163.52a20.42,20.42,0,1,1-20.4-20.52,20.49,20.49,0,0,1,20.4,20.52"/><path class="e" d="M629.14,774.51a20.16,20.16,0,0,1-20-19.91c0-11.16,9.31-20.12,20.81-20a20.21,20.21,0,0,1,20,19.91c0,11.17-9.29,20.11-20.81,20"/><path class="e" d="M843.51,520.84a20.24,20.24,0,1,1,19.43,20.48,20,20,0,0,1-19.43-20.48"/><path class="e" d="M629.93,1125a20,20,0,0,1-20.56-19.19c-.4-11,9-20.67,20.15-20.67A20.46,20.46,0,0,1,649.69,1105a20,20,0,0,1-19.76,20"/><path class="e" d="M1195.63,521.48a19.45,19.45,0,0,1,19.51-20c11.37-.19,20.14,8,20.42,19.12a20,20,0,1,1-39.93.89"/><path class="e" d="M688,657.19c-11.41,0-19.81-8.44-19.7-19.76a20,20,0,0,1,19.32-19.67c10.64-.28,20.21,9,20.36,19.7s-8.86,19.74-20,19.73"/><path class="e" d="M1450.48,734.8a19.75,19.75,0,1,1-20,19.68,19.75,19.75,0,0,1,20-19.68"/><path class="e" d="M746.52,559.67a19.74,19.74,0,1,1-19.94,19.84,19.9,19.9,0,0,1,19.94-19.84"/><path class="e" d="M1313.43,579.58a19.47,19.47,0,1,1,19.39,19.4,19.73,19.73,0,0,1-19.39-19.4"/><path class="e" d="M707.39,1223.36a19.48,19.48,0,1,1-38.86-2.82c.76-10.33,10.62-18.81,20.85-17.9a19.67,19.67,0,0,1,18,20.72"/><path class="e" d="M1391.35,657a19.71,19.71,0,0,1-19.69-19.12c-.15-10.74,9.24-20,20-19.69,10.61.26,19.4,9.23,19.28,19.66S1402,657,1391.35,657"/><path class="e" d="M1469.74,1105.64a19.56,19.56,0,0,1-39.12-.38c0-10.43,8-19.64,20.15-19.65,10.68,0,19.16,9.41,19,20"/><path class="e" d="M570.39,949.42c-10.55-.14-19.45-9.16-19.26-19.57a19.56,19.56,0,0,1,39.1.57,19.75,19.75,0,0,1-19.84,19"/><path class="e" d="M1039.87,443.38a19.38,19.38,0,0,1,19.53,19.21c0,10.44-9,19.27-19.56,19.26s-19.54-8.87-19.54-19.32a19.37,19.37,0,0,1,19.57-19.15"/><path class="e" d="M570.94,890.49a19.19,19.19,0,0,1-19.69-19,19.42,19.42,0,0,1,38.83-.55c.36,10.56-8.31,19.41-19.14,19.53"/><path class="e" d="M648.71,696.67c-.16,10.82-8.76,19-19.76,18.67a18.77,18.77,0,0,1-18.6-19,19.18,19.18,0,1,1,38.36.35"/><path class="e" d="M980.93,443.53a18.75,18.75,0,0,1,19.25,19.18,19.19,19.19,0,0,1-38.37.12,18.75,18.75,0,0,1,19.12-19.3"/><path class="e" d="M824.45,520.81a19.2,19.2,0,0,1-38.38,1.1,19.2,19.2,0,1,1,38.38-1.1"/><path class="e" d="M1391,1202.84c10.52.78,18.69,7,19.55,18.56.78,10.32-8.33,20.2-18.83,20-9.93-.21-18.65-6.34-19.54-18.45-.78-10.34,8.29-19.79,18.82-20.09"/><path class="e" d="M1079.19,462.52A18.66,18.66,0,0,1,1098,443.69c10.93-.14,19.72,8.31,19.67,18.93,0,10.07-8.81,18.9-19,19.12a19.21,19.21,0,0,1-19.47-19.22"/><path class="e" d="M648.55,1163.88a19,19,0,1,1-18.43-19.35,18.84,18.84,0,0,1,18.43,19.35"/><path class="e" d="M570.47,1007.33A19,19,0,1,1,590,988.16a19.23,19.23,0,0,1-19.48,19.17"/><path class="e" d="M1273.69,539.91A18.3,18.3,0,0,1,1255.11,521,19,19,0,0,1,1274,502.07c10.45,0,19.6,9.33,19.24,19.67s-8.83,18.29-19.55,18.17"/><path class="e" d="M1450.46,715c-10.72.1-19.13-7.92-19.25-18.4a19.48,19.48,0,0,1,18.7-19.31c10.09-.21,19.1,8.57,19.26,18.76a18.6,18.6,0,0,1-18.71,19"/><path class="e" d="M1509,890.06a18.72,18.72,0,0,1-19.35-18.41c-.08-10.12,8.85-19.16,19-19.16a19.07,19.07,0,0,1,18.73,18.36A18.38,18.38,0,0,1,1509,890.06"/><path class="e" d="M903.8,462.72a18.4,18.4,0,0,1,18.81-18.79,18.8,18.8,0,0,1,18.89,18.9,19.6,19.6,0,0,1-18.6,18.71c-10.19.29-19-8.4-19.1-18.82"/><path class="e" d="M1527.37,929.92a19,19,0,0,1-18.74,19.19c-10.12,0-19.08-9.05-19-19.17a18.82,18.82,0,0,1,18.51-18.45c10.74-.17,19.1,7.86,19.19,18.43"/><path class="e" d="M1527.3,988.71a18.77,18.77,0,0,1-19.21,18.38,18.76,18.76,0,0,1,.71-37.52,18.86,18.86,0,0,1,18.5,19.14"/><path class="e" d="M589.4,813.75A18.76,18.76,0,1,1,571,794.39a18.79,18.79,0,0,1,18.43,19.36"/><path class="e" d="M1156.58,444a18.91,18.91,0,0,1,19,18.64c0,10-9.15,19-19.13,18.79-9.79-.19-18.41-8.74-18.64-18.48-.22-10.16,8.4-18.87,18.74-18.95"/><path class="e" d="M1469.08,1163.59c-.07,10.08-9.06,18.83-19.18,18.65S1431,1173,1431.33,1163c.33-9.77,9-18.21,18.75-18.28,10.09-.08,19.05,8.85,19,18.87"/><path class="e" d="M589.28,1046.71a18.62,18.62,0,0,1-37.23-.22,18.62,18.62,0,1,1,37.23.22"/><path class="e" d="M1490.32,813.27c0-10,8.4-18.56,18.29-18.57,9.71,0,18.53,8.77,18.55,18.48s-8.75,18.92-18.46,18.47c-11.42-.52-18.31-8.64-18.38-18.38"/><path class="e" d="M687.55,597.6a18.18,18.18,0,1,1,.86-36.35,18.18,18.18,0,1,1-.86,36.35"/><path class="e" d="M570.8,772.67a18.13,18.13,0,1,1,18.07-18.45,18,18,0,0,1-18.07,18.45"/><path class="e" d="M1490.51,1047c-.17-10.45,7.5-18.24,18-18.3a18.08,18.08,0,0,1,18.51,18c-.07,9.52-8.22,17.85-17.82,18.19a18.22,18.22,0,0,1-18.71-17.91"/><path class="e" d="M864.06,480.45c-10.6.14-18.44-7.42-18.49-17.79a18.29,18.29,0,0,1,18.22-18.42A18.9,18.9,0,0,1,882.09,462c.38,10-7.79,18.34-18,18.48"/><path class="e" d="M764.57,521.1c0,10-8.53,18.54-18.44,18.33a18.48,18.48,0,0,1-17.88-18.07,17.82,17.82,0,0,1,17.62-18c10.38-.23,18.63,7.61,18.7,17.74"/><path class="e" d="M1215.66,480.31a17.9,17.9,0,0,1-18.18-17.52c-.16-9.84,8.72-18.69,18.46-18.41s17.84,8.72,17.77,18.28a17.93,17.93,0,0,1-18,17.65"/><path class="e" d="M570.54,1123a17.92,17.92,0,0,1-18-17.71c0-9.53,8.24-18,17.82-18.22,9.76-.24,18.58,8.62,18.41,18.46A17.91,17.91,0,0,1,570.54,1123"/><path class="e" d="M1409.45,579.76a18.33,18.33,0,0,1-18.22,17.67c-10.07-.07-18.45-8.78-18-18.72a18.12,18.12,0,0,1,36.22,1"/><path class="e" d="M647.55,637.46a17.51,17.51,0,0,1-17.43,18c-10.58.24-18.54-7.3-18.65-17.66-.08-10,8.38-18.57,18.26-18.4a18.4,18.4,0,0,1,17.82,18"/><path class="e" d="M1315.05,521a17.87,17.87,0,0,1,35.73.5c-.33,9.73-7.18,17.35-18.17,17.68-9.75.29-17.68-8.35-17.56-18.18"/><path class="e" d="M647.31,1222a17.8,17.8,0,1,1-17.93-17.82A18,18,0,0,1,647.31,1222"/><path class="e" d="M1508.33,736.71c9.59-.2,18,8.08,18,17.82a17.73,17.73,0,1,1-18-17.82"/><path class="e" d="M1450.5,655.34a17.64,17.64,0,1,1-.23-35.28,17.33,17.33,0,0,1,17.53,17.11,17.5,17.5,0,0,1-17.3,18.17"/><path class="e" d="M1526.19,1105.28a17.51,17.51,0,0,1-18,17.59,17.82,17.82,0,0,1-17.28-17.57,17.4,17.4,0,0,1,18.1-17.4,17.08,17.08,0,0,1,17.16,17.38"/><path class="e" d="M1467.56,1222.14a17.37,17.37,0,1,1-17.37-17.33,17.51,17.51,0,0,1,17.37,17.33"/><path class="e" d="M804.86,445.53a17.09,17.09,0,0,1,17.72,16.64,17.7,17.7,0,0,1-16.91,17.76c-9.22.28-17.47-7.62-17.71-16.95a17,17,0,0,1,16.9-17.45"/><path class="e" d="M570.91,713.33c-9.93.08-17.43-7.21-17.43-17,0-9.52,8-17.54,17.36-17.42a17.59,17.59,0,0,1,17,16.94,16.72,16.72,0,0,1-16.94,17.45"/><path class="e" d="M529.3,930.25c-.07,9.38-8.24,17.45-17.41,17.19s-17.25-8.67-16.92-17.83a17.15,17.15,0,0,1,17.17-16.45,16.78,16.78,0,0,1,17.16,17.09"/><path class="e" d="M1257,462.66a16.76,16.76,0,0,1,17.18-17.08,17.2,17.2,0,0,1,17.16,17.3,17.94,17.94,0,0,1-17,17c-9.15.25-17.32-7.82-17.37-17.21"/><path class="e" d="M587.71,1164.53a17.07,17.07,0,1,1-16.18-18.2,17.12,17.12,0,0,1,16.18,18.2"/><path class="e" d="M512.21,888.34a16.83,16.83,0,0,1-17-16.49,17,17,0,1,1,34,.07,16.78,16.78,0,0,1-17,16.42"/><path class="e" d="M981.38,421c-9.79.15-17.58-7.26-17.57-16.73A16.86,16.86,0,0,1,980.6,387.6c9.78-.15,17.56,7.28,17.56,16.73A16.8,16.8,0,0,1,981.38,421"/><path class="e" d="M512.43,1005.35a17,17,0,0,1-.79-34c9.2-.43,17.51,7.64,17.51,17a17.29,17.29,0,0,1-16.72,17"/><path class="e" d="M1039.91,387.46a16.62,16.62,0,0,1,17,16.49c.19,9.78-7.25,17.26-17.13,17.25a16.87,16.87,0,1,1,.11-33.74"/><path class="e" d="M1491.81,695.94a16.87,16.87,0,0,1,33.73.43A17,17,0,0,1,1508,713.14a16.75,16.75,0,0,1-16.2-17.2"/><path class="e" d="M1098.66,420.9c-9.62.16-17.08-6.83-17.29-16.21a16.52,16.52,0,0,1,16.51-17c9.6-.17,17,6.8,17.22,16.23a16.34,16.34,0,0,1-16.44,17"/><path class="e" d="M629.59,595.92a16.51,16.51,0,1,1,16.61-16.77,16.6,16.6,0,0,1-16.61,16.77"/><path class="e" d="M939.1,403.92a16.32,16.32,0,0,1-16.37,16.88,16.51,16.51,0,1,1-.79-33,16.4,16.4,0,0,1,17.16,16.13"/><path class="e" d="M688,504.87a16.48,16.48,0,0,1,16.81,16.52,17.22,17.22,0,0,1-17.17,16.49,16.64,16.64,0,0,1-16.18-16.42c-.12-9.43,7-16.57,16.54-16.59"/><path class="e" d="M512.27,830c-9,0-16.7-7.8-16.61-16.92a16.87,16.87,0,0,1,16.15-16.54c8.84-.29,17.06,7.59,17.22,16.49s-7.86,16.92-16.76,17"/><path class="e" d="M1508.3,1146.77c8.84-.24,17,7.7,17.15,16.58s-8,16.91-16.84,16.91a16.75,16.75,0,0,1-.31-33.49"/><path class="e" d="M512.19,1030.4a16.34,16.34,0,0,1,16.68,16.6,17.15,17.15,0,0,1-16.58,16.22,16.51,16.51,0,0,1-16.44-16.94c.14-9.14,7.06-15.88,16.34-15.88"/><path class="e" d="M1407.79,521.53c-.19,8.64-8,16.28-16.58,16.2-8.94-.09-16.75-8.31-16.34-17.25a16.48,16.48,0,0,1,32.92,1"/><path class="e" d="M1173.16,404.05a16.43,16.43,0,1,1-16.27-16.19,16.32,16.32,0,0,1,16.27,16.19"/><path class="e" d="M1450.29,563.13A16.3,16.3,0,1,1,1434,579.34a16.31,16.31,0,0,1,16.25-16.21"/><path class="e" d="M762.67,462.66a16.37,16.37,0,0,1-16.56,15.9c-8.86-.14-16.29-7.8-16-16.47a16.27,16.27,0,0,1,32.52.57"/><path class="e" d="M554.41,637.32a16.26,16.26,0,1,1,16.08,16.37c-8.87-.08-16.32-7.66-16.08-16.37"/><path class="e" d="M512,738.45c8.4-.15,15.79,7,16.08,15.53a16.2,16.2,0,0,1-15.72,16.71c-8.25.12-15.9-7.19-16.23-15.52-.34-8.61,7.2-16.56,15.87-16.72"/><path class="e" d="M863.67,420.44c-8.64,0-16.27-7.9-16-16.54.24-8.33,7.77-15.7,16.06-15.7a16.12,16.12,0,0,1,0,32.24"/><path class="e" d="M512.21,1089.72A15.29,15.29,0,0,1,528,1105.11a15.87,15.87,0,0,1-15.38,16c-8.66.22-16.5-7.45-16.38-16.06a15.73,15.73,0,0,1,16-15.35"/><path class="e" d="M1333,447a15.3,15.3,0,0,1,15.65,15.51,15.87,15.87,0,0,1-15.51,15.9c-8.68.15-16.44-7.59-16.25-16.18A15.75,15.75,0,0,1,1333,447"/><path class="e" d="M570.27,1238.14A16.42,16.42,0,0,1,554.76,1222c.12-8.76,8.2-16.35,16.72-15.75s15.47,8.21,15.11,16.54-8.08,15.71-16.32,15.4"/><path class="e" d="M1231.52,404.26a16.44,16.44,0,0,1-15.67,16c-8.62.21-16.4-7.68-16.16-16.35.22-8.45,7.72-15.73,16.08-15.61a16.38,16.38,0,0,1,15.75,15.92"/><path class="e" d="M1508.44,622.28c9-.07,15.7,6.44,15.77,15.29a15.72,15.72,0,0,1-15.43,15.9c-8.3.08-15.88-7.28-16-15.6a15.57,15.57,0,0,1,15.66-15.59"/><path class="e" d="M1509.65,1207A15,15,0,0,1,1524,1223c-.39,8.4-7.3,14.6-16,14.32a15.19,15.19,0,0,1-14.89-15.54c.28-8.74,7.46-15.13,16.53-14.7"/><path class="e" d="M805.17,419.2a14.92,14.92,0,1,1,15.37-15,15.06,15.06,0,0,1-15.37,15"/><path class="e" d="M512.62,681.47a15,15,0,0,1,14.82,15.47,15.4,15.4,0,0,1-15.15,14.51,15.14,15.14,0,0,1-15.13-15.25c.09-8.6,6.7-14.9,15.46-14.73"/><path class="e" d="M629.4,506.49a14.74,14.74,0,0,1,15.18,15,15.08,15.08,0,0,1-30.15-.57,14.8,14.8,0,0,1,15-14.47"/><path class="e" d="M585.46,579.2a14.8,14.8,0,1,1-15-14.5,14.93,14.93,0,0,1,15,14.5"/><path class="e" d="M1274.34,389.51a14.79,14.79,0,1,1-1.08,29.55c-8-.38-14.58-7.47-14.23-15.28a15.19,15.19,0,0,1,15.31-14.27"/><path class="e" d="M688,447.7c7.73,0,14.8,7.11,14.8,14.85A14.67,14.67,0,0,1,687.93,477a14.23,14.23,0,0,1-14.6-14.53A14.94,14.94,0,0,1,688,447.7"/><path class="e" d="M468,929.82a14.23,14.23,0,0,1-14.34,14.78,14.69,14.69,0,0,1-15.11-14.23c-.15-7.71,6.79-14.91,14.56-15.1s14.75,6.53,14.89,14.55"/><path class="e" d="M512.29,1178.25a14.72,14.72,0,0,1-.53-29.43c8.36-.24,15.57,6.66,15.47,14.82a15.15,15.15,0,0,1-14.94,14.61"/><path class="e" d="M1040.18,360.12a14.46,14.46,0,1,1-.67-28.9c8.34-.16,14.94,6,15.13,14.09a14.49,14.49,0,0,1-14.46,14.81"/><path class="e" d="M1097.66,359.89a14.27,14.27,0,1,1,.89-28.52,14,14,0,0,1,14.25,14.72c-.22,8.22-6.65,14.08-15.14,13.8"/><path class="e" d="M1449.82,506.75a14.31,14.31,0,0,1,14.84,14.3c.07,8-6.67,14.9-14.51,14.87a14.87,14.87,0,0,1-14.4-14.15,14.27,14.27,0,0,1,14.07-15"/><path class="e" d="M453.11,886.14A15,15,0,0,1,438.79,871a14.56,14.56,0,0,1,29.1.57,14.8,14.8,0,0,1-14.78,14.58"/><path class="e" d="M1405.89,462.6a14.57,14.57,0,0,1-29.13-.05,14.57,14.57,0,0,1,29.13.05"/><path class="e" d="M981.53,331.41a13.93,13.93,0,0,1,13.91,15c-.37,7.92-6.46,13.6-14.56,13.55-8.38-.06-14.51-6.3-14.35-14.6s6.51-14.15,15-13.92"/><path class="e" d="M453.78,974.22a14,14,0,0,1,14,14.11c0,8.16-6.4,14.3-14.8,14.13a13.87,13.87,0,0,1-14-14.09c0-8.23,6.34-14.32,14.75-14.15"/><path class="e" d="M1522.81,579.29A14.63,14.63,0,0,1,1509,593.85c-7.67.24-14.85-6.92-14.7-14.68.16-7.5,6.93-14.18,14.4-14.16s14.08,6.66,14.15,14.28"/><path class="e" d="M467.63,813.47a14.35,14.35,0,0,1-14.49,13.74,14,14,0,1,1,.49-28c7.63.12,14.16,6.77,14,14.25"/><path class="e" d="M1170.81,345.37a14.07,14.07,0,1,1-14.35-13.72,13.89,13.89,0,0,1,14.35,13.72"/><path class="e" d="M936.84,345.52c.09,7.52-6.43,14-14.13,14.11a14,14,0,1,1-.27-28,14.46,14.46,0,0,1,14.4,13.87"/><path class="e" d="M453,1032.43c7.57-.23,14.47,6.4,14.63,14a13.92,13.92,0,0,1-13.46,14c-8.37.34-14.52-5.15-14.8-13.22A14.1,14.1,0,0,1,453,1032.43"/><path class="e" d="M526.07,637.82a14.18,14.18,0,0,1-13.57,13.93c-7.5.19-14.44-6.66-14.37-14.17A14,14,0,0,1,512.76,624a13.39,13.39,0,0,1,13.31,13.83"/><path class="e" d="M760.25,404.69a13.86,13.86,0,0,1-27.7-.77c.21-7.9,6.58-13.7,14.65-13.31a13.53,13.53,0,0,1,13,14.08"/><path class="e" d="M525.85,1222c.07,7.63-5.72,13.39-13.49,13.45s-13.64-5.58-13.69-13.22a13.15,13.15,0,0,1,13.47-13.46c7.78,0,13.64,5.64,13.71,13.23"/><path class="e" d="M1333.22,391a13.16,13.16,0,0,1,13.3,13.63c-.16,7.61-6.07,13.15-13.89,13A13.13,13.13,0,0,1,1319.35,404c.16-7.63,6.08-13.2,13.87-13"/><path class="e" d="M466.75,754.48a13,13,0,0,1-13.54,13.33,13.25,13.25,0,1,1-.19-26.5,13.08,13.08,0,0,1,13.73,13.17"/><path class="e" d="M863.74,359.29a13.63,13.63,0,0,1-.42-27.24c7.08-.3,13.83,6.19,13.95,13.4s-6.37,13.82-13.53,13.84"/><path class="e" d="M466.6,1105.11a12.84,12.84,0,0,1-13,13.18,13.29,13.29,0,0,1-13.76-12.55c-.31-7.12,6.34-13.92,13.57-13.89a13.44,13.44,0,0,1,13.15,13.26"/><path class="e" d="M1216.21,332.25a13.68,13.68,0,0,1,12.63,14.65c-.59,6.68-6.82,12.34-13.45,12.18a13.63,13.63,0,0,1-13-14.25c.39-7.05,6.92-13,13.86-12.58"/><path class="e" d="M570.59,534.46a13.55,13.55,0,0,1-13.1-13.31,13.18,13.18,0,0,1,26.35.12,13.56,13.56,0,0,1-13.25,13.19"/><path class="e" d="M629.5,475.43a12.66,12.66,0,0,1-13-12.95,13.07,13.07,0,1,1,26.13,0,12.68,12.68,0,0,1-13.09,12.91"/><path class="e" d="M817.81,345.5a12.56,12.56,0,1,1-12.69-12.28,12.23,12.23,0,0,1,12.69,12.28"/><path class="e" d="M1462.74,462.4a12.56,12.56,0,1,1-25.11.38A12.15,12.15,0,0,1,1450,450.16c7.25-.1,12.66,5.11,12.74,12.24"/><path class="e" d="M1521.18,521.09a12.16,12.16,0,0,1-12.5,12.54,12.57,12.57,0,0,1-12.8-12.37,12.92,12.92,0,0,1,12.61-12.72,12.7,12.7,0,0,1,12.69,12.55"/><path class="e" d="M453,683.67a13,13,0,0,1,13.13,12.19,12.62,12.62,0,0,1-12.28,12.89c-7.26.22-12.8-4.91-13-12A12.75,12.75,0,0,1,453,683.67"/><path class="e" d="M1286.69,345.78a12.67,12.67,0,0,1-13,12.22,12.37,12.37,0,0,1,.26-24.73,12.76,12.76,0,0,1,12.69,12.51"/><path class="e" d="M466,1163.19c.21,6.73-5.58,12.58-12.5,12.65a12.36,12.36,0,0,1-.61-24.71A12.75,12.75,0,0,1,466,1163.19"/><path class="e" d="M700.34,404.35a12.66,12.66,0,0,1-12.62,12.58c-6.6-.17-12.66-6.54-12.38-13.05a13.24,13.24,0,0,1,12.43-12.13,12.57,12.57,0,0,1,12.57,12.6"/><path class="e" d="M512.43,566.92a12.53,12.53,0,0,1,12.18,13A12.65,12.65,0,0,1,512.39,592c-6.58.11-12.81-6-12.79-12.59s6.18-12.67,12.83-12.53"/><path class="e" d="M1391,392.25a12.09,12.09,0,1,1-11.92,12.15A11.84,11.84,0,0,1,1391,392.25"/><path class="e" d="M394.7,918.22a11.79,11.79,0,0,1,12.05,11.85,11.82,11.82,0,0,1-23.64.45,11.81,11.81,0,0,1,11.59-12.3"/><path class="e" d="M1039.65,275.51a11.8,11.8,0,0,1,12,11.87,11.82,11.82,0,0,1-23.64.42,11.81,11.81,0,0,1,11.61-12.29"/><path class="e" d="M980.88,275.59a12.23,12.23,0,0,1,12,12.07,11.91,11.91,0,0,1-23.77.24c-.31-6.37,5.29-12.24,11.75-12.31"/><path class="e" d="M1110,287.26a11.26,11.26,0,0,1-11.19,11.65,11.65,11.65,0,0,1-12.37-11.44,12.17,12.17,0,0,1,12.14-11.88A11.83,11.83,0,0,1,1110,287.26"/><path class="e" d="M383.25,988.75a11.69,11.69,0,1,1,11.66,11.54,12,12,0,0,1-11.66-11.54"/><path class="e" d="M395.08,860a11.22,11.22,0,0,1,11.54,11.26,11.7,11.7,0,1,1-23.37-.31c.26-6.45,5.2-11,11.83-11"/><path class="e" d="M922.68,298.59A11.44,11.44,0,0,1,911,287.32c.07-6,5.83-11.62,11.78-11.45a11.77,11.77,0,0,1,11,11.19,10.91,10.91,0,0,1-11.15,11.53"/><path class="e" d="M383.44,1046.23a11.49,11.49,0,0,1,22.95.39c0,6.1-5.65,11.66-11.67,11.52s-11.49-5.87-11.28-11.91"/><path class="e" d="M464.66,637.79c-.05,6.52-5,11.2-11.64,11.07A11.51,11.51,0,0,1,441.83,638c-.15-6,5.39-11.72,11.43-11.79s11.45,5.39,11.4,11.62"/><path class="e" d="M1168.05,287.81c-.21,6.46-5.3,11.07-11.92,10.76a10.91,10.91,0,0,1-10.67-11.19c0-6.19,5.47-11.65,11.5-11.51a11.76,11.76,0,0,1,11.09,11.94"/><path class="e" d="M746.58,356.81a11.14,11.14,0,1,1-.76-22.27c6.58-.27,11.83,4.41,12,10.74a11.19,11.19,0,0,1-11.29,11.53"/><path class="e" d="M406.41,813.08a11.49,11.49,0,1,1-11.83-11,11.19,11.19,0,0,1,11.83,11"/><path class="e" d="M570.47,451.4A11.5,11.5,0,0,1,582,462.16c.25,5.8-4.78,11.17-10.74,11.46-6.34.31-12-4.92-12-11.1a11.53,11.53,0,0,1,11.17-11.12"/><path class="e" d="M464.52,1221.79a11.48,11.48,0,0,1-10.6,11.6,11.27,11.27,0,1,1-.71-22.53,11.52,11.52,0,0,1,11.31,10.93"/><path class="e" d="M1332.55,356.55a10.66,10.66,0,0,1-10.82-11c.07-6.52,5.12-11.1,11.89-10.76a10.81,10.81,0,0,1,10.43,11.41c-.3,6.15-5.19,10.54-11.5,10.38"/><path class="e" d="M405.74,754.86a10.81,10.81,0,1,1-21.61-.54,10.81,10.81,0,1,1,21.61.54"/><path class="e" d="M618.76,404.71a10.76,10.76,0,1,1,21.5-.78c.21,5.94-4.92,11.34-10.77,11.33a11.26,11.26,0,0,1-10.73-10.55"/><path class="e" d="M863.82,276.9a10.24,10.24,0,0,1,10.57,10.29,10.75,10.75,0,0,1-10.88,11.09c-5.49-.12-10.62-5.15-10.79-10.59a10.74,10.74,0,0,1,11.1-10.79"/><path class="e" d="M522.93,521.14a10.21,10.21,0,0,1-10.29,10.56c-6.34.19-11.37-4.45-11.37-10.49,0-5.74,5.6-11.09,11.33-10.86a10.77,10.77,0,0,1,10.33,10.79"/><path class="e" d="M1519.11,462.41A10.73,10.73,0,0,1,1509,473.27c-5.72.25-11.23-5.19-11.07-10.92a10.58,10.58,0,0,1,10.75-10.18,10.09,10.09,0,0,1,10.45,10.24"/><path class="e" d="M1226.11,287.73a10.89,10.89,0,0,1-10.57,10.43,10.69,10.69,0,0,1-10.41-11.36,10.5,10.5,0,0,1,21,.93"/><path class="e" d="M405.42,1105a10.77,10.77,0,0,1-10,11c-5.82.33-11-4.82-11-10.82a10.5,10.5,0,0,1,21-.14"/><path class="e" d="M1450,414.41a10.33,10.33,0,0,1-10.36-10.51c.26-5.73,5.14-10,11.13-9.71a10.12,10.12,0,1,1-.77,20.22"/><path class="e" d="M678.07,345.69a10,10,0,0,1,9.87-10c5.19,0,10.16,4.87,10.18,10s-5,10.05-10.11,10.07a10.11,10.11,0,0,1-9.94-10"/><path class="e" d="M815.24,287.4a10,10,0,0,1-20,0,10,10,0,1,1,20,0"/><path class="e" d="M453,569.57a9.88,9.88,0,1,1,.63,19.74,9.88,9.88,0,1,1-.63-19.74"/><path class="e" d="M404.85,696a9.93,9.93,0,1,1-19.84.86,9.56,9.56,0,0,1,9.48-10.15c5.74-.21,10.16,3.77,10.36,9.29"/><path class="e" d="M1283.69,287.78a9.35,9.35,0,0,1-9.67,9.14,9.67,9.67,0,0,1-9.85-9.95c.26-4.89,5-9.43,9.85-9.45a10,10,0,0,1,9.67,10.26"/><path class="e" d="M1391.35,355.18a9.51,9.51,0,1,1,9.79-9.13,9.68,9.68,0,0,1-9.79,9.13"/><path class="e" d="M395.34,1173a9.51,9.51,0,1,1,9.43-9.52,9.73,9.73,0,0,1-9.43,9.52"/><path class="e" d="M345.39,929.71a9.2,9.2,0,0,1-8.3,9.54c-4.91.38-9.78-4.1-9.83-9a9.08,9.08,0,0,1,8.93-8.86c5.27-.14,9,3.27,9.2,8.36"/><path class="e" d="M512.57,453.77a8.48,8.48,0,0,1,8.58,9,9.25,9.25,0,0,1-8.94,8.93c-4.91,0-9.52-4.87-9.17-9.69a9.07,9.07,0,0,1,9.53-8.23"/><path class="e" d="M336.66,997.21a9.23,9.23,0,0,1-9.12-8.86,9.36,9.36,0,0,1,9.13-8.86,8.87,8.87,0,0,1,0,17.72"/><path class="e" d="M336.14,880.11a8.77,8.77,0,0,1-8.53-9.19,9.47,9.47,0,0,1,8.79-8.4,9.09,9.09,0,0,1,8.82,9.06,8.49,8.49,0,0,1-9.08,8.53"/><path class="e" d="M981.41,220.64a8.65,8.65,0,0,1,8.53,9.14,9,9,0,0,1-17.87-.83,8.67,8.67,0,0,1,9.34-8.31"/><path class="e" d="M1048.8,228.87a8.95,8.95,0,1,1-17.89.24,8.95,8.95,0,0,1,17.89-.24"/><path class="e" d="M561.72,404.33a9,9,0,0,1,17.91-.4,9,9,0,1,1-17.91.4"/><path class="e" d="M629.12,337c4.23-.24,8.57,3.55,9,7.89s-3.62,9.2-8.25,9.46c-4.18.24-8.57-3.58-9-7.86-.47-4.49,3.64-9.23,8.25-9.49"/><path class="e" d="M1097.9,237.71a8.33,8.33,0,0,1-8.34-9.12c.32-5,4.3-8.29,9.53-7.9a8.53,8.53,0,1,1-1.19,17"/><path class="e" d="M737.68,287.47a8.72,8.72,0,0,1,17.43-.5,9.14,9.14,0,0,1-8.45,9.4c-4.61.17-9-4.13-9-8.9"/><path class="e" d="M403.65,637.51c.08,4.81-4.1,9.14-8.74,9.13s-8.79-4.38-8.69-9.18a8.72,8.72,0,0,1,17.43,0"/><path class="e" d="M336.19,821.91a8.68,8.68,0,0,1,.21-17.35,8.68,8.68,0,1,1-.21,17.35"/><path class="e" d="M336.19,1113.73a8.68,8.68,0,0,1,.21-17.35,8.68,8.68,0,1,1-.21,17.35"/><path class="e" d="M394.53,1230.45a8.31,8.31,0,0,1,.36-16.62,8.11,8.11,0,0,1,8.46,8.91c-.29,4.77-3.88,7.9-8.82,7.71"/><path class="e" d="M1156.67,237.49a8.56,8.56,0,0,1-8.6-8.19c-.09-4.75,4.19-8.69,9.17-8.45a8.33,8.33,0,1,1-.57,16.64"/><path class="e" d="M923,220.83a8.1,8.1,0,0,1,8,8.59c-.14,4.8-3.63,8.09-8.53,8.05a8.26,8.26,0,0,1-8.5-9,8.39,8.39,0,0,1,9-7.68"/><path class="e" d="M1508.59,412.61c-4.92,0-8.34-3.34-8.41-8.18a8.11,8.11,0,0,1,8.14-8.47,8.32,8.32,0,0,1,8.89,8.61,8.24,8.24,0,0,1-8.62,8"/><path class="e" d="M1341.47,287.09a8.53,8.53,0,0,1-17,1,8.5,8.5,0,0,1,8.37-9.21,8.83,8.83,0,0,1,8.65,8.23"/><path class="e" d="M336.57,1038.28a8.32,8.32,0,0,1,8.51,8.19,8.73,8.73,0,0,1-9,8.64,8.49,8.49,0,0,1-8-8.73,8.2,8.2,0,0,1,8.55-8.1"/><path class="e" d="M453.44,512.88a8.2,8.2,0,0,1,8.37,8.29,8.4,8.4,0,0,1-8.18,8.55,8.72,8.72,0,0,1-8.86-8.81,8.36,8.36,0,0,1,8.67-8"/><path class="e" d="M1449,337.6c3.38-.15,9.29,4.75,9.49,7.87.26,4.23-4,8.64-8.32,8.64a8.78,8.78,0,0,1-8.27-7.83c-.33-4.32,3.09-8.49,7.1-8.68"/></g><g class="f"><circle class="g" cx="1447.93" cy="860.22" r="160.95"/><path class="h" d="M1447.93,779.5a80.72,80.72,0,1,1-80.72,80.72,80.72,80.72,0,0,1,80.72-80.72m0-24.54a105.09,105.09,0,1,0,41,8.29,104.58,104.58,0,0,0-41-8.29"/></g><path class="h" d="M1234.75,1009.65a80.72,80.72,0,1,1-80.72,80.71,80.7,80.7,0,0,1,80.72-80.71m0-24.54a105,105,0,1,0,41,8.28,104.53,104.53,0,0,0-41-8.28"/><path class="h" d="M-50.8,744.86S127.48,628,421.14,953.8s959.05,172.78,1093.76-66.19l66.73-.09,21.51,434.72-1648.2,9Z"/><path class="i" d="M-50.8,744.86S127.48,628,421.14,953.8s959.05,172.78,1093.76-66.19l66.73-.09,21.51,434.72-1648.2,9Z"/><path class="e" d="M243.2,1024.56s184.07,177,674.05,147.36c0,0,396.47,11.12,669.62-203.5,18.46-14.51-3.18,71.55-3.18,71.55S1340.56,1287.7,507.26,1192c0,0-185.72-37.55-295.26-109Z"/><path class="j" d="M378,1218.8s882.87,124,1207.88-132.13l2.06,62.39s-293,209-1227.6,107.41Z"/><path class="h" d="M174.33,1158.75a126.73,126.73,0,1,1,126.73,126.73,126.73,126.73,0,0,1-126.73-126.73"/><circle class="k" cx="301.06" cy="1158.75" r="126.73"/><path class="e" d="M301.06,1241a82.23,82.23,0,1,1,82.23-82.23A82.33,82.33,0,0,1,301.06,1241"/><path d="M301.06,1085.54a73.21,73.21,0,1,1-73.21,73.21,73.21,73.21,0,0,1,73.21-73.21m0-18a91.24,91.24,0,1,0,64.53,26.72,90.66,90.66,0,0,0-64.53-26.72"/><path class="l" d="M257.37,1158.75a43.69,43.69,0,1,1,43.69,43.69,43.69,43.69,0,0,1-43.69-43.69"/><path class="h" d="M-56.2,975.43a161,161,0,1,1,161,161,161,161,0,0,1-160.95-161"/><circle class="m" cx="104.75" cy="975.43" r="160.95"/><path class="n" d="M104.75,1080.67A105.25,105.25,0,1,1,210,975.43a105.37,105.37,0,0,1-105.24,105.24"/><path class="o" d="M104.75,882.45a93,93,0,1,1-93,93,93,93,0,0,1,93-93m0-24.54a117.25,117.25,0,1,0,45.75,9.25,116.71,116.71,0,0,0-45.75-9.25"/><path d="M49.26,975.43a55.49,55.49,0,1,1,55.49,55.48,55.49,55.49,0,0,1-55.49-55.48"/><path class="p" d="M78.28,773.63a90.51,90.51,0,0,1,24.65-39.82q4.39,18.53,8.78,37.05a11.52,11.52,0,0,0,2.13,5.11c1.53,1.75,3.94,2.4,6.19,3a190.5,190.5,0,0,1,33.7,12.56c2.47,1.19,5,2.52,6.65,4.71s2.15,5.49.41,7.62c-1.46,1.78-4,2.23-6.25,2.56l-33.27,4.8a84.19,84.19,0,0,1,18.66,51.43A78.4,78.4,0,0,1,108,845.11c-5.13-4.66-10.11-10.26-16.91-11.55C83,832,75.35,837,68,840.81c-11.28,5.8-14.53,9-27.22,9.18,1.49-13.25,5.3-29.34,12.64-44a5.9,5.9,0,0,0,.85-2.67c0-1.55-1.21-2.79-2.29-3.89-5.84-5.95-11.76-14.69-16.2-21.75-2.07-3.3-4.74-7.56-5.05-11.44s2.89-5.28,6.46-6.82,7.81.79,11.44,2.42C58.83,766.39,69,770.25,78.28,773.63Z"/><path class="q" d="M104.94,1191.9a82.35,82.35,0,0,1-27.84-11.63c-2.41-1.58-5-4.15-4.1-6.88a6.34,6.34,0,0,1,3-3.05,40.85,40.85,0,0,1,23.83-5.76c2.51.18,5.5.4,7.06-1.57a7.21,7.21,0,0,0,1.1-4.15q.67-12.48,1.36-24.95c.21-4,1-8.83,4.67-10.4S122,1125,124.73,1128a72,72,0,0,1,14.62,24.79,49,49,0,0,1,33-11.54c2.53.08,5.18.4,7.27,1.84,5.66,3.88,3.68,13.05-1,18.09s-11.25,8.26-15,14a7.18,7.18,0,0,0-1.39,3.81c0,2.9,2.61,5,4.83,6.85A45.79,45.79,0,0,1,182,1210c.61,2.54.87,5.6-1,7.42s-5,1.43-7.57.81a118.51,118.51,0,0,1-33-13.39c0,12.31-7.71,17.29-16.93,25.45-4.19,3.71-10.09,6.7-15.24,4.52-5.48-2.32-8-9.2-7.51-15.12.88-9.72,3.78-13.83,7.94-23.45C108.87,1196.25,109,1196.25,104.94,1191.9Z"/><path class="r" d="M165.18,913.77l-17.3-.23c-2.53,0-5.49-.3-6.82-2.38-1.84-2.91,1.12-6.49,4.11-8.29a33.33,33.33,0,0,1,11.11-4.2c1.7-.31,3.65-.62,4.61-2a5.68,5.68,0,0,0,.63-3.41L161,874.89c0-1.92,0-4,1.3-5.47,2.94-3.17,8.18.12,11.09,3.31l11.76,12.87a67.58,67.58,0,0,1,15.3-5.77c3.37-.82,7.35-1.25,9.92,1s2.46,6.74.56,9.75-5,5.06-7.9,7.25c-1.15.87-2.38,2-2.29,3.42a4.56,4.56,0,0,0,1.39,2.5l14,15.89a5.46,5.46,0,0,1,1.57,2.69c.21,1.48-.86,2.86-2.09,3.76-4.16,3.06-10.12,2.39-15,.47s-9.21-4.91-14.23-6.29a37.07,37.07,0,0,1-12.7,24.35c-1.6,1.37-3.74,2.69-5.74,2-1.71-.62-2.53-2.47-3.06-4.16C162.18,933.77,162.45,924.26,165.18,913.77Z"/></svg>