<svg xmlns="http://www.w3.org/2000/svg" xmlns:xlink="http://www.w3.org/1999/xlink" viewBox="0 0 1149 963"><defs><style>.a{fill:none;}.b{fill:url(#a);}.c{clip-path:url(#b);}.d{fill:#309fa6;}.e{clip-path:url(#c);}.f{fill:#fff;}.g{clip-path:url(#d);}</style><linearGradient id="a" x1="46.5" y1="-46.5" x2="1102.5" y2="1009.5" gradientUnits="userSpaceOnUse"><stop offset="0" stop-color="#fff"/><stop offset="0.1" stop-color="#f8fcfc"/><stop offset="0.25" stop-color="#e4f2f3"/><stop offset="0.43" stop-color="#c3e3e5"/><stop offset="0.63" stop-color="#96ced2"/><stop offset="0.85" stop-color="#5cb3b9"/><stop offset="1" stop-color="#319fa6"/></linearGradient><clipPath id="b"><rect class="a" x="-12" y="-13.71" width="731.57" height="612.64"/></clipPath><clipPath id="c"><rect class="a" x="365.79" y="513" width="785.73" height="450"/></clipPath><clipPath id="d"><rect class="a" x="194.43" y="282.14" width="966.43" height="715"/></clipPath></defs><title>work-bg</title><rect class="b" width="1149" height="963"/><g class="c"><path class="d" d="M206.72,95.62l8.22-7.79c-2.41-2.6-4.93-5.34-6.67-7.23-2.85,3-5.69,5.9-8.47,8.8Zm-7,33.31,8.37,9.76c2.35-2.69,4.81-5.5,6.52-7.47l-7.6-8.74ZM258.43,88.7l-9.37-8.91-7.19,7.91,8.26,8.07C252.54,93.7,255.51,91.17,258.43,88.7Zm-10.3,49.52,9.12-9.59-6.86-5.9L242,131.27C243.88,133.37,246.35,136.18,248.13,138.22Zm-92.89-8.84L167,140.43c2.89-3.3,6.17-7.06,9.27-10.59-3.23-3.29-6.72-6.86-9.78-10Zm-.31-40.49,11.65,9.54,9.63-10c-3.08-3.42-6.32-7-9.26-10.25Zm53-52.56L197,48l10.44,9.19,10.2-9.57C214.42,43.8,211,39.88,208,36.33Zm52.35,11.34a60.77,60.77,0,0,1-6.61-5.25A50.91,50.91,0,0,1,249,36.13L238.9,47.6,249,57.17C252.87,54,256.7,50.71,260.32,47.67Zm42.14,82.38c-4.56-4-8.9-7.69-12.82-11.06l-10.21,10.63L290,141.77A21.1,21.1,0,0,1,302.46,130.05Zm-53.57,30.08-10.68,10.12c3.63,4.21,7.22,8.38,11,12.74a21.82,21.82,0,0,1,11.89-12.39C256.8,166.93,252.77,163.48,248.89,160.13Zm-30.48,10.1-10.7-10.06c-3.87,3.4-7.75,6.82-12,10.53a22.06,22.06,0,0,1,11.64,12.44C211.21,178.63,214.82,174.41,218.41,170.23Zm85.35-81.46C297.13,86.71,292.88,82.12,290,77L279.41,88.59l10.7,11.27C293.2,95.12,297.36,90.86,303.76,88.77ZM166.19,59.5c4.39-4.27,8.45-8.25,12.62-12.32-5.68-2.37-9-7.48-11.93-13.77-2.48,7.54-7.23,12-14.94,14.72C158.93,50.71,163.35,54.41,166.19,59.5Zm123-26.08c-2.22,6.69-6.73,11.15-13.31,14.69,6.8,2.58,10.7,7.07,13.44,12.71,2.28-2.68,4.17-5.53,6.68-7.68s5.44-3.4,8.69-5.34C296.68,45.51,292,40.68,289.16,33.42ZM150.27,169.81c9.28,2.45,14.3,7.68,17,16.61,1.94-8,6.44-12.88,13.46-16.33-6.83-2.71-10.86-7-13.8-13.2C163.34,163.38,158.63,167.78,150.27,169.81Zm139.12-14c-2.72,7-7.19,11.38-14.31,14.22,7.32,3.24,11.85,8.3,14,15.54C292,177,297.5,171.86,307,169.85,298.49,168,292.9,163.64,289.39,155.82ZM109.21,129.37c8.89,2.18,14.41,7.55,17.37,17.35,2.33-8.68,6.86-13.82,13.82-16.9-3.11-2.35-6.13-4.06-8.38-6.48s-3.89-5.65-6.08-9C123,122.71,117.33,127.23,109.21,129.37ZM289,193.19c-2.82,9-8.29,14.82-18.9,16.68l5.84,2.42a18.74,18.74,0,0,1,11.9,17.83c-.12,8.23-4.12,14.13-11.54,17.51a19.22,19.22,0,0,1-25.35-10,19,19,0,0,1,10-25.19c1.66-.73,3.4-1.24,6.52-2.35-9.56-1.9-15.34-6.56-18.8-15.27-3.22,8.27-8.64,13-16.77,15.27,13.11,6.46,18,14.55,15.35,24.6-2.38,9.14-10.25,14.87-20,14.53A19.26,19.26,0,0,1,209,233.34c-1.65-10,3.66-18,15.24-22.67-3.33-1.94-6.89-3.38-9.56-5.79s-4.59-5.91-6.81-8.87c-2,2.68-4,6.2-6.84,8.71s-6.36,3.78-10,5.84c6.64,2.21,12.26,5.7,14.79,12.62a19.35,19.35,0,0,1,.3,12.87c-2.21,6.81-9.13,14.3-21,13.06a19.23,19.23,0,0,1-16.58-16.38c-1.34-10.22,3.81-17.55,15.71-22.13-3.56-2.08-7.49-3.58-10.31-6.26s-4.81-6.66-7-9.89c-5.12,11.25-12.91,16.27-23.06,14.6a20.2,20.2,0,0,1-16.13-16.45c-1.45-10,3.66-17.69,15.51-22.8-8.28-2.77-14-7.72-16.3-17-.84,1.52-1.37,2.32-1.74,3.2-3.72,8.79-12.44,14.17-20.74,12.75-9.8-1.67-16.47-8.61-17.14-17.84-.7-9.65,4.88-17.4,14.68-20.38.67-.2,1.33-.45,3.06-1.06-12.34-3.74-19.25-10.7-17.72-23.34a19.44,19.44,0,0,1,16-16.44c9.22-1.63,16.16,2.51,23.25,14.18,2.73-7.06,7.14-12.26,15-15a24,24,0,0,1-14.9-15.54c-7.82,13-15.27,17.06-25.2,14.14-9.13-2.7-14.69-10.28-14.34-19.54.34-8.6,6.62-16.37,14.72-18.19,10.48-2.35,18.26,2.13,24.36,14,2-3.12,3.63-6.59,6.13-9.18s6-4.43,9-6.55C130.31,42,126.07,35,127.68,24.87c1.28-7.94,8.24-14.77,16.46-16.15,9.44-1.58,17.09,3.14,23.09,14.51,3.1-7.84,8.17-13.32,16.65-15.11-14-8.33-17.92-15-15.06-25.4A19.37,19.37,0,0,1,188-31.41a19.22,19.22,0,0,1,18.7,14.7C209.35-6.46,205.45,0,191.47,8.11c7.82,1.62,12.81,6.47,16.46,14.14,3.22-7.44,8-12.18,16.22-14.44C217,4.84,211.69,1,209.54-5.86a20.32,20.32,0,0,1,0-12.32,19.57,19.57,0,0,1,19.78-13.35A19.88,19.88,0,0,1,247.4-17.36C250.17-7.49,246.08,0,233.24,8c7.28,2.2,12.28,6.67,15.29,14.17,4-7.71,9.19-13,18.89-14.07-6.26-1.77-11.08-3.76-14.26-8.2s-5.25-9.3-4-14.92c2.42-10.6,10.57-16.9,20.95-16.32a19.39,19.39,0,0,1,17.7,15.93c1.75,10.88-3.72,18.63-17.13,23.39,9.69,1.71,15.42,7.27,18.4,16.37,5-11.26,12.61-16.56,21.64-15.59a20.23,20.23,0,0,1,17.86,16.7c1.72,9.25-3.36,17.08-14.7,22.7,21.47,8.58,19.95,33.26.21,40.92,8.14,2.65,13.29,8,15.35,16.35,8.61-14.15,15.51-18,26-14.73A19.34,19.34,0,0,1,369,110.23c-.36,8.51-6.89,16.26-15.05,17.89-10.59,2.1-17.92-2.36-24-14.68-1.84,3.15-3.22,6.63-5.58,9.24s-5.84,4.59-9.14,7.07c9.76,4.48,15.11,11.73,13.71,22.82-1,8.23-6.54,13.73-17.43,17.3,5.13,1.37,9.48,3.34,12.62,7.28a19.32,19.32,0,0,1,4.46,13.77,19.94,19.94,0,0,1-17,18.13C302,210.35,294.27,205.13,289,193.19Z"/><path class="d" d="M349.72,49.5A19.08,19.08,0,0,1,369,68.57a19.64,19.64,0,0,1-19.61,19.55c-10.22-.15-20-9.34-19.53-19.32C330.39,56.71,340,49,349.72,49.5Z"/><path class="d" d="M349.63,168.44a19.1,19.1,0,1,1,.16-38.18,19.09,19.09,0,1,1-.16,38.18Z"/><path class="d" d="M166.48-12.06a19.34,19.34,0,0,1-19.2,19.23,19.22,19.22,0,0,1-19-19.39,19.26,19.26,0,0,1,18.88-19A19.37,19.37,0,0,1,166.48-12.06Z"/><path class="d" d="M106.71,47.36a18.79,18.79,0,0,1-19.11-19C87.66,17.69,96.13,9.5,107,9.58a18.89,18.89,0,1,1-.28,37.78Z"/><path class="d" d="M125.65,189.47a18.62,18.62,0,0,1-18.74,18.82,18.9,18.9,0,0,1-19.25-18.45c-.21-10.37,8.71-19.34,19.16-19.29A19,19,0,0,1,125.65,189.47Z"/><path class="d" d="M327.9-12.09A19.24,19.24,0,0,1,309.2,7.07C298.85,7.29,290-1.67,290-12.21a19.27,19.27,0,0,1,19-18.87A19.26,19.26,0,0,1,327.9-12.09Z"/><path class="d" d="M128.5,230.17c-.07-10.59,8.11-18.55,18.73-18.89a18.82,18.82,0,0,1,19.1,18.63c.27,10.19-8.57,18.94-18.85,19A18.87,18.87,0,0,1,128.5,230.17Z"/><path class="d" d="M349.48,47.26a18.8,18.8,0,1,1,19-18.69A18.86,18.86,0,0,1,349.48,47.26Z"/><path class="d" d="M309,211.46a18.62,18.62,0,0,1,18.8,18.73,19.17,19.17,0,0,1-18.55,18.66c-10.08.23-19-8.53-19.08-18.7A18.61,18.61,0,0,1,309,211.46Z"/><path class="d" d="M349.15,208.09a18.46,18.46,0,0,1-18.27-18.58c0-9.27,6.8-18.78,18.87-18.65,12.37.14,18.72,9.92,18.55,18.94A18.48,18.48,0,0,1,349.15,208.09Z"/><path class="d" d="M85.15,109.27a19.18,19.18,0,0,1-18.6,18.6c-10.09.15-19-8.74-18.92-18.85a18.76,18.76,0,0,1,37.52.25Z"/><path class="d" d="M66.21,50.39A18.42,18.42,0,0,1,85,68.51a18.58,18.58,0,0,1-37.15.34A18.41,18.41,0,0,1,66.21,50.39Z"/><path class="d" d="M408.23,108.9a17.9,17.9,0,0,1-17.79,18.38,18.35,18.35,0,0,1-19-17.91c-.14-10,8.5-18.64,18.52-18.6A18.45,18.45,0,0,1,408.23,108.9Z"/><path class="d" d="M246.63,270.48a18.33,18.33,0,1,1-18.2-18.7A18.54,18.54,0,0,1,246.63,270.48Z"/><path class="d" d="M47.88,149.5c.34-9.77,7-18.49,18.5-18.5s18.51,8.63,18.44,18.48c-.06,9.6-6.83,18-18.13,18.23C56.06,168,48.43,160.06,47.88,149.5Z"/><path class="d" d="M106.82,6.22a18.14,18.14,0,0,1-18.4-18.44,18.19,18.19,0,0,1,18.25-18A18.48,18.48,0,0,1,125.21-11.8,18.44,18.44,0,0,1,106.82,6.22Z"/><path class="d" d="M349.4-30.18a18.36,18.36,0,0,1,18.44,17.83A18.3,18.3,0,0,1,350.08,6.13,18.31,18.31,0,0,1,331.35-12,18.34,18.34,0,0,1,349.4-30.18Z"/><path class="d" d="M408.09,68.68a18.27,18.27,0,0,1-18,18.28c-10,.1-18.69-8.64-18.5-18.56a18.17,18.17,0,0,1,18.5-17.77A17.78,17.78,0,0,1,408.09,68.68Z"/><path class="d" d="M106.46,248A17.77,17.77,0,0,1,88.6,229.88a18.31,18.31,0,0,1,18.1-18.14c9.94,0,18.61,8.83,18.31,18.68A18.11,18.11,0,0,1,106.46,248Z"/><path class="d" d="M268.43,288.24a18,18,0,1,1,.4-36,18,18,0,1,1-.4,36Z"/><path class="d" d="M389.81,131.35a18,18,0,1,1,.23,36,18,18,0,1,1-.23-36Z"/><path class="d" d="M187.53,252.12a18.13,18.13,0,1,1-18.06,18.1A18,18,0,0,1,187.53,252.12Z"/><path class="d" d="M84.43,28.7C84.31,38.85,76.33,46.48,66,46.33A17.64,17.64,0,0,1,48.37,28,17.66,17.66,0,0,1,66.48,10.61,17.69,17.69,0,0,1,84.43,28.7Z"/><path class="d" d="M349.45,247.92A17.94,17.94,0,1,1,367.72,230,18.12,18.12,0,0,1,349.45,247.92Z"/><path class="d" d="M84.27,189.69a17.89,17.89,0,1,1-18-18.07A17.73,17.73,0,0,1,84.27,189.69Z"/><path class="d" d="M389.9,46.15a17.69,17.69,0,1,1,.36-35.37,17.88,17.88,0,0,1,17.6,17.87A17.83,17.83,0,0,1,389.9,46.15Z"/><path class="d" d="M147.16,287.89a17.69,17.69,0,0,1,.12-35.37,17.69,17.69,0,1,1-.12,35.37Z"/><path class="d" d="M389.52,207a17.2,17.2,0,0,1-17.25-18,17.83,17.83,0,0,1,17.79-17.22c9.64.1,18,8.47,17.68,18C407.42,200.38,398.45,207.73,389.52,207Z"/><path class="d" d="M308.84,287.83a17.63,17.63,0,1,1,17.84-17.48A17.61,17.61,0,0,1,308.84,287.83Z"/><path class="d" d="M66.42,5.28A17.39,17.39,0,0,1,48.76-11.84,17.36,17.36,0,0,1,66.64-29.27,17.37,17.37,0,0,1,84-11.89,17.37,17.37,0,0,1,66.42,5.28Z"/><path class="d" d="M43.13,108.93a17.36,17.36,0,1,1-34.72.41A17.19,17.19,0,0,1,25.56,91.79,17.22,17.22,0,0,1,43.13,108.93Z"/><path class="d" d="M65.68,247.15A17.26,17.26,0,0,1,49,229.72a17.58,17.58,0,0,1,17.86-17c9.5.24,17.39,8.54,17,17.86A17.27,17.27,0,0,1,65.68,247.15Z"/><path class="d" d="M43,68.7a17.26,17.26,0,1,1-34.52-.3A16.94,16.94,0,0,1,25.64,51.54,16.94,16.94,0,0,1,43,68.7Z"/><path class="d" d="M124.09,270.12c.06,9.34-8.1,17.54-17.4,17.48a17.39,17.39,0,0,1-.18-34.77C115.75,252.62,124,260.76,124.09,270.12Z"/><path class="d" d="M389.84-29.13a17,17,0,0,1,17.31,17.34A17,17,0,0,1,390,5.1a17.17,17.17,0,0,1-17.41-17.32A17.25,17.25,0,0,1,389.84-29.13Z"/><path class="d" d="M43,149.21c.06,9.53-8,17.65-17.36,17.52A17.54,17.54,0,0,1,8.56,149.48c-.06-9.54,8-17.65,17.37-17.52A17.55,17.55,0,0,1,43,149.21Z"/><path class="d" d="M228.22,327.74a17.06,17.06,0,1,1,17.21-16.83A17,17,0,0,1,228.22,327.74Z"/><path class="d" d="M430.6,126.06c-9.7,0-17-7.17-17.12-16.74A17.15,17.15,0,0,1,430.78,92a17.58,17.58,0,0,1,17,17.27A17,17,0,0,1,430.6,126.06Z"/><path class="d" d="M413.54,68.67a16.64,16.64,0,0,1,17-16.89,17,17,0,0,1,17.17,16.9,17.52,17.52,0,0,1-17.2,17.13A17.07,17.07,0,0,1,413.54,68.67Z"/><path class="d" d="M389.78,246.89a16.93,16.93,0,0,1-17-17,17.59,17.59,0,0,1,17.33-17,17.12,17.12,0,0,1,16.87,17.28C406.87,239.73,399.5,246.93,389.78,246.89Z"/><path class="d" d="M285.6,311a16.91,16.91,0,0,1-17.21,16.74,17,17,0,1,1,.51-34A17,17,0,0,1,285.6,311Z"/><path class="d" d="M187.56,327.72a17,17,0,1,1,17.15-16.9A17,17,0,0,1,187.56,327.72Z"/><path class="d" d="M366.71,270.41a17.11,17.11,0,1,1-16.93-17.09A17,17,0,0,1,366.71,270.41Z"/><path class="d" d="M25.81,45.24A16.76,16.76,0,1,1,26,11.73a16.76,16.76,0,1,1-.2,33.51Z"/><path class="d" d="M42.79,189.41a17.33,17.33,0,0,1-17,17.08A17.34,17.34,0,0,1,8.75,190a17,17,0,0,1,34-.54Z"/><path class="d" d="M430.68,166.19a16.83,16.83,0,1,1-.23-33.66,16.83,16.83,0,1,1,.23,33.66Z"/><path class="d" d="M430.8,45a16.55,16.55,0,1,1,16.42-16.8A16.41,16.41,0,0,1,430.8,45Z"/><path class="d" d="M325.6,310.64a16.63,16.63,0,1,1-16.69-16.72A16.84,16.84,0,0,1,325.6,310.64Z"/><path class="d" d="M164.14,311c-.14,8.93-8,16.93-16.89,16.5-10.76-.51-16.84-8.63-16.58-17.3.25-8.5,6.76-16.15,17.09-16.2C156.81,293.92,164.3,302,164.14,311Z"/><path class="d" d="M430.4,206a16.61,16.61,0,0,1-16.64-16.61,17.09,17.09,0,0,1,16.9-16.54,16.72,16.72,0,0,1,16.5,16.81A16.25,16.25,0,0,1,430.4,206Z"/><path class="d" d="M66.42,253.76a16.45,16.45,0,1,1-16.54,16.15A16.61,16.61,0,0,1,66.42,253.76Z"/><path class="d" d="M25.53,4.21A16,16,0,0,1,9.41-12.11c0-9.31,7.4-16.32,16.9-16.1A16,16,0,0,1,42.15-11.62,16,16,0,0,1,25.53,4.21Z"/><path class="d" d="M406.19,270.2a16.28,16.28,0,1,1-16.3-16.32A16.45,16.45,0,0,1,406.19,270.2Z"/><path class="d" d="M9.57,229.89A16.21,16.21,0,1,1,25.8,246.27,16.15,16.15,0,0,1,9.57,229.89Z"/><path class="d" d="M430.38-28a16.11,16.11,0,0,1,16.4,16.1A16.05,16.05,0,0,1,430.74,4a15.81,15.81,0,0,1-16.31-16.08A15.84,15.84,0,0,1,430.38-28Z"/><path class="d" d="M106.79,326.68a16,16,0,1,1-.1-32,16,16,0,1,1,.1,32Z"/><path class="d" d="M1.66,109.09a16.06,16.06,0,0,1-15.9,16,15.85,15.85,0,0,1-16.45-16A16.19,16.19,0,0,1-14.87,93,16.35,16.35,0,0,1,1.66,109.09Z"/><path class="d" d="M-14.42,52.79A16.07,16.07,0,0,1,1.65,68.68a16.42,16.42,0,0,1-16,16.09A16.19,16.19,0,0,1-30.62,68.4,15.7,15.7,0,0,1-14.42,52.79Z"/><path class="d" d="M430.59,245.81a15.52,15.52,0,0,1-16-15.63,16.12,16.12,0,0,1,16.21-16.24,16.47,16.47,0,0,1,15.88,16.16A15.92,15.92,0,0,1,430.59,245.81Z"/><path class="d" d="M-30.52,149a15.94,15.94,0,0,1,16.2-15.64A16.34,16.34,0,0,1,1.59,149.43a16.48,16.48,0,0,1-16.08,16A16.06,16.06,0,0,1-30.52,149Z"/><path class="d" d="M365.6,310.75a16,16,0,1,1-15.81-16A15.88,15.88,0,0,1,365.6,310.75Z"/><path class="d" d="M471,124.86a15.77,15.77,0,0,1-16-15.79,16,16,0,0,1,31.91-.15A15.78,15.78,0,0,1,471,124.86Z"/><path class="d" d="M228.37,366.6a15.79,15.79,0,0,1-16-15.8,16,16,0,0,1,31.91-.15A15.76,15.76,0,0,1,228.37,366.6Z"/><path class="d" d="M470.94,53a16,16,0,0,1,15.84,15.46c.14,8.5-7.41,16.11-16,16.07A16.3,16.3,0,0,1,455,68.9,16,16,0,0,1,470.94,53Z"/><path class="d" d="M187.41,366.54A15.57,15.57,0,0,1,172,350.9c-.1-7.39,5.47-15.66,16-15.78,8.54-.09,15.43,7.22,15.43,15.76A15.51,15.51,0,0,1,187.41,366.54Z"/><path class="d" d="M-14.67,44A15.37,15.37,0,0,1-30.3,28.65,15.37,15.37,0,0,1-14.47,12.92,15.55,15.55,0,0,1,1.27,28.27,15.62,15.62,0,0,1-14.67,44Z"/><path class="d" d="M470.84,164.83c-8.67,0-15.85-6.87-15.75-15.38a15.73,15.73,0,0,1,16.11-15.66c8.58.41,15.63,7.27,15.51,15.72A15.67,15.67,0,0,1,470.84,164.83Z"/><path class="d" d="M268.47,335.29A15.62,15.62,0,1,1,253,350.94,15.58,15.58,0,0,1,268.47,335.29Z"/><path class="d" d="M1,189.44a15.44,15.44,0,0,1-15.52,15.62,15.54,15.54,0,0,1-15.76-15.43,15.78,15.78,0,0,1,15.58-15.69A15.54,15.54,0,0,1,1,189.44Z"/><path class="d" d="M147.47,335.6A15.39,15.39,0,0,1,163,351.16a15.9,15.9,0,0,1-15.43,15.26A15.5,15.5,0,0,1,131.88,351,15.14,15.14,0,0,1,147.47,335.6Z"/><path class="d" d="M25.55,285.59a15.4,15.4,0,1,1,15.84-15.3A15.49,15.49,0,0,1,25.55,285.59Z"/><path class="d" d="M470.88,43.85a15.53,15.53,0,0,1-15.6-15.52,15.6,15.6,0,0,1,31.19,0A15.53,15.53,0,0,1,470.88,43.85Z"/><path class="d" d="M81.82,310.58a15.43,15.43,0,1,1-15.27-15.27A15.52,15.52,0,0,1,81.82,310.58Z"/><path class="d" d="M309.35,335.72a15.1,15.1,0,0,1,15,15.28,15.4,15.4,0,1,1-30.8-.19C293.62,342.17,300.51,335.58,309.35,335.72Z"/><path class="d" d="M471,204.7a15,15,0,0,1-15.41-14.95c-.11-8.81,6.63-15.49,15.53-15.6,8.38-.11,15.14,7,15.13,15.43A15,15,0,0,1,471,204.7Z"/><path class="d" d="M445.75,270.47a15.24,15.24,0,0,1-15.46,15,15.27,15.27,0,1,1,.52-30.53A15.28,15.28,0,0,1,445.75,270.47Z"/><path class="d" d="M-15,3A15.08,15.08,0,0,1-29.89-12.42,15.08,15.08,0,0,1-14.16-27,14.88,14.88,0,0,1,.65-11.59C.47-3.15-6.34,3.22-15,3Z"/><path class="d" d="M389.71,295.66a15,15,0,1,1,.44,30.09,15,15,0,1,1-.44-30.09Z"/><path class="d" d="M.55,230.18a15.09,15.09,0,0,1-15.42,14.87,14.94,14.94,0,0,1-14.76-14.94A15,15,0,0,1-14.51,215,15.13,15.13,0,0,1,.55,230.18Z"/><path class="d" d="M106.61,365.68a14.63,14.63,0,0,1-14.81-14.8,15,15,0,0,1,14.8-15,15.32,15.32,0,0,1,15.2,15.25A14.9,14.9,0,0,1,106.61,365.68Z"/><path class="d" d="M470.47,2.81a14.71,14.71,0,0,1-14.53-15.09A14.72,14.72,0,0,1,471-26.85a14.72,14.72,0,0,1,14.8,15.38A14.69,14.69,0,0,1,470.47,2.81Z"/><path class="d" d="M471.05,244.63a14.52,14.52,0,0,1-15-14.46,14.84,14.84,0,1,1,29.68-.34A14.52,14.52,0,0,1,471.05,244.63Z"/><path class="d" d="M349.65,365.51a14.53,14.53,0,0,1-14.9-14.58,14.84,14.84,0,1,1,29.68-.12A14.52,14.52,0,0,1,349.65,365.51Z"/><path class="d" d="M26,325.3A15,15,0,0,1,11.1,311.08c-.26-7.88,6.75-15,14.71-15A14.61,14.61,0,0,1,26,325.3Z"/><path class="d" d="M228.34,405.71a14.51,14.51,0,0,1-14.63-14.31,14.59,14.59,0,0,1,29.18-.08A14.52,14.52,0,0,1,228.34,405.71Z"/><path class="d" d="M525.91,109.15a14.42,14.42,0,1,1-28.83,0,14.42,14.42,0,0,1,28.83,0Z"/><path class="d" d="M202,391.6a14.36,14.36,0,0,1-28.72-.21,14.36,14.36,0,1,1,28.72.21Z"/><path class="d" d="M511.11,82.89a14,14,0,0,1-14-14.78,14.36,14.36,0,0,1,28.71.79A14,14,0,0,1,511.11,82.89Z"/><path class="d" d="M268.25,405.49a13.89,13.89,0,0,1-13.91-14.24A14.46,14.46,0,0,1,269,377a14.77,14.77,0,0,1,14,14.46A14.3,14.3,0,0,1,268.25,405.49Z"/><path class="d" d="M525.81,149.53a14.31,14.31,0,1,1-14.41-14.45A14.19,14.19,0,0,1,525.81,149.53Z"/><path class="d" d="M444.82,310.56a14.49,14.49,0,0,1-14.43,14.58,14.9,14.9,0,0,1-14.31-14.29c-.1-7.73,6.84-14.64,14.58-14.55A14.4,14.4,0,0,1,444.82,310.56Z"/><path class="d" d="M66.67,336.83a14,14,0,0,1,14,14.21,14.27,14.27,0,1,1-28.54-.54A14.06,14.06,0,0,1,66.67,336.83Z"/><path class="d" d="M511.65,42.6a14.37,14.37,0,0,1-14.36-14,14.22,14.22,0,0,1,28.43-.31A14.36,14.36,0,0,1,511.65,42.6Z"/><path class="d" d="M147.55,405.34a13.83,13.83,0,0,1-14.28-13.77c-.08-7.77,6.17-14.53,13.87-14.35,8.13.19,14,5.78,14.39,13.95C161.88,398.82,155.37,405.26,147.55,405.34Z"/><path class="d" d="M375.85,351a13.88,13.88,0,0,1,14-14.11,14.11,14.11,0,0,1,14.31,13.9A14.68,14.68,0,0,1,390,365.15,14.36,14.36,0,0,1,375.85,351Z"/><path class="d" d="M511.54,203.49a14.18,14.18,0,0,1-14.22-14.05,14.18,14.18,0,0,1,28.35-.07A14.16,14.16,0,0,1,511.54,203.49Z"/><path class="d" d="M308.85,405.31a14.17,14.17,0,0,1-14.06-14.21,14.17,14.17,0,0,1,28.34.23A14.14,14.14,0,0,1,308.85,405.31Z"/><path class="d" d="M485,270.23a14.09,14.09,0,1,1-14.08-14.16A14.14,14.14,0,0,1,485,270.23Z"/><path class="d" d="M511.7-25.65a13.61,13.61,0,0,1,13.43,14A13.52,13.52,0,0,1,511,1.6a13.56,13.56,0,0,1-13.15-13.68A13.6,13.6,0,0,1,511.7-25.65Z"/><path class="d" d="M93.13,391.45a13.21,13.21,0,0,1,13.7-13.54,13.64,13.64,0,0,1,13.69,13.73,14.12,14.12,0,0,1-13.59,13.48A13.77,13.77,0,0,1,93.13,391.45Z"/><path class="d" d="M349.65,378a13.61,13.61,0,0,1,13.58,13.33A14.07,14.07,0,0,1,349.82,405c-7.32.19-14-6.47-13.87-13.85A13.59,13.59,0,0,1,349.65,378Z"/><path class="d" d="M25.82,364.25A13.4,13.4,0,1,1,39.35,351,13.61,13.61,0,0,1,25.82,364.25Z"/><path class="d" d="M525,230.29a13.5,13.5,0,0,1-27-.27,13.45,13.45,0,0,1,13.9-13.56C519.27,216.46,525.12,223,525,230.29Z"/><path class="d" d="M470.63,297.37c7.26.54,12.9,4.8,13.49,12.81.54,7.12-5.74,13.94-13,13.79-6.85-.14-12.87-4.37-13.49-12.74C457.1,304.1,463.36,297.57,470.63,297.37Z"/><path class="d" d="M430.44,337.87a12.91,12.91,0,0,1,13.29,13.24,13.27,13.27,0,0,1-13.11,13,13.6,13.6,0,0,1-13.42-13.42A13.15,13.15,0,0,1,430.44,337.87Z"/><path class="d" d="M66.12,404.24a12.84,12.84,0,0,1-12.83-13.16c.16-7,6.44-13.07,13.38-12.86a13.42,13.42,0,0,1,12.82,13.41A12.84,12.84,0,0,1,66.12,404.24Z"/><path class="d" d="M552.11,81.5a12.91,12.91,0,0,1-13.35-12.71,13.49,13.49,0,0,1,13.09-13.22,13.17,13.17,0,0,1,12.93,12.67A12.69,12.69,0,0,1,552.11,81.5Z"/><path class="d" d="M564.77,109a13.13,13.13,0,0,1-12.94,13.24A13.47,13.47,0,0,1,538.75,109a13,13,0,0,1,12.77-12.73A12.73,12.73,0,0,1,564.77,109Z"/><path class="d" d="M564.72,149.59a13,13,0,0,1-13.26,12.68,12.95,12.95,0,0,1,.49-25.89A13,13,0,0,1,564.72,149.59Z"/><path class="d" d="M187.48,444.38a12.8,12.8,0,1,1,13.28-12.75A12.91,12.91,0,0,1,187.48,444.38Z"/><path class="d" d="M268.72,418.87a12.7,12.7,0,1,1-13,12.9A12.64,12.64,0,0,1,268.72,418.87Z"/><path class="d" d="M389.67,404.17a12.71,12.71,0,0,1-12.62-12.76,13.06,13.06,0,0,1,13.12-13,13.2,13.2,0,0,1,12.71,12.93A12.9,12.9,0,0,1,389.67,404.17Z"/><path class="d" d="M524.54,270.28a13.33,13.33,0,0,1-13.24,12.87c-7-.13-13-6.37-12.82-13.28a13,13,0,0,1,26.06.41Z"/><path class="d" d="M228.48,418.78a12.8,12.8,0,1,1-13.12,12.74A12.62,12.62,0,0,1,228.48,418.78Z"/><path class="d" d="M539.2,28.5a12.94,12.94,0,0,1,12.62-12.82,13.27,13.27,0,0,1,12.8,12.76c0,6.7-6,13.06-12.74,12.75C544,40.83,539.25,35.22,539.2,28.5Z"/><path class="d" d="M309.18,444.06a12.51,12.51,0,1,1,12.36-12.84A12.46,12.46,0,0,1,309.18,444.06Z"/><path class="d" d="M160,431.29a12.46,12.46,0,0,1-12.36,12.8,12.55,12.55,0,1,1-.56-25.09A12.52,12.52,0,0,1,160,431.29Z"/><path class="d" d="M539.33,189.79a12.09,12.09,0,0,1,12.43-12.62,12.47,12.47,0,0,1,12.78,12.43,13,13,0,0,1-12.3,12.56A12.58,12.58,0,0,1,539.33,189.79Z"/><path class="d" d="M25.72,379.15A12.21,12.21,0,1,1,13.4,391.54,12.46,12.46,0,0,1,25.72,379.15Z"/><path class="d" d="M94.47,431.3a12.24,12.24,0,1,1,12.13,12.58A12.48,12.48,0,0,1,94.47,431.3Z"/><path class="d" d="M551.63-24.33A12.47,12.47,0,0,1,564-12,12.43,12.43,0,0,1,552.27.3a12.45,12.45,0,0,1-12.7-12A12.47,12.47,0,0,1,551.63-24.33Z"/><path class="d" d="M349.67,443.84a12.65,12.65,0,0,1-12.34-12.33c0-6.54,6-12.36,12.46-12.22a12.28,12.28,0,0,1-.12,24.55Z"/><path class="d" d="M564,230a12.11,12.11,0,0,1-12.41,12.14,12.29,12.29,0,0,1-11.93-12.13,12,12,0,0,1,12.49-12A11.79,11.79,0,0,1,564,230Z"/><path class="d" d="M470.87,338.91a12.15,12.15,0,0,1,12.27,11.72,12.27,12.27,0,1,1-24.53,0A12.16,12.16,0,0,1,470.87,338.91Z"/><path class="d" d="M430.32,403.16a12,12,0,0,1-11.9-12,12.47,12.47,0,0,1,12.33-11.82,12.11,12.11,0,0,1,11.71,12.26C442.37,398.35,437.23,403.25,430.32,403.16Z"/><path class="d" d="M523.49,310.69a12,12,0,1,1-12-12A12.08,12.08,0,0,1,523.49,310.69Z"/><path class="d" d="M66.55,443a11.46,11.46,0,1,1,11.62-11.46A11.64,11.64,0,0,1,66.55,443Z"/><path class="d" d="M401.34,431.61a11.24,11.24,0,0,1-11.61,11.33,11.39,11.39,0,1,1,.1-22.77A11.29,11.29,0,0,1,401.34,431.61Z"/><path class="d" d="M592.37,120.41a11.09,11.09,0,0,1-11.64-11.22,11.45,11.45,0,0,1,22.89-.41A11.11,11.11,0,0,1,592.37,120.41Z"/><path class="d" d="M551.61,258.67a12,12,0,0,1,11.83,11.44c.07,6.08-5.49,11.68-11.62,11.68a11.56,11.56,0,0,1-.21-23.12Z"/><path class="d" d="M228.36,483a11.12,11.12,0,0,1-11.51-11.36,11.45,11.45,0,0,1,22.89-.12A11.1,11.1,0,0,1,228.36,483Z"/><path class="d" d="M603.56,68.48a11.4,11.4,0,1,1-22.79.41,11.12,11.12,0,0,1,10.91-11.41C598.32,57.28,603.47,62,603.56,68.48Z"/><path class="d" d="M187.75,482.94a11,11,0,0,1-11.4-10.85,11.34,11.34,0,1,1,22.67-.15A11,11,0,0,1,187.75,482.94Z"/><path class="d" d="M592.22,160.48a11.13,11.13,0,1,1,11.31-11A11.2,11.2,0,0,1,592.22,160.48Z"/><path class="d" d="M279.88,471.6a11,11,0,0,1-10.95,11.3,11.3,11.3,0,0,1-11.68-11.29,11.79,11.79,0,0,1,11.37-11.25A11.53,11.53,0,0,1,279.88,471.6Z"/><path class="d" d="M592.28,39.37a10.91,10.91,0,1,1,11.13-11.14A11,11,0,0,1,592.28,39.37Z"/><path class="d" d="M147.41,460.76a11,11,0,1,1-11.12,11.11A10.88,10.88,0,0,1,147.41,460.76Z"/><path class="d" d="M482,391.35a11.12,11.12,0,0,1-22.23,0,11.12,11.12,0,0,1,22.23,0Z"/><path class="d" d="M592.28,200.4a11,11,0,0,1-11.23-11.06,11.12,11.12,0,0,1,22.24.36A11,11,0,0,1,592.28,200.4Z"/><path class="d" d="M522.45,350.81a11,11,0,1,1-21.92.22,11,11,0,0,1,21.92-.22Z"/><path class="d" d="M308.91,460.92a10.7,10.7,0,0,1,11,10.53,11,11,0,1,1-21.9.13A10.67,10.67,0,0,1,308.91,460.92Z"/><path class="d" d="M95.92,471.08a10.76,10.76,0,0,1,11.64-9.9,10.54,10.54,0,0,1,9.81,11.58,10.88,10.88,0,0,1-11.2,9.82C100.33,482.17,95.46,476.72,95.92,471.08Z"/><path class="d" d="M25.62,442.36a10.76,10.76,0,1,1,.6-21.51A10.62,10.62,0,0,1,36.56,431.6,10.74,10.74,0,0,1,25.62,442.36Z"/><path class="d" d="M552.54,300.27a10.45,10.45,0,1,1-1.14,20.87,10.48,10.48,0,0,1-10.27-10.73C541.32,304.38,546.28,300,552.54,300.27Z"/><path class="d" d="M430.76,442a10.45,10.45,0,1,1-.14-20.88,10.44,10.44,0,1,1,.14,20.88Z"/><path class="d" d="M602.63,230.05a10.47,10.47,0,1,1-10.43-10.54A10.46,10.46,0,0,1,602.63,230.05Z"/><path class="d" d="M349.73,461.25a10.48,10.48,0,0,1,10.33,10.65,10.47,10.47,0,1,1-10.33-10.65Z"/><path class="d" d="M66.31,461.65a10.2,10.2,0,0,1,10.07,10.18,10,10,0,0,1-20,.17A10.21,10.21,0,0,1,66.31,461.65Z"/><path class="d" d="M390.08,462a9.77,9.77,0,0,1,9.8,9.68,10,10,0,0,1-10.09,10,9.85,9.85,0,1,1,.29-19.7Z"/><path class="d" d="M592.17,280a9.75,9.75,0,1,1,10-9.46A9.91,9.91,0,0,1,592.17,280Z"/><path class="d" d="M642.49,109.09a9.71,9.71,0,1,1-19.42-.13,9.34,9.34,0,0,1,9.49-9.32C638.26,99.53,642.45,103.53,642.49,109.09Z"/><path class="d" d="M511.58,381.51a9.93,9.93,0,0,1,9.7,9.79,9.79,9.79,0,1,1-19.57-.16A9.94,9.94,0,0,1,511.58,381.51Z"/><path class="d" d="M642.44,68.93c-.14,5.44-4.57,9.42-10.22,9.17a9.39,9.39,0,0,1-9.1-9.71,9.66,9.66,0,1,1,19.32.54Z"/><path class="d" d="M187.78,502.52a10,10,0,0,1,9.56,10.08,9.66,9.66,0,0,1-19.31-.76A10,10,0,0,1,187.78,502.52Z"/><path class="d" d="M228.21,521.76a9.44,9.44,0,0,1-9.63-9.77,9.73,9.73,0,0,1,19.45.17A9.48,9.48,0,0,1,228.21,521.76Z"/><path class="d" d="M278.36,512.48a9.64,9.64,0,0,1-10.26,9.2,9.22,9.22,0,0,1-9-9.71,9.8,9.8,0,0,1,9.53-9.44A10.08,10.08,0,0,1,278.36,512.48Z"/><path class="d" d="M561.38,351.18a9.78,9.78,0,0,1-9.55,9.43,10.08,10.08,0,0,1-9.72-10,9.67,9.67,0,0,1,10.27-9.21A9.24,9.24,0,0,1,561.38,351.18Z"/><path class="d" d="M633,19a9.84,9.84,0,0,1,9.33,9.65,9.53,9.53,0,0,1-19-.35A9.9,9.9,0,0,1,633,19Z"/><path class="d" d="M632.88,159a9.61,9.61,0,1,1,9.57-9.41A9.81,9.81,0,0,1,632.88,159Z"/><path class="d" d="M471.14,422.12a9.47,9.47,0,1,1-9.83,9.48A9.34,9.34,0,0,1,471.14,422.12Z"/><path class="d" d="M156.7,512.52a9.38,9.38,0,1,1-9.1-9.61A9.28,9.28,0,0,1,156.7,512.52Z"/><path class="d" d="M26,480.9a9,9,0,0,1-9.46-9.07A9.23,9.23,0,0,1,35,471.36,9,9,0,0,1,26,480.9Z"/><path class="d" d="M583.07,310.57a9.1,9.1,0,1,1,9,9.16A9.14,9.14,0,0,1,583.07,310.57Z"/><path class="d" d="M632.86,198.83a9.58,9.58,0,0,1-9.46-9.35,9.4,9.4,0,0,1,18.79-.13A9.58,9.58,0,0,1,632.86,198.83Z"/><path class="d" d="M318.36,512.4a9.38,9.38,0,1,1-18.76-.57,9.39,9.39,0,0,1,18.76.57Z"/><path class="d" d="M430.49,462.61a9.58,9.58,0,0,1,9.23,9.07,9,9,0,0,1-9.09,9,8.66,8.66,0,0,1-9.08-8.84A9.12,9.12,0,0,1,430.49,462.61Z"/><path class="d" d="M97.81,512a8.78,8.78,0,0,1,9.31-8.62,9,9,0,0,1,8.65,8.81c0,4.74-4.43,9.2-9.14,9.11A9.12,9.12,0,0,1,97.81,512Z"/><path class="d" d="M358.54,512a9,9,0,1,1-9.5-8.51A9.12,9.12,0,0,1,358.54,512Z"/><path class="d" d="M641.55,230a8.76,8.76,0,1,1-8.46-8.78A8.67,8.67,0,0,1,641.55,230Z"/><path class="d" d="M551.67,399.68a8.43,8.43,0,0,1-8.42-8.2A9,9,0,0,1,552,382.8a8.59,8.59,0,0,1,8.26,9A8.12,8.12,0,0,1,551.67,399.68Z"/><path class="d" d="M511.7,423.23a8.35,8.35,0,1,1-8.72,8.41A8.36,8.36,0,0,1,511.7,423.23Z"/><path class="d" d="M66.15,520.49a8.43,8.43,0,0,1-8.23-8.35,9,9,0,0,1,8.42-8.39c4.5,0,8.74,4.39,8.51,8.85A8.45,8.45,0,0,1,66.15,520.49Z"/><path class="d" d="M398,512.53a8.08,8.08,0,0,1-8.06,7.84,8.35,8.35,0,0,1-8.2-8.36,8,8,0,0,1,8.73-7.67A7.71,7.71,0,0,1,398,512.53Z"/><path class="d" d="M641,270.21c0,4.32-4.21,8.43-8.49,8.24a8.72,8.72,0,0,1-8-8.21c0-4.33,4.21-8.42,8.48-8.23A8.66,8.66,0,0,1,641,270.21Z"/><path class="d" d="M470.65,463.62a8.21,8.21,0,0,1,8.27,7.62,8.07,8.07,0,0,1-16.1,1A8.23,8.23,0,0,1,470.65,463.62Z"/><path class="d" d="M592,358.83a7.73,7.73,0,0,1-7.93-7.8,8.07,8.07,0,1,1,16.13.26A7.78,7.78,0,0,1,592,358.83Z"/><path class="d" d="M236.13,552.37a7.83,7.83,0,1,1-7.61-7.71A8.08,8.08,0,0,1,236.13,552.37Z"/><path class="d" d="M268.39,560.21a7.78,7.78,0,1,1,7.93-7.38A7.87,7.87,0,0,1,268.39,560.21Z"/><path class="d" d="M673.29,76.42A7.84,7.84,0,0,1,665.42,69a7.71,7.71,0,1,1,15.41-.36A7.85,7.85,0,0,1,673.29,76.42Z"/><path class="d" d="M195.32,552.42a7.65,7.65,0,1,1-15.28-.24,7.64,7.64,0,1,1,15.28.24Z"/><path class="d" d="M680.85,109.4a7.69,7.69,0,0,1-7.85,7.39,7.6,7.6,0,0,1-7.57-8.17,7.72,7.72,0,0,1,15.42.78Z"/><path class="d" d="M680.83,149.62a7.45,7.45,0,0,1-7.85,7.25,7.37,7.37,0,0,1-7.53-8.09c.28-4.24,3.66-7.13,8.09-6.95A7.45,7.45,0,0,1,680.83,149.62Z"/><path class="d" d="M147.29,545a7.77,7.77,0,0,1,7.61,7.68,7.93,7.93,0,0,1-7.46,7.32,7.5,7.5,0,0,1-.15-15Z"/><path class="d" d="M33.23,512.37a7.24,7.24,0,0,1-7.9,7.12,7.24,7.24,0,0,1-7-7.43,7.71,7.71,0,0,1,7.34-7.33A7.67,7.67,0,0,1,33.23,512.37Z"/><path class="d" d="M680.51,28.22a7.26,7.26,0,0,1-7.44,7.62,7.61,7.61,0,0,1-7.5-7.11,7.65,7.65,0,0,1,7.56-7.65A7.28,7.28,0,0,1,680.51,28.22Z"/><path class="d" d="M437.78,512.43a7,7,0,0,1-7.32,7,7.28,7.28,0,0,1-7.33-7.11,7.74,7.74,0,0,1,7.75-7.44A7.42,7.42,0,0,1,437.78,512.43Z"/><path class="d" d="M680.36,189.75a7,7,0,0,1-7.33,6.94,7.25,7.25,0,0,1-7.31-7.11,7.73,7.73,0,0,1,7.76-7.42A7.4,7.4,0,0,1,680.36,189.75Z"/><path class="d" d="M309.24,559.61a7.26,7.26,0,0,1-7.62-6.75,7.37,7.37,0,0,1,14.72-.55A7.25,7.25,0,0,1,309.24,559.61Z"/><path class="d" d="M632.79,303.54a7.16,7.16,0,1,1-7.36,7A7.2,7.2,0,0,1,632.79,303.54Z"/><path class="d" d="M356.43,552.28a6.85,6.85,0,1,1-7-6.67A6.75,6.75,0,0,1,356.43,552.28Z"/><path class="d" d="M551.68,424.68a6.88,6.88,0,1,1,.07,13.75,6.88,6.88,0,0,1-.07-13.75Z"/><path class="d" d="M113.79,552.59a6.86,6.86,0,0,1-7.05,6.71,6.88,6.88,0,1,1,.31-13.75A6.9,6.9,0,0,1,113.79,552.59Z"/><path class="d" d="M585.31,391.22a6.85,6.85,0,0,1,13.7.37,6.85,6.85,0,1,1-13.7-.37Z"/><path class="d" d="M518.38,471.72a6.89,6.89,0,0,1-13.77.07,6.89,6.89,0,1,1,13.77-.07Z"/><path class="d" d="M673.21,236.7a6.51,6.51,0,0,1-6.91-6.65,7,7,0,0,1,6.77-7,7.39,7.39,0,0,1,7,6.85A6.82,6.82,0,0,1,673.21,236.7Z"/><path class="d" d="M72.74,552.69a6.37,6.37,0,1,1-12.7-.77,6.66,6.66,0,0,1,6.45-6A6.58,6.58,0,0,1,72.74,552.69Z"/><path class="d" d="M679.3,270.28a6.1,6.1,0,0,1-6.12,6.13,6.21,6.21,0,1,1,.13-12.41A6.16,6.16,0,0,1,679.3,270.28Z"/><path class="d" d="M632.7,344.83a6,6,0,0,1,6.33,5.86,6.24,6.24,0,1,1-12.48.17A6,6,0,0,1,632.7,344.83Z"/><path class="d" d="M592.08,425.39a6,6,0,0,1,6.33,5.87,6.24,6.24,0,1,1-12.48.17A6,6,0,0,1,592.08,425.39Z"/><path class="d" d="M551.69,465.65a6,6,0,0,1,6.33,5.87,6.24,6.24,0,1,1-12.48.16A6,6,0,0,1,551.69,465.65Z"/><path class="d" d="M383.77,552.31a6,6,0,0,1,6.17-6,6.17,6.17,0,1,1-.28,12.33A6,6,0,0,1,383.77,552.31Z"/><path class="d" d="M471,518.29a5.87,5.87,0,0,1-6.28-5.84,6.2,6.2,0,1,1,12.4-.17A5.87,5.87,0,0,1,471,518.29Z"/><path class="d" d="M234.13,592.66a5.84,5.84,0,1,1-5.95-5.72A6.09,6.09,0,0,1,234.13,592.66Z"/><path class="d" d="M713.83,114.94a5.88,5.88,0,0,1-6-5.55,6.08,6.08,0,0,1,6.09-6.14,5.87,5.87,0,0,1,5.68,5.9A5.72,5.72,0,0,1,713.83,114.94Z"/><path class="d" d="M713.91,63.13a5.35,5.35,0,0,1,5.47,5.9,5.74,5.74,0,0,1-5.58,5.41,6.15,6.15,0,0,1-5.91-5.79A5.68,5.68,0,0,1,713.91,63.13Z"/><path class="d" d="M713.91,22.79a5.35,5.35,0,0,1,5.47,5.9,5.76,5.76,0,0,1-5.58,5.42,6.17,6.17,0,0,1-5.91-5.8A5.69,5.69,0,0,1,713.91,22.79Z"/><path class="d" d="M187.68,587.11a5.8,5.8,0,1,1-5.74,6A6,6,0,0,1,187.68,587.11Z"/><path class="d" d="M719.26,149.51a5.6,5.6,0,0,1-5.89,5.59,6.34,6.34,0,0,1-5.48-5.66,6.17,6.17,0,0,1,5.84-5.86A5.62,5.62,0,0,1,719.26,149.51Z"/><path class="d" d="M719.26,189.79a5.6,5.6,0,0,1-5.89,5.59,6.34,6.34,0,0,1-5.48-5.66,6.17,6.17,0,0,1,5.84-5.87A5.62,5.62,0,0,1,719.26,189.79Z"/><path class="d" d="M25.74,546.77a5.66,5.66,0,1,1-.22,11.31,5.56,5.56,0,0,1-5.45-5.46A5.64,5.64,0,0,1,25.74,546.77Z"/><path class="d" d="M268.53,598.36a5.51,5.51,0,0,1-5.72-5.69,6.14,6.14,0,0,1,5.56-5.48,5.77,5.77,0,0,1,5.93,5.59C274.37,596.08,272,598.36,268.53,598.36Z"/></g><g class="e"><path class="f" d="M741.27,844.47c48.85,3.33,92.46,12,134.19,19.84,41.48,7.82,81.36,15,121.41,14.56,81.48-.78,161.6-32.62,261.34-144l-16.39-14.68c-96.76,108.09-171.39,136-245.16,136.72-37.58.36-75.44-6.33-117.12-14.19-41.43-7.81-86.38-16.74-136.78-20.16ZM589.74,973.56c-5.46-24-4.25-58.75,15.65-85.85,19.43-26.45,58.82-48.48,135.88-43.24l1.49-21.94C661,817,613,840.19,587.66,874.69c-24.86,33.85-25.74,75.76-19.37,103.75Zm82.9-219.08c139.82-7.93,245.42,14.46,328.87,23.09,41.33,4.27,78,5.21,109.72-3.8,32.41-9.2,59-28.52,80.6-62.92l-18.63-11.7c-18.9,30.1-41.13,45.84-68,53.46-27.49,7.79-60.55,7.3-101.46,3.07-81-8.37-190.21-31.23-332.38-23.16ZM523.07,970.55c-19.9-34.88-35-86.29-20-129.44,14.49-41.53,58.94-80.35,169.53-86.63l-1.25-22c-115,6.52-170.4,47.87-189,101.34-18.09,51.87.35,110.3,21.62,147.59ZM440.44,735.13c26.63-27.65,67.28-40.44,120.07-46.64s114.68-5.59,183-8.63c135.55-6,291.87-26.52,425.83-147.7l-14.76-16.32c-128,115.82-277.72,136.07-412,142-66.57,3-130.72,2.41-184.65,8.75s-101.23,19.88-133.35,53.23ZM427.51,969c-16.16-19.65-35.23-55.34-39-97.46-3.77-41.64,7.29-90,52-136.42l-15.85-15.26c-49.32,51.21-62.35,106-58,153.66,4.27,47.18,25.45,86.94,44,109.46Zm830.7-234.17a11,11,0,1,0-16.39-14.68ZM742,833.5l.75-11ZM568.29,978.44a11,11,0,1,0,21.45-4.88Zm623.54-267.59a11,11,0,1,0-18.63-11.7ZM672,743.5l.63,11Zm-168,238a11,11,0,0,0,19.11-10.9Zm665.43-449.29a11,11,0,0,0-14.76-16.32ZM432.51,727.5l7.93,7.63ZM410.52,983a11,11,0,1,0,17-14Z"/></g><g class="g"><path class="f" d="M664.63,608.62c241.69,14.77,397.58-55.08,482.94-133.7,42.51-39.14,67.82-80.77,76.92-115.38,4.54-17.25,5.26-33.6,1.15-47.21-4.24-14-13.68-25-28.14-29.62l-7.29,22.87c5.92,1.88,10.18,6.15,12.46,13.69,2.41,8,2.46,19.55-1.39,34.16-7.65,29.11-29.92,67-70,103.84-79.74,73.44-228.85,141.84-465.22,127.4ZM252.78,994c-18.57-11.75-32.71-41.46-34.22-83.07C217.08,870.07,228,820.59,256,773.52c55.45-93.4,179-178.93,408.64-164.9l1.46-24c-236.82-14.47-369.82,74-430.74,176.6-30.24,50.93-42.43,105-40.77,150.53,1.62,44.82,16.93,84.48,45.36,102.48ZM1197.5,282.71a12,12,0,0,0-7.29,22.87ZM665.36,596.64l.73-12ZM239.94,1014.28A12,12,0,0,0,252.78,994Z"/></g></svg>