<svg xmlns="http://www.w3.org/2000/svg" xmlns:xlink="http://www.w3.org/1999/xlink" viewBox="0 0 1149 963"><defs><style>.a{fill:none;}.b{clip-path:url(#a);}.c{fill:#e7d934;}.d{clip-path:url(#b);}.e{fill:#e83c7d;}.f{clip-path:url(#c);}.g{clip-path:url(#d);}.h{fill:#e66831;}.i{clip-path:url(#f);}.j{clip-path:url(#h);}.k{clip-path:url(#i);}.l{clip-path:url(#k);}</style><clipPath id="a"><rect class="a" x="312" width="780" height="499.77"/></clipPath><clipPath id="b"><rect class="a" x="886" width="263" height="469"/></clipPath><clipPath id="c"><circle class="a" cx="1064" cy="87" r="178"/></clipPath><clipPath id="d"><circle class="a" cx="1064" cy="87" r="107"/></clipPath><clipPath id="f"><circle class="a" cx="1064" cy="87" r="60" transform="translate(250.12 777.84) rotate(-45)"/></clipPath><clipPath id="h"><circle class="a" cx="1202" cy="331" r="138"/></clipPath><clipPath id="i"><circle class="a" cx="1202" cy="331" r="82.96"/></clipPath><clipPath id="k"><circle class="a" cx="1202" cy="331" r="46.52" transform="translate(603.69 1424.8) rotate(-76.72)"/></clipPath></defs><title>aboutme-bg</title><g class="b"><path class="c" d="M707.87,76.05l6.93-6.56-5.62-6.09-7.13,7.41Zm-5.91,28,7.06,8.22c2-2.27,4-4.63,5.49-6.29l-6.41-7.36C705.78,100.73,703.41,102.82,702,104.09Zm49.45-33.87-7.88-7.5-6.07,6.66,7,6.79C746.46,74.43,749,72.3,751.41,70.22Zm-8.67,41.69,7.68-8.07-5.78-5c-2.44,2.49-4.75,4.84-7,7.19C739.16,107.83,741.24,110.19,742.74,111.91Zm-78.21-7.44,9.93,9.3,7.8-8.91c-2.71-2.77-5.65-5.78-8.22-8.39Zm-.26-34.09,9.82,8,8.1-8.41c-2.59-2.88-5.32-5.9-7.79-8.63Zm44.66-44.25c-3,3.2-6.25,6.67-9.21,9.81l8.8,7.74,8.58-8.06C714.36,32.42,711.51,29.12,708.93,26.13ZM753,35.68a51.78,51.78,0,0,1-5.56-4.42,41.86,41.86,0,0,1-4-5.3L735,35.62l8.54,8.06ZM788.48,105l-10.8-9.31-8.59,9L778,114.9A17.79,17.79,0,0,1,788.48,105Zm-45.1,25.33-9,8.52,9.26,10.72a18.34,18.34,0,0,1,10-10.43C750,136.08,746.65,133.18,743.38,130.36Zm-25.66,8.5-9-8.47-10.1,8.87a18.5,18.5,0,0,1,9.79,10.47Zm71.85-68.58c-5.57-1.73-9.16-5.6-11.62-9.94l-8.88,9.79,9,9.49C780.68,75.63,784.19,72,789.57,70.28ZM673.76,45.64l10.62-10.37c-4.78-2-7.57-6.3-10-11.6-2.09,6.35-6.09,10.09-12.59,12.4C667.64,38.24,671.37,41.35,673.76,45.64Zm103.52-22c-1.86,5.63-5.67,9.39-11.21,12.37,5.73,2.17,9,6,11.32,10.7,1.92-2.26,3.51-4.66,5.62-6.47s4.59-2.86,7.32-4.49C783.61,33.86,779.69,29.79,777.28,23.68ZM660.35,138.51c7.82,2.06,12,6.46,14.3,14,1.63-6.74,5.42-10.84,11.33-13.75a20.56,20.56,0,0,1-11.62-11.11C671.36,133.09,667.39,136.8,660.35,138.51Zm117.12-11.78a19.85,19.85,0,0,1-12,12c6.16,2.73,10,7,11.81,13.08,2.47-7.21,7.07-11.55,15-13.24C785.14,136.94,780.43,133.31,777.47,126.73ZM625.78,104.46c7.49,1.84,12.13,6.36,14.63,14.61,2-7.31,5.77-11.64,11.63-14.23-2.62-2-5.16-3.42-7-5.46s-3.27-4.75-5.12-7.55C637.37,98.85,632.62,102.66,625.78,104.46Zm151.37,53.73c-2.37,7.61-7,12.48-15.9,14l4.91,2a15.78,15.78,0,0,1,10,15c-.1,6.93-3.47,11.9-9.72,14.74a16.18,16.18,0,0,1-21.34-8.39,16,16,0,0,1,8.42-21.21c1.4-.61,2.86-1,5.49-2-8-1.6-12.92-5.52-15.83-12.85-2.7,7-7.27,11-14.11,12.85,11,5.44,15.13,12.25,12.92,20.71-2,7.7-8.63,12.52-16.81,12.24A16.22,16.22,0,0,1,709.8,192c-1.4-8.42,3.08-15.18,12.82-19.08-2.8-1.64-5.8-2.85-8-4.88s-3.87-5-5.73-7.47c-1.72,2.26-3.37,5.22-5.76,7.34s-5.36,3.18-8.43,4.91c5.59,1.86,10.32,4.8,12.45,10.63a16.25,16.25,0,0,1,.25,10.83c-1.86,5.74-7.69,12-17.68,11a16.22,16.22,0,0,1-14-13.79c-1.12-8.61,3.21-14.78,13.23-18.63-3-1.75-6.3-3-8.68-5.27s-4-5.61-5.91-8.33c-4.31,9.47-10.87,13.7-19.41,12.29a17,17,0,0,1-13.59-13.85c-1.21-8.46,3.08-14.89,13.07-19.19-7-2.33-11.82-6.5-13.73-14.32-.7,1.28-1.15,1.95-1.46,2.69-3.13,7.4-10.48,11.93-17.46,10.74-8.25-1.41-13.87-7.25-14.43-15-.6-8.13,4.1-14.65,12.36-17.16.56-.17,1.11-.38,2.57-.89-10.39-3.15-16.21-9-14.91-19.65a16.34,16.34,0,0,1,13.49-13.84c7.77-1.38,13.61,2.11,19.58,11.93,2.3-5.94,6-10.32,12.65-12.64a20.17,20.17,0,0,1-12.54-13.08C634,68.19,627.7,71.62,619.34,69.16c-7.69-2.27-12.37-8.65-12.07-16.45.28-7.24,5.57-13.78,12.39-15.31,8.82-2,15.37,1.79,20.5,11.82,1.71-2.63,3.06-5.55,5.17-7.73s5.07-3.73,7.6-5.52c-9.38-5-12.95-11-11.6-19.49,1.08-6.68,6.94-12.43,13.86-13.59,7.95-1.33,14.39,2.64,19.44,12.21,2.61-6.6,6.88-11.21,14-12.72C676.86-4.63,673.56-10.22,676-19a16.31,16.31,0,0,1,16.14-11.9,16.19,16.19,0,0,1,15.74,12.38c2.24,8.63-1,14.06-12.81,20.89,6.58,1.37,10.79,5.45,13.86,11.91C711.61,8,715.66,4,722.55,2.12c-6-2.5-10.49-5.73-12.3-11.51a17.15,17.15,0,0,1,0-10.37A16.48,16.48,0,0,1,726.91-31a16.74,16.74,0,0,1,15.21,11.93c2.34,8.31-1.1,14.62-11.92,21.32a19,19,0,0,1,12.87,11.93c3.4-6.49,7.74-10.91,15.91-11.85-5.27-1.49-9.33-3.16-12-6.9s-4.43-7.83-3.34-12.56c2-8.93,8.9-14.23,17.64-13.74a16.33,16.33,0,0,1,14.9,13.41c1.47,9.16-3.13,15.68-14.42,19.69,8.16,1.44,13,6.12,15.49,13.78,4.2-9.48,10.62-13.94,18.21-13.12a17,17,0,0,1,15,14.06c1.44,7.78-2.83,14.38-12.39,19.11,18.09,7.22,16.8,28,.18,34.45,6.86,2.23,11.19,6.75,12.93,13.76,7.24-11.91,13-15.17,21.88-12.4a16.35,16.35,0,0,1-1.25,31.54c-8.91,1.77-15.08-2-20.2-12.36-1.55,2.65-2.71,5.58-4.7,7.78s-4.91,3.86-7.69,6c8.22,3.77,12.72,9.88,11.55,19.21-.88,6.93-5.51,11.56-14.68,14.57,4.32,1.15,8,2.81,10.62,6.13a16.22,16.22,0,0,1,3.76,11.59,16.79,16.79,0,0,1-14.32,15.26C788.05,172.64,781.59,168.24,777.15,158.19Z"/><path class="c" d="M828.27,37.22a16.06,16.06,0,0,1,16.22,16.05A16.54,16.54,0,0,1,828,69.73c-8.6-.12-16.81-7.86-16.44-16.26C812,43.29,820,36.8,828.27,37.22Z"/><path class="c" d="M828.19,137.35a16.08,16.08,0,1,1,.14-32.14,16.07,16.07,0,1,1-.14,32.14Z"/><path class="c" d="M674-14.61A16.28,16.28,0,0,1,657.83,1.58a16.17,16.17,0,0,1-16-16.32,16.2,16.2,0,0,1,15.89-16A16.3,16.3,0,0,1,674-14.61Z"/><path class="c" d="M623.68,35.42a15.91,15.91,0,1,1,.23-31.81,15.8,15.8,0,0,1,15.85,15.78A15.79,15.79,0,0,1,623.68,35.42Z"/><path class="c" d="M639.63,155.06a15.69,15.69,0,0,1-15.79,15.84,15.91,15.91,0,0,1-16.2-15.53,16.27,16.27,0,0,1,16.13-16.24A16,16,0,0,1,639.63,155.06Z"/><path class="c" d="M809.89-14.63A16.19,16.19,0,0,1,794.15,1.5C785.44,1.68,778-5.86,778-14.73a16.22,16.22,0,0,1,16-15.89A16.21,16.21,0,0,1,809.89-14.63Z"/><path class="c" d="M642,189.32c-.06-8.91,6.82-15.61,15.76-15.9a15.84,15.84,0,0,1,16.09,15.68c.22,8.58-7.22,16-15.88,16A15.89,15.89,0,0,1,642,189.32Z"/><path class="c" d="M828.07,35.33a15.83,15.83,0,1,1,16-15.73A15.88,15.88,0,0,1,828.07,35.33Z"/><path class="c" d="M794,173.57a15.68,15.68,0,0,1,15.82,15.77,16.14,16.14,0,0,1-15.61,15.71c-8.49.19-16-7.18-16.07-15.74A15.67,15.67,0,0,1,794,173.57Z"/><path class="c" d="M827.79,170.73a15.55,15.55,0,0,1-15.39-15.64c0-7.8,5.73-15.81,15.89-15.7,10.41.12,15.76,8.35,15.62,16A15.55,15.55,0,0,1,827.79,170.73Z"/><path class="c" d="M605.53,87.54a15.8,15.8,0,0,1-31.59-.21,15.8,15.8,0,0,1,31.59.21Z"/><path class="c" d="M589.59,38a15.5,15.5,0,0,1,15.78,15.25,15.64,15.64,0,0,1-31.28.29A15.51,15.51,0,0,1,589.59,38Z"/><path class="c" d="M877.53,87.23a15.07,15.07,0,0,1-15,15.47,15.45,15.45,0,0,1-16-15.08A15.82,15.82,0,0,1,862.15,72,15.55,15.55,0,0,1,877.53,87.23Z"/><path class="c" d="M741.48,223.26a15.43,15.43,0,1,1-15.32-15.74A15.6,15.6,0,0,1,741.48,223.26Z"/><path class="c" d="M574.15,121.41c.28-8.23,5.88-15.57,15.58-15.58s15.58,7.27,15.52,15.56c0,8.08-5.75,15.13-15.26,15.35C581,136.94,574.61,130.3,574.15,121.41Z"/><path class="c" d="M623.77.78a15.27,15.27,0,0,1-15.49-15.52,15.31,15.31,0,0,1,15.36-15.19,15.57,15.57,0,0,1,15.62,15.54A15.53,15.53,0,0,1,623.77.78Z"/><path class="c" d="M828-29.86a15.45,15.45,0,0,1,15.52,15A15.41,15.41,0,0,1,828.57.71,15.42,15.42,0,0,1,812.8-14.52,15.44,15.44,0,0,1,828-29.86Z"/><path class="c" d="M877.41,53.37a15.39,15.39,0,0,1-15.19,15.39,15.76,15.76,0,0,1-15.57-15.63,15.3,15.3,0,0,1,15.57-15A15,15,0,0,1,877.41,53.37Z"/><path class="c" d="M623.47,204.34a15,15,0,0,1-15-15.26,15.41,15.41,0,0,1,15.24-15.27c8.37,0,15.67,7.43,15.42,15.72A15.24,15.24,0,0,1,623.47,204.34Z"/><path class="c" d="M759.83,238.21a15.16,15.16,0,1,1,.33-30.32,15.16,15.16,0,1,1-.33,30.32Z"/><path class="c" d="M862,106.13a15.17,15.17,0,1,1,.2,30.33,15.17,15.17,0,1,1-.2-30.33Z"/><path class="c" d="M691.72,207.8A15.26,15.26,0,1,1,676.52,223,15.13,15.13,0,0,1,691.72,207.8Z"/><path class="c" d="M604.92,19.71a15.18,15.18,0,0,1-30.36-.62,15.19,15.19,0,0,1,30.36.62Z"/><path class="c" d="M828,204.27a15.1,15.1,0,1,1,15.38-15.08A15.27,15.27,0,0,1,828,204.27Z"/><path class="c" d="M604.79,155.24A15.06,15.06,0,1,1,589.63,140,14.92,14.92,0,0,1,604.79,155.24Z"/><path class="c" d="M862.09,34.4a14.76,14.76,0,0,1-15-14.79,14.81,14.81,0,0,1,15.27-15,15.06,15.06,0,0,1,14.83,15.05A15,15,0,0,1,862.09,34.4Z"/><path class="c" d="M657.73,237.92a14.89,14.89,0,0,1,.1-29.78,14.89,14.89,0,1,1-.1,29.78Z"/><path class="c" d="M861.77,169.84a14.47,14.47,0,0,1-14.52-15.19,15,15,0,0,1,15-14.49c8.12.08,15.14,7.13,14.9,15.17C876.84,164.24,869.29,170.43,861.77,169.84Z"/><path class="c" d="M793.85,237.87a14.85,14.85,0,1,1,15-14.72A14.83,14.83,0,0,1,793.85,237.87Z"/><path class="c" d="M570.15,87.25a14.62,14.62,0,1,1-29.23.35,14.62,14.62,0,0,1,29.23-.35Z"/><path class="c" d="M589.13,203.62a14.53,14.53,0,0,1-14.06-14.68,14.81,14.81,0,0,1,15-14.31c8,.2,14.64,7.19,14.3,15A14.54,14.54,0,0,1,589.13,203.62Z"/><path class="c" d="M570.07,53.38A14.53,14.53,0,1,1,541,53.13a14.53,14.53,0,0,1,29.06.25Z"/><path class="c" d="M638.31,223a15,15,0,0,1-14.65,14.71,14.64,14.64,0,0,1-.15-29.27C631.29,208.22,638.26,215.08,638.31,223Z"/><path class="c" d="M570,121.16a14.5,14.5,0,1,1-14.37-14.52A14.76,14.76,0,0,1,570,121.16Z"/><path class="c" d="M726,271.47a14.37,14.37,0,1,1,14.49-14.17A14.31,14.31,0,0,1,726,271.47Z"/><path class="c" d="M896.36,101.67a14,14,0,0,1-14.42-14.09A14.43,14.43,0,0,1,896.51,73,14.8,14.8,0,0,1,910.84,87.5,14.28,14.28,0,0,1,896.36,101.67Z"/><path class="c" d="M882,53.36a14,14,0,0,1,14.33-14.22,14.28,14.28,0,0,1,14.46,14.23A14.76,14.76,0,0,1,896.3,67.79,14.38,14.38,0,0,1,882,53.36Z"/><path class="c" d="M862,203.4a14.26,14.26,0,0,1-14.36-14.32,14.81,14.81,0,0,1,14.59-14.32,14.41,14.41,0,0,1,14.21,14.55A14,14,0,0,1,862,203.4Z"/><path class="c" d="M774.28,257.33a14.22,14.22,0,0,1-14.49,14.09,14.32,14.32,0,1,1,.43-28.63A14.27,14.27,0,0,1,774.28,257.33Z"/><path class="c" d="M691.75,271.45a14.34,14.34,0,1,1,14.44-14.23A14.27,14.27,0,0,1,691.75,271.45Z"/><path class="c" d="M842.57,223.2a14.41,14.41,0,1,1-14.25-14.39A14.31,14.31,0,0,1,842.57,223.2Z"/><path class="c" d="M555.57,33.63a14.24,14.24,0,0,1-14.41-14.2,14.37,14.37,0,1,1,14.41,14.2Z"/><path class="c" d="M569.87,155a14.33,14.33,0,0,1-28.66.45,14.33,14.33,0,0,1,28.66-.45Z"/><path class="c" d="M896.42,135.46a14.17,14.17,0,1,1-.19-28.34,14.17,14.17,0,1,1,.19,28.34Z"/><path class="c" d="M896.52,33.45A13.94,13.94,0,1,1,910.35,19.3,13.82,13.82,0,0,1,896.52,33.45Z"/><path class="c" d="M808,257.07A14,14,0,1,1,793.91,243,14.18,14.18,0,0,1,808,257.07Z"/><path class="c" d="M672,257.33c-.12,7.52-6.76,14.25-14.22,13.89-9.06-.43-14.18-7.26-14-14.56s5.69-13.6,14.39-13.64C665.86,243,672.16,249.82,672,257.33Z"/><path class="c" d="M896.19,169a14,14,0,0,1-14-14,14.39,14.39,0,0,1,14.23-13.92,14.08,14.08,0,0,1,13.89,14.15A13.68,13.68,0,0,1,896.19,169Z"/><path class="c" d="M589.76,209.18a13.85,13.85,0,1,1-13.92,13.6A14,14,0,0,1,589.76,209.18Z"/><path class="c" d="M875.81,223a13.7,13.7,0,1,1-13.73-13.74A13.85,13.85,0,0,1,875.81,223Z"/><path class="c" d="M541.9,189.09a13.65,13.65,0,1,1,13.66,13.79A13.59,13.59,0,0,1,541.9,189.09Z"/><path class="c" d="M623.74,270.57a13.46,13.46,0,1,1-.08-26.92,13.46,13.46,0,1,1,.08,26.92Z"/><path class="c" d="M535.24,87.39a13.51,13.51,0,0,1-13.39,13.49A13.33,13.33,0,0,1,508,87.44a13.62,13.62,0,0,1,13.31-13.61A13.77,13.77,0,0,1,535.24,87.39Z"/><path class="c" d="M521.7,40a13.53,13.53,0,0,1,13.53,13.38,13.81,13.81,0,0,1-13.51,13.54,13.61,13.61,0,0,1-13.65-13.78A13.22,13.22,0,0,1,521.7,40Z"/><path class="c" d="M896.35,202.49a13.07,13.07,0,0,1-13.47-13.16,13.58,13.58,0,0,1,13.64-13.67,13.86,13.86,0,0,1,13.38,13.6A13.41,13.41,0,0,1,896.35,202.49Z"/><path class="c" d="M508.15,121a13.42,13.42,0,0,1,13.63-13.17,13.5,13.5,0,0,1-.14,27A13.52,13.52,0,0,1,508.15,121Z"/><path class="c" d="M841.63,257.16a13.47,13.47,0,1,1-13.3-13.46A13.36,13.36,0,0,1,841.63,257.16Z"/><path class="c" d="M930.34,100.66a13.27,13.27,0,0,1-13.5-13.29,13.43,13.43,0,0,1,26.86-.13A13.27,13.27,0,0,1,930.34,100.66Z"/><path class="c" d="M726.11,304.18a13.29,13.29,0,0,1-13.5-13.3,13.43,13.43,0,0,1,26.86-.13A13.27,13.27,0,0,1,726.11,304.18Z"/><path class="c" d="M930.32,40.16a13.46,13.46,0,0,1,13.33,13,13.38,13.38,0,0,1-26.76.38A13.42,13.42,0,0,1,930.32,40.16Z"/><path class="c" d="M691.62,304.13a13.23,13.23,0,1,1,.47-26.45c7.19-.08,13,6.08,13,13.27A13.05,13.05,0,0,1,691.62,304.13Z"/><path class="c" d="M521.49,32.61a12.92,12.92,0,0,1-13.15-12.94A12.94,12.94,0,0,1,521.66,6.42a13.1,13.1,0,1,1-.17,26.19Z"/><path class="c" d="M930.24,134.31A13.07,13.07,0,0,1,917,121.37a13.26,13.26,0,0,1,13.57-13.19c7.22.35,13.15,6.12,13.05,13.24A13.18,13.18,0,0,1,930.24,134.31Z"/><path class="c" d="M759.86,277.82A13.15,13.15,0,1,1,746.81,291,13.12,13.12,0,0,1,759.86,277.82Z"/><path class="c" d="M534.71,155a13.17,13.17,0,0,1-26.33.16A13.29,13.29,0,0,1,521.49,142,13.09,13.09,0,0,1,534.71,155Z"/><path class="c" d="M658,278.08a13,13,0,0,1,13.06,13.1,13.38,13.38,0,0,1-13,12.85,13.06,13.06,0,0,1-13.18-13A12.76,12.76,0,0,1,658,278.08Z"/><path class="c" d="M555.35,236a13,13,0,1,1,13.33-12.88A13,13,0,0,1,555.35,236Z"/><path class="c" d="M930.27,32.46A13.08,13.08,0,0,1,917.13,19.4a13.13,13.13,0,0,1,26.26,0A13.07,13.07,0,0,1,930.27,32.46Z"/><path class="c" d="M602.72,257a13,13,0,1,1-12.85-12.86A13.06,13.06,0,0,1,602.72,257Z"/><path class="c" d="M794.28,278.18a12.72,12.72,0,0,1,12.64,12.87,13,13,0,1,1-25.93-.16A12.74,12.74,0,0,1,794.28,278.18Z"/><path class="c" d="M930.34,167.88a12.61,12.61,0,0,1-13-12.59,12.91,12.91,0,1,1,25.81-.14A12.59,12.59,0,0,1,930.34,167.88Z"/><path class="c" d="M909.12,223.25a12.84,12.84,0,0,1-13,12.63,12.85,12.85,0,1,1,.43-25.7A12.86,12.86,0,0,1,909.12,223.25Z"/><path class="c" d="M861.93,244.46a12.67,12.67,0,1,1,.37,25.33,12.67,12.67,0,1,1-.37-25.33Z"/><path class="c" d="M534.31,189.33a12.71,12.71,0,0,1-13,12.52,12.67,12.67,0,0,1,.3-25.34A12.73,12.73,0,0,1,534.31,189.33Z"/><path class="c" d="M623.59,303.41A12.32,12.32,0,0,1,611.13,291a12.64,12.64,0,0,1,12.45-12.62,12.9,12.9,0,0,1,12.81,12.84A12.56,12.56,0,0,1,623.59,303.41Z"/><path class="c" d="M930.41,201.5a12.22,12.22,0,0,1-12.63-12.18,12.49,12.49,0,1,1,25-.28A12.22,12.22,0,0,1,930.41,201.5Z"/><path class="c" d="M828.21,303.26A12.23,12.23,0,0,1,815.66,291a12.5,12.5,0,1,1,25-.1A12.23,12.23,0,0,1,828.21,303.26Z"/><path class="c" d="M487.8,99.7A12.33,12.33,0,1,1,500,87.13,12.15,12.15,0,0,1,487.8,99.7Z"/><path class="c" d="M475.29,53.51A12.34,12.34,0,0,1,500,53.23c.07,6.38-4.5,12.26-12.45,12.54C480.92,66,475.36,60.17,475.29,53.51Z"/><path class="c" d="M500,121.36a12.34,12.34,0,1,1-12-12.27A12.08,12.08,0,0,1,500,121.36Z"/><path class="c" d="M555.74,269.41a12.65,12.65,0,0,1-12.55-12c-.22-6.63,5.68-12.65,12.38-12.63a12.3,12.3,0,0,1,.17,24.6Z"/><path class="c" d="M726.08,337.11a12.22,12.22,0,0,1-12.32-12.05,12.29,12.29,0,0,1,24.57-.07A12.23,12.23,0,0,1,726.08,337.11Z"/><path class="c" d="M976.6,87.44a12.14,12.14,0,1,1-24.28,0,12.14,12.14,0,0,1,24.28,0Z"/><path class="c" d="M703.94,325.23a12.09,12.09,0,0,1-24.18-.18,12.09,12.09,0,1,1,24.18.18Z"/><path class="c" d="M964.14,65.33a11.83,11.83,0,0,1-11.77-12.44,12.09,12.09,0,0,1,24.18.66A11.81,11.81,0,0,1,964.14,65.33Z"/><path class="c" d="M533.68,222.93A11.87,11.87,0,0,1,521.56,235a12,12,0,1,1-.22-24A11.93,11.93,0,0,1,533.68,222.93Z"/><path class="c" d="M499.72,19.38A12.1,12.1,0,1,1,487.36,7.51,11.92,11.92,0,0,1,499.72,19.38Z"/><path class="c" d="M759.68,336.92a11.69,11.69,0,0,1-11.71-12,12.17,12.17,0,0,1,12.37-12,12.43,12.43,0,0,1,11.83,12.17A12,12,0,0,1,759.68,336.92Z"/><path class="c" d="M487.46,167a11.76,11.76,0,0,1-11.88-11.83,12.05,12.05,0,1,1,24.1.32A11.79,11.79,0,0,1,487.46,167Z"/><path class="c" d="M976.52,121.43a12.05,12.05,0,1,1-12.13-12.16A12,12,0,0,1,976.52,121.43Z"/><path class="c" d="M908.33,257a12.21,12.21,0,0,1-12.15,12.28,12.14,12.14,0,1,1,.23-24.28A12.12,12.12,0,0,1,908.33,257Z"/><path class="c" d="M590,279.12a11.76,11.76,0,0,1,11.78,12,12,12,0,1,1-24-.45A11.83,11.83,0,0,1,590,279.12Z"/><path class="c" d="M964.6,31.41a12.09,12.09,0,0,1-12.09-11.77,12,12,0,0,1,23.93-.26A12.09,12.09,0,0,1,964.6,31.41Z"/><path class="c" d="M658.06,336.8a11.65,11.65,0,0,1-12-11.6c-.07-6.54,5.2-12.23,11.68-12.08,6.84.16,11.79,4.87,12.11,11.75C670.12,331.31,664.64,336.73,658.06,336.8Z"/><path class="c" d="M850.26,291.06A11.69,11.69,0,0,1,862,279.18a11.88,11.88,0,0,1,12.06,11.7A12.36,12.36,0,0,1,862.2,303,12.09,12.09,0,0,1,850.26,291.06Z"/><path class="c" d="M964.5,166.86a11.92,11.92,0,0,1-12-11.83A11.94,11.94,0,0,1,976.4,155,11.92,11.92,0,0,1,964.5,166.86Z"/><path class="c" d="M793.86,336.77a11.93,11.93,0,0,1-11.84-12,11.93,11.93,0,0,1,23.86.19A11.9,11.9,0,0,1,793.86,336.77Z"/><path class="c" d="M942.13,223.05a11.86,11.86,0,1,1-11.85-11.92A11.91,11.91,0,0,1,942.13,223.05Z"/><path class="c" d="M487.87,200.68a11.63,11.63,0,0,1-12-11.15,11.72,11.72,0,1,1,23.44-.48A11.61,11.61,0,0,1,487.87,200.68Z"/><path class="c" d="M612.24,325.1a11.13,11.13,0,0,1,11.54-11.4,11.47,11.47,0,0,1,11.52,11.56,11.88,11.88,0,0,1-11.44,11.35A11.59,11.59,0,0,1,612.24,325.1Z"/><path class="c" d="M828.21,313.75A11.46,11.46,0,0,1,839.64,325a11.85,11.85,0,0,1-11.29,11.55c-6.16.16-11.77-5.45-11.67-11.66A11.45,11.45,0,0,1,828.21,313.75Z"/><path class="c" d="M532.87,257.82a11.32,11.32,0,1,1-22.58-1.64,11.55,11.55,0,0,1,12.11-10.4A11.43,11.43,0,0,1,532.87,257.82Z"/><path class="c" d="M555.58,302.2A11.28,11.28,0,1,1,567,291,11.45,11.45,0,0,1,555.58,302.2Z"/><path class="c" d="M975.83,189.42a11.37,11.37,0,0,1-22.73-.22,11.33,11.33,0,0,1,11.71-11.42C971,177.78,975.94,183.25,975.83,189.42Z"/><path class="c" d="M453.27,98.65a11.44,11.44,0,0,1-11.19-11.37,11.36,11.36,0,0,1,22.72.33A11.48,11.48,0,0,1,453.27,98.65Z"/><path class="c" d="M453.59,64.41a11.15,11.15,0,0,1-11.44-11,11.28,11.28,0,0,1,22.56-.32A11.13,11.13,0,0,1,453.59,64.41Z"/><path class="c" d="M930.06,245.9c6.11.45,10.86,4,11.36,10.78.45,6-4.84,11.74-10.94,11.61-5.77-.12-10.84-3.68-11.36-10.72C918.67,251.56,923.94,246.07,930.06,245.9Z"/><path class="c" d="M896.22,280a10.88,10.88,0,0,1,11.19,11.15,11.17,11.17,0,0,1-11,11,11.46,11.46,0,0,1-11.3-11.3A11.08,11.08,0,0,1,896.22,280Z"/><path class="c" d="M498.68,223.26A11.06,11.06,0,1,1,488,212,10.94,10.94,0,0,1,498.68,223.26Z"/><path class="c" d="M453.32,132.3a11,11,0,1,1,11.32-11.14A11.18,11.18,0,0,1,453.32,132.3Z"/><path class="c" d="M589.51,335.87a10.8,10.8,0,0,1-10.8-11.08,11,11,0,1,1,22,.46A10.81,10.81,0,0,1,589.51,335.87Z"/><path class="c" d="M998.65,64.16a10.87,10.87,0,0,1-11.23-10.7,11.35,11.35,0,0,1,11-11.13A11.09,11.09,0,0,1,1009.32,53,10.68,10.68,0,0,1,998.65,64.16Z"/><path class="c" d="M1009.31,87.32a11.06,11.06,0,0,1-10.89,11.15,11.34,11.34,0,0,1-11-11.14,10.93,10.93,0,0,1,10.75-10.72A10.71,10.71,0,0,1,1009.31,87.32Z"/><path class="c" d="M1009.27,121.48a10.9,10.9,0,0,1-11.16,10.68,10.9,10.9,0,0,1,.41-21.8A11,11,0,0,1,1009.27,121.48Z"/><path class="c" d="M464.31,19.82a10.9,10.9,0,1,1-10.7-11.25A10.92,10.92,0,0,1,464.31,19.82Z"/><path class="c" d="M691.68,369.66a10.77,10.77,0,1,1,11.18-10.73A10.87,10.87,0,0,1,691.68,369.66Z"/><path class="c" d="M760.07,348.19a10.69,10.69,0,1,1-10.91,10.86A10.64,10.64,0,0,1,760.07,348.19Z"/><path class="c" d="M861.9,335.81a10.7,10.7,0,0,1-10.62-10.74,11,11,0,0,1,11-10.95A11.11,11.11,0,0,1,873,325,10.86,10.86,0,0,1,861.9,335.81Z"/><path class="c" d="M975.44,223.09a11,11,0,1,1-11-11A11.22,11.22,0,0,1,975.44,223.09Z"/><path class="c" d="M726.2,348.11a10.78,10.78,0,1,1-11.05,10.73A10.62,10.62,0,0,1,726.2,348.11Z"/><path class="c" d="M464.24,155.18a10.82,10.82,0,0,1-21.63-.13,10.82,10.82,0,1,1,21.63.13Z"/><path class="c" d="M987.79,19.54A10.88,10.88,0,0,1,998.41,8.75a11.17,11.17,0,0,1,10.78,10.74c0,5.64-5.09,11-10.73,10.73C991.83,29.92,987.83,25.2,987.79,19.54Z"/><path class="c" d="M794.14,369.39a10.53,10.53,0,1,1,10.41-10.81A10.49,10.49,0,0,1,794.14,369.39Z"/><path class="c" d="M668.52,358.64a10.49,10.49,0,0,1-10.41,10.78,10.56,10.56,0,1,1-.47-21.12A10.54,10.54,0,0,1,668.52,358.64Z"/><path class="c" d="M987.9,155.33a10.18,10.18,0,0,1,10.46-10.63,10.51,10.51,0,0,1,10.76,10.47,10.94,10.94,0,0,1-10.36,10.57A10.58,10.58,0,0,1,987.9,155.33Z"/><path class="c" d="M453.36,199.52a10.42,10.42,0,0,1-10.46-10.29,10.53,10.53,0,1,1,21.05.14A10.4,10.4,0,0,1,453.36,199.52Z"/><path class="c" d="M521.55,301.28A10.2,10.2,0,0,1,511.18,291a10.59,10.59,0,0,1,10.2-10.62c5.61-.16,10.85,5,10.75,10.7A10.43,10.43,0,0,1,521.55,301.28Z"/><path class="c" d="M498,257a10.34,10.34,0,1,1-10.42-10.35A10.46,10.46,0,0,1,498,257Z"/><path class="c" d="M555.5,314.75a10.28,10.28,0,1,1-10.38,10.43A10.48,10.48,0,0,1,555.5,314.75Z"/><path class="c" d="M613.38,358.65a10.3,10.3,0,1,1,10.2,10.59A10.49,10.49,0,0,1,613.38,358.65Z"/><path class="c" d="M828.23,369.21a10.34,10.34,0,1,1,10.26-10.52A10.66,10.66,0,0,1,828.23,369.21Z"/><path class="c" d="M1008.63,189.21a10.18,10.18,0,0,1-10.45,10.22,10.35,10.35,0,0,1-10-10.21,10.11,10.11,0,0,1,10.51-10.11A9.93,9.93,0,0,1,1008.63,189.21Z"/><path class="c" d="M930.26,280.87a10.23,10.23,0,0,1,10.33,9.87,10.33,10.33,0,1,1-20.65,0A10.24,10.24,0,0,1,930.26,280.87Z"/><path class="c" d="M896.12,335a10.09,10.09,0,0,1-10-10.12,10.49,10.49,0,0,1,10.37-9.95,10.2,10.2,0,0,1,9.87,10.32A9.7,9.7,0,0,1,896.12,335Z"/><path class="c" d="M974.56,257.11A10.09,10.09,0,1,1,964.47,247,10.17,10.17,0,0,1,974.56,257.11Z"/><path class="c" d="M429.39,87.51a10.19,10.19,0,0,1-10.11,10,10.36,10.36,0,0,1-9.83-10.36,10,10,0,0,1,10-9.56A9.75,9.75,0,0,1,429.39,87.51Z"/><path class="c" d="M463.33,223.64a9.92,9.92,0,1,1-9.4-10.58A9.95,9.95,0,0,1,463.33,223.64Z"/><path class="c" d="M419.46,63.16a9.77,9.77,0,0,1-9.86-9.58,9.87,9.87,0,1,1,19.73,0A9.75,9.75,0,0,1,419.46,63.16Z"/><path class="c" d="M419.59,131.15a9.88,9.88,0,0,1-.46-19.75,9.88,9.88,0,1,1,.46,19.75Z"/><path class="c" d="M589.87,368.52a9.65,9.65,0,1,1,9.78-9.65A9.8,9.8,0,0,1,589.87,368.52Z"/><path class="c" d="M871.73,358.91a9.47,9.47,0,0,1-9.78,9.54,9.59,9.59,0,1,1,.08-19.17A9.52,9.52,0,0,1,871.73,358.91Z"/><path class="c" d="M1032.55,96.92a9.34,9.34,0,0,1-9.8-9.45,9.64,9.64,0,0,1,19.27-.34A9.36,9.36,0,0,1,1032.55,96.92Z"/><path class="c" d="M419.5,29.25a9.72,9.72,0,0,1-.27-19.44,10.08,10.08,0,0,1,10,9.58A10.11,10.11,0,0,1,419.5,29.25Z"/><path class="c" d="M998.23,213.32a9.73,9.73,0,1,1,.18,19.46,9.73,9.73,0,0,1-.18-19.46Z"/><path class="c" d="M726.1,402.2a9.37,9.37,0,0,1-9.7-9.56,9.64,9.64,0,0,1,19.28-.1A9.35,9.35,0,0,1,726.1,402.2Z"/><path class="c" d="M419.45,145.7a9.5,9.5,0,0,1,9.69,9.65,10,10,0,0,1-9.63,9.42,9.59,9.59,0,0,1-9.55-9.84A9.19,9.19,0,0,1,419.45,145.7Z"/><path class="c" d="M1042,53.2a9.59,9.59,0,1,1-19.18.34A9.59,9.59,0,0,1,1042,53.2Z"/><path class="c" d="M691.91,402.13A9.33,9.33,0,0,1,682.3,393a9.55,9.55,0,1,1,19.09-.12A9.3,9.3,0,0,1,691.91,402.13Z"/><path class="c" d="M1032.42,130.65a9.37,9.37,0,1,1,9.52-9.29A9.41,9.41,0,0,1,1032.42,130.65Z"/><path class="c" d="M769.47,392.58a9.23,9.23,0,0,1-9.22,9.51,9.5,9.5,0,0,1-9.83-9.5,9.92,9.92,0,0,1,9.57-9.47A9.71,9.71,0,0,1,769.47,392.58Z"/><path class="c" d="M487.6,300.33a9.26,9.26,0,0,1-9.45-9.29,9.47,9.47,0,1,1,18.94,0A9.25,9.25,0,0,1,487.6,300.33Z"/><path class="c" d="M521.73,334.56a9.67,9.67,0,0,1-9.55-9.37,9.3,9.3,0,0,1,9.25-9.52,9.53,9.53,0,0,1,9.64,9.23A9.79,9.79,0,0,1,521.73,334.56Z"/><path class="c" d="M1032.47,28.69a9.18,9.18,0,1,1,9.37-9.38A9.25,9.25,0,0,1,1032.47,28.69Z"/><path class="c" d="M657.94,383.45a9.29,9.29,0,1,1-9.36,9.36A9.17,9.17,0,0,1,657.94,383.45Z"/><path class="c" d="M939.63,325a9.36,9.36,0,0,1-18.71,0,9.36,9.36,0,0,1,18.71,0Z"/><path class="c" d="M1032.47,164.26A9.26,9.26,0,0,1,1023,155a9.36,9.36,0,0,1,18.72.3A9.26,9.26,0,0,1,1032.47,164.26Z"/><path class="c" d="M973.69,290.89a9.23,9.23,0,1,1-18.46.18,9.23,9.23,0,0,1,18.46-.18Z"/><path class="c" d="M793.91,383.59a9,9,0,0,1,9.27,8.86,9.22,9.22,0,1,1-18.44.11A9,9,0,0,1,793.91,383.59Z"/><path class="c" d="M419.46,180.17a8.88,8.88,0,0,1,9.16,8.94,9.22,9.22,0,0,1-8.94,9.31,9.54,9.54,0,0,1-9.51-9.33A9.13,9.13,0,0,1,419.46,180.17Z"/><path class="c" d="M453.2,266.41a9.54,9.54,0,0,1-9-9.41c.07-5.09,4.76-9.5,9.71-9.15a9.29,9.29,0,0,1-.7,18.56Z"/><path class="c" d="M614.59,392.14a9.06,9.06,0,0,1,9.81-8.33,8.86,8.86,0,0,1,8.25,9.75,9.15,9.15,0,0,1-9.43,8.26C618.3,401.48,614.21,396.89,614.59,392.14Z"/><path class="c" d="M555.41,368a9.06,9.06,0,1,1,.51-18.11,8.94,8.94,0,0,1,8.7,9A9,9,0,0,1,555.41,368Z"/><path class="c" d="M999,248.34a8.8,8.8,0,1,1-1,17.57,8.8,8.8,0,1,1,1-17.57Z"/><path class="c" d="M896.49,367.67a8.8,8.8,0,1,1-.12-17.58,8.79,8.79,0,1,1,.12,17.58Z"/><path class="c" d="M1041.19,189.22a8.81,8.81,0,1,1-8.78-8.87A8.72,8.72,0,0,1,1041.19,189.22Z"/><path class="c" d="M828.28,383.87a8.81,8.81,0,0,1,8.69,9,8.81,8.81,0,1,1-8.69-9Z"/><path class="c" d="M393.76,87.26a8.27,8.27,0,0,1-8.33,8.59,8.54,8.54,0,0,1-8.78-8.27,9,9,0,0,1,8.46-8.77A8.66,8.66,0,0,1,393.76,87.26Z"/><path class="c" d="M419.51,231.61a8.55,8.55,0,0,1-.31-17.1,8.56,8.56,0,1,1,.31,17.1Z"/><path class="c" d="M589.67,384.2a8.59,8.59,0,0,1,8.48,8.57,8.41,8.41,0,0,1-16.82.15A8.59,8.59,0,0,1,589.67,384.2Z"/><path class="c" d="M487.47,333.57a8.61,8.61,0,0,1-8.24-8.8,8.4,8.4,0,0,1,16.8.31A8.62,8.62,0,0,1,487.47,333.57Z"/><path class="c" d="M385.12,61.88a8.74,8.74,0,0,1-8.32-8.8,8.46,8.46,0,0,1,16.91.33A8.6,8.6,0,0,1,385.12,61.88Z"/><path class="c" d="M461.89,290.79a8.46,8.46,0,0,1-16.92.36,8.46,8.46,0,0,1,16.92-.36Z"/><path class="c" d="M862.24,384.46a8.22,8.22,0,0,1,8.25,8.15,8.41,8.41,0,0,1-8.49,8.44,8.3,8.3,0,1,1,.24-16.59Z"/><path class="c" d="M1032.38,231.24a8.21,8.21,0,1,1,8.45-8A8.34,8.34,0,0,1,1032.38,231.24Z"/><path class="c" d="M385.51,113.06a8.21,8.21,0,1,1-.45,16.41,8.21,8.21,0,1,1,.45-16.41Z"/><path class="c" d="M529.82,358.77a8.51,8.51,0,0,1-8,8.49,8.38,8.38,0,1,1-.22-16.75A8.49,8.49,0,0,1,529.82,358.77Z"/><path class="c" d="M1074.75,87.39a8.18,8.18,0,1,1-16.35-.11,8.18,8.18,0,0,1,16.35.11Z"/><path class="c" d="M964.54,316.73A8.37,8.37,0,0,1,972.7,325a8.24,8.24,0,1,1-16.47-.14A8.37,8.37,0,0,1,964.54,316.73Z"/><path class="c" d="M393.56,19.66a8.34,8.34,0,0,1-8.42,8,8,8,0,0,1-8-8.26,8,8,0,0,1,8.28-8A8.38,8.38,0,0,1,393.56,19.66Z"/><path class="c" d="M1074.71,53.58a8.14,8.14,0,0,1-16.27-.46,8.14,8.14,0,1,1,16.27.46Z"/><path class="c" d="M691.93,418.61A8.4,8.4,0,0,1,700,427.1a8.14,8.14,0,0,1-16.26-.64A8.42,8.42,0,0,1,691.93,418.61Z"/><path class="c" d="M385.07,146.88a8.54,8.54,0,0,1,8.5,8.12,8.08,8.08,0,0,1-7.82,8.12c-4.86.2-8.43-3-8.6-7.68A8.2,8.2,0,0,1,385.07,146.88Z"/><path class="c" d="M726,434.81a8,8,0,0,1-8.11-8.23,8.19,8.19,0,0,1,16.37.15A8,8,0,0,1,726,434.81Z"/><path class="c" d="M768.19,427a8.12,8.12,0,0,1-8.64,7.74,7.76,7.76,0,0,1-7.59-8.17,8.26,8.26,0,0,1,8-7.95A8.49,8.49,0,0,1,768.19,427Z"/><path class="c" d="M1006.46,291.2a8.24,8.24,0,0,1-8,7.94,8.49,8.49,0,0,1-8.19-8.39,8.16,8.16,0,0,1,8.65-7.75A7.78,7.78,0,0,1,1006.46,291.2Z"/><path class="c" d="M1066.73,11.54a8.3,8.3,0,0,1,7.86,8.13,8,8,0,0,1-16-.3A8.33,8.33,0,0,1,1066.73,11.54Z"/><path class="c" d="M1066.66,129.36a8.09,8.09,0,1,1,8.06-7.92A8.25,8.25,0,0,1,1066.66,129.36Z"/><path class="c" d="M930.49,350.92a8,8,0,1,1-8.28,8A7.87,7.87,0,0,1,930.49,350.92Z"/><path class="c" d="M665.77,427a7.9,7.9,0,1,1-7.67-8.09A7.81,7.81,0,0,1,665.77,427Z"/><path class="c" d="M555.74,400.41a7.57,7.57,0,0,1-8-7.64,7.78,7.78,0,0,1,15.55-.39A7.59,7.59,0,0,1,555.74,400.41Z"/><path class="c" d="M427.39,257.05a7.9,7.9,0,1,1-8-7.69A7.63,7.63,0,0,1,427.39,257.05Z"/><path class="c" d="M1024.72,257a7.66,7.66,0,1,1,7.55,7.71A7.69,7.69,0,0,1,1024.72,257Z"/><path class="c" d="M1066.64,162.94a8.07,8.07,0,0,1-8-7.87,7.92,7.92,0,0,1,15.82-.11A8.06,8.06,0,0,1,1066.64,162.94Z"/><path class="c" d="M801.87,426.93a7.9,7.9,0,1,1-15.8-.48,7.91,7.91,0,0,1,15.8.48Z"/><path class="c" d="M393,189.11a7.46,7.46,0,0,1-7.53,7.66,7.71,7.71,0,0,1-8-7.29,8.15,8.15,0,0,1,7.88-8.07A7.8,7.8,0,0,1,393,189.11Z"/><path class="c" d="M896.26,385a8.07,8.07,0,0,1,7.78,7.64,7.56,7.56,0,0,1-7.66,7.55,7.29,7.29,0,0,1-7.64-7.44A7.69,7.69,0,0,1,896.26,385Z"/><path class="c" d="M616.19,426.61a7.39,7.39,0,0,1,7.83-7.26,7.55,7.55,0,0,1,7.29,7.42,8,8,0,0,1-7.7,7.67A7.68,7.68,0,0,1,616.19,426.61Z"/><path class="c" d="M835.69,426.57a7.54,7.54,0,1,1-8-7.17A7.68,7.68,0,0,1,835.69,426.57Z"/><path class="c" d="M1074,189.21a7.38,7.38,0,1,1-7.12-7.39A7.29,7.29,0,0,1,1074,189.21Z"/><path class="c" d="M487.55,351.44a7.45,7.45,0,1,1-7.22,7.4A7.47,7.47,0,0,1,487.55,351.44Z"/><path class="c" d="M453.55,317.68a7.6,7.6,0,0,1,7.3,7.46,7.43,7.43,0,0,1-14.86-.23A7.63,7.63,0,0,1,453.55,317.68Z"/><path class="c" d="M392.62,222.86a7.34,7.34,0,0,1-7.27,7.35,7.18,7.18,0,0,1-.35-14.36A7.4,7.4,0,0,1,392.62,222.86Z"/><path class="c" d="M998.28,332a7.09,7.09,0,0,1-7.08-6.9,7.56,7.56,0,0,1,7.35-7.31,7.23,7.23,0,0,1,7,7.57A6.84,6.84,0,0,1,998.28,332Z"/><path class="c" d="M964.64,351.86a7,7,0,1,1-7.35,7.08A7,7,0,0,1,964.64,351.86Z"/><path class="c" d="M412.38,290.84a7.06,7.06,0,0,1,7.21-6.85,7,7,0,0,1,6.89,7.11,7.26,7.26,0,0,1-7.14,7A7.5,7.5,0,0,1,412.38,290.84Z"/><path class="c" d="M528.59,392.5a7.2,7.2,0,0,1-6.78,7.34,7.49,7.49,0,0,1-7.33-6.89,7.09,7.09,0,0,1,6.87-7.2A7,7,0,0,1,528.59,392.5Z"/><path class="c" d="M589.54,433.74a7.1,7.1,0,0,1-6.94-7,7.59,7.59,0,0,1,7.1-7.06,7.51,7.51,0,0,1,7.16,7.45A7.12,7.12,0,0,1,589.54,433.74Z"/><path class="c" d="M351.19,80.52a6.86,6.86,0,0,1,7,6.89,6.87,6.87,0,0,1-13.74.26A6.87,6.87,0,0,1,351.19,80.52Z"/><path class="c" d="M868.9,427a6.8,6.8,0,0,1-6.79,6.6,7,7,0,0,1-6.9-7,6.72,6.72,0,0,1,7.35-6.46A6.5,6.5,0,0,1,868.9,427Z"/><path class="c" d="M1073.49,223a6.92,6.92,0,1,1-6.7-6.9A7.29,7.29,0,0,1,1073.49,223Z"/><path class="c" d="M344.53,121.5a6.79,6.79,0,1,1,6.78,6.71A7,7,0,0,1,344.53,121.5Z"/><path class="c" d="M930.08,385.86a6.92,6.92,0,0,1,7,6.42,6.79,6.79,0,0,1-13.55.84A6.92,6.92,0,0,1,930.08,385.86Z"/><path class="c" d="M1032.27,297.64a6.51,6.51,0,0,1-6.67-6.57,6.79,6.79,0,1,1,13.57.22A6.55,6.55,0,0,1,1032.27,297.64Z"/><path class="c" d="M351.41,46.69a6.52,6.52,0,0,1,6.7,6.54,6.8,6.8,0,1,1-13.58-.18A6.51,6.51,0,0,1,351.41,46.69Z"/><path class="c" d="M344.64,154.9a6.68,6.68,0,0,1,13.34.23,6.67,6.67,0,1,1-13.34-.23Z"/><path class="c" d="M358,19.43a6.68,6.68,0,1,1-6.88-6.38A6.5,6.5,0,0,1,358,19.43Z"/><path class="c" d="M732.64,460.58a6.6,6.6,0,1,1-6.41-6.49A6.8,6.8,0,0,1,732.64,460.58Z"/><path class="c" d="M391.75,256.91a6.49,6.49,0,1,1-6.57-6.35A6.66,6.66,0,0,1,391.75,256.91Z"/><path class="c" d="M759.79,467.18a6.55,6.55,0,1,1,6.68-6.21A6.62,6.62,0,0,1,759.79,467.18Z"/><path class="c" d="M1100.68,59.88a6.59,6.59,0,0,1-6.63-6.26,6.49,6.49,0,1,1,13-.3A6.61,6.61,0,0,1,1100.68,59.88Z"/><path class="c" d="M698.28,460.62a6.43,6.43,0,1,1-12.86-.2,6.43,6.43,0,1,1,12.86.2Z"/><path class="c" d="M1107,87.65a6.46,6.46,0,0,1-6.61,6.22,6.39,6.39,0,0,1-6.37-6.88,6.5,6.5,0,0,1,13,.66Z"/><path class="c" d="M1107,121.51a6.28,6.28,0,0,1-6.62,6.1,6.34,6.34,0,1,1,.48-12.66A6.29,6.29,0,0,1,1107,121.51Z"/><path class="c" d="M657.84,454.34a6.55,6.55,0,0,1,6.41,6.47A6.67,6.67,0,0,1,658,467a6.32,6.32,0,0,1-.13-12.63Z"/><path class="c" d="M561.82,426.9a6.29,6.29,0,0,1-12.57-.26,6.29,6.29,0,1,1,12.57.26Z"/><path class="c" d="M1106.76,19.3a6.12,6.12,0,0,1-6.27,6.42,6.42,6.42,0,0,1-6.32-6,6.45,6.45,0,0,1,6.37-6.44A6.14,6.14,0,0,1,1106.76,19.3Z"/><path class="c" d="M902.4,427a5.85,5.85,0,0,1-6.16,5.86,6.12,6.12,0,0,1-6.17-6,6.52,6.52,0,0,1,6.52-6.27A6.25,6.25,0,0,1,902.4,427Z"/><path class="c" d="M1106.63,155.29a5.86,5.86,0,0,1-6.18,5.85,6.11,6.11,0,0,1-6.15-6,6.51,6.51,0,0,1,6.54-6.25A6.23,6.23,0,0,1,1106.63,155.29Z"/><path class="c" d="M357.42,189.07a6.11,6.11,0,1,1-12.21.08,6.11,6.11,0,0,1,12.21-.08Z"/><path class="c" d="M487.59,386.72a6.21,6.21,0,0,1,6.17,6,6.14,6.14,0,0,1-12.28.06A6.21,6.21,0,0,1,487.59,386.72Z"/><path class="c" d="M794.19,466.67a6.12,6.12,0,0,1-6.42-5.68,6.2,6.2,0,0,1,12.39-.46A6.09,6.09,0,0,1,794.19,466.67Z"/><path class="c" d="M1066.58,251.09a6,6,0,1,1-6.19,5.91A6.06,6.06,0,0,1,1066.58,251.09Z"/><path class="c" d="M425.48,325a5.93,5.93,0,0,1-6.1,6,6,6,0,0,1-5.95-5.7,6,6,0,1,1,12.05-.3Z"/><path class="c" d="M459.53,359a6.1,6.1,0,1,1-6-6.08A5.9,5.9,0,0,1,459.53,359Z"/><path class="c" d="M833.92,460.5a5.77,5.77,0,1,1-5.9-5.61A5.68,5.68,0,0,1,833.92,460.5Z"/><path class="c" d="M998.29,353.08a5.79,5.79,0,1,1,.06,11.57,5.79,5.79,0,0,1-.06-11.57Z"/><path class="c" d="M629.64,460.76a5.78,5.78,0,0,1-5.94,5.65,5.79,5.79,0,1,1,.26-11.57A5.8,5.8,0,0,1,629.64,460.76Z"/><path class="c" d="M1026.61,324.91a5.77,5.77,0,0,1,11.53.31,5.77,5.77,0,1,1-11.53-.31Z"/><path class="c" d="M970.26,392.68a5.8,5.8,0,0,1-11.59.06,5.8,5.8,0,1,1,11.59-.06Z"/><path class="c" d="M1100.6,194.82a5.49,5.49,0,0,1-5.81-5.6,5.86,5.86,0,0,1,5.7-5.87,6.22,6.22,0,0,1,5.92,5.77A5.73,5.73,0,0,1,1100.6,194.82Z"/><path class="c" d="M390.88,291a5.42,5.42,0,0,1-5.47,5.46,5.63,5.63,0,0,1-5.87-5.64,6.12,6.12,0,0,1,5.58-5.63A5.77,5.77,0,0,1,390.88,291Z"/><path class="c" d="M351.56,228.57A5.53,5.53,0,1,1,357,223,5.65,5.65,0,0,1,351.56,228.57Z"/><path class="c" d="M521.52,421.3a5.5,5.5,0,0,1,5.58,5.32,5.52,5.52,0,1,1-11,.1A5.52,5.52,0,0,1,521.52,421.3Z"/><path class="c" d="M595.08,460.85a5.36,5.36,0,1,1-10.69-.65,5.61,5.61,0,0,1,5.43-5A5.53,5.53,0,0,1,595.08,460.85Z"/><path class="c" d="M322.54,87.2a5.35,5.35,0,0,1-4.83,5.54A5.58,5.58,0,0,1,312,87.49a5.28,5.28,0,0,1,5.19-5.15A4.91,4.91,0,0,1,322.54,87.2Z"/><path class="c" d="M1105.73,223.09a5.13,5.13,0,0,1-5.15,5.16,5.23,5.23,0,1,1,.12-10.45A5.19,5.19,0,0,1,1105.73,223.09Z"/><path class="c" d="M1066.51,285.85a5.08,5.08,0,0,1,5.33,4.94,5.26,5.26,0,1,1-10.51.14A5,5,0,0,1,1066.51,285.85Z"/><path class="c" d="M1032.31,353.68a5.08,5.08,0,0,1,5.33,4.94,5.26,5.26,0,1,1-10.51.14A5,5,0,0,1,1032.31,353.68Z"/><path class="c" d="M998.3,387.57a5.08,5.08,0,0,1,5.33,4.94,5.26,5.26,0,1,1-10.51.14A5,5,0,0,1,998.3,387.57Z"/><path class="c" d="M856.94,460.53a5,5,0,0,1,5.18-5.07,5.2,5.2,0,1,1-.23,10.38A5.07,5.07,0,0,1,856.94,460.53Z"/><path class="c" d="M930.34,431.89a5,5,0,0,1-5.29-4.92,5.22,5.22,0,1,1,10.44-.14A5,5,0,0,1,930.34,431.89Z"/><path class="c" d="M317.46,126.42a5.37,5.37,0,0,1-5.3-5.15,5.44,5.44,0,0,1,5.31-5.15,5.27,5.27,0,0,1,5,4.92A5.21,5.21,0,0,1,317.46,126.42Z"/><path class="c" d="M317.16,58.38a5.1,5.1,0,0,1-5-5.34,5.5,5.5,0,0,1,5.11-4.88,5.28,5.28,0,0,1,5.13,5.26A4.94,4.94,0,0,1,317.16,58.38Z"/><path class="c" d="M317.19,24.56a5,5,0,0,1,.12-10.08,5.18,5.18,0,0,1,5,5.34A5.22,5.22,0,0,1,317.19,24.56Z"/><path class="c" d="M317.19,194.12a5,5,0,0,1,.12-10.08,5,5,0,1,1-.12,10.08Z"/><path class="c" d="M351.08,261.94a4.83,4.83,0,0,1,.22-9.66,4.71,4.71,0,0,1,4.91,5.18A4.66,4.66,0,0,1,351.08,261.94Z"/><path class="c" d="M458.33,392.73a4.69,4.69,0,0,1-4.81,4.85,4.74,4.74,0,0,1-5-4.67,4.91,4.91,0,1,1,9.81-.18Z"/><path class="c" d="M419.26,363.71a4.84,4.84,0,0,1,.23-9.67,4.84,4.84,0,1,1-.23,9.67Z"/><path class="c" d="M731,494.5a4.91,4.91,0,1,1-5-4.82A5.12,5.12,0,0,1,731,494.5Z"/><path class="c" d="M317.41,150.28a4.85,4.85,0,0,1,4.95,4.76,5.08,5.08,0,0,1-5.25,5,4.93,4.93,0,0,1-4.67-5.07A4.77,4.77,0,0,1,317.41,150.28Z"/><path class="c" d="M1134.8,92.31a4.94,4.94,0,0,1-5.07-4.67,5.12,5.12,0,0,1,5.12-5.17,5,5,0,0,1,4.79,5A4.81,4.81,0,0,1,1134.8,92.31Z"/><path class="c" d="M1134.87,48.69a4.51,4.51,0,0,1,4.61,5,4.85,4.85,0,0,1-4.7,4.56,5.18,5.18,0,0,1-5-4.88A4.79,4.79,0,0,1,1134.87,48.69Z"/><path class="c" d="M1134.87,14.73a4.51,4.51,0,0,1,4.61,5,4.85,4.85,0,0,1-4.7,4.56,5.18,5.18,0,0,1-5-4.88A4.79,4.79,0,0,1,1134.87,14.73Z"/><path class="c" d="M691.85,489.83a4.88,4.88,0,1,1-4.84,5A5.05,5.05,0,0,1,691.85,489.83Z"/><path class="c" d="M1139.38,121.42a4.71,4.71,0,0,1-5,4.7,5.32,5.32,0,0,1-4.61-4.76,5.18,5.18,0,0,1,4.91-4.94A4.74,4.74,0,0,1,1139.38,121.42Z"/><path class="c" d="M1139.38,155.33a4.71,4.71,0,0,1-5,4.7,5.32,5.32,0,0,1-4.61-4.76,5.18,5.18,0,0,1,4.91-4.94A4.73,4.73,0,0,1,1139.38,155.33Z"/><path class="c" d="M555.51,455.86a4.77,4.77,0,1,1-.18,9.53,4.69,4.69,0,0,1-4.59-4.6A4.76,4.76,0,0,1,555.51,455.86Z"/><path class="c" d="M759.91,499.3a4.64,4.64,0,0,1-4.81-4.79,5.17,5.17,0,0,1,4.68-4.62,4.87,4.87,0,0,1,5,4.71C764.83,497.38,762.84,499.3,759.91,499.3Z"/><path class="c" d="M385.38,320.37a4.51,4.51,0,0,1,4.64,4.95,4.82,4.82,0,0,1-4.69,4.57c-1.52,0-4.85-3.61-4.92-5.31C380.33,322.38,382.74,320.33,385.38,320.37Z"/></g><g class="d"><circle class="e" cx="1064" cy="87" r="178"/><g class="f"><path d="M1064-54A141,141,0,0,1,1205,87h74c0-118.74-96.26-215-215-215ZM923,87A141,141,0,0,1,1064-54v-74C945.26-128,849-31.74,849,87Zm141,141A141,141,0,0,1,923,87H849c0,118.74,96.26,215,215,215ZM1205,87a141,141,0,0,1-141,141v74c118.74,0,215-96.26,215-215Z"/></g><circle class="c" cx="1064" cy="87" r="107"/><circle class="c" cx="1064" cy="87" r="107"/><g class="g"><g class="g"><path d="M1064-13.5A100.51,100.51,0,0,1,1164.5,87h13A113.51,113.51,0,0,0,1064-26.5ZM963.5,87A100.51,100.51,0,0,1,1064-13.5v-13A113.51,113.51,0,0,0,950.5,87ZM1064,187.5A100.51,100.51,0,0,1,963.5,87h-13A113.51,113.51,0,0,0,1064,200.5ZM1164.5,87A100.51,100.51,0,0,1,1064,187.5v13A113.51,113.51,0,0,0,1177.5,87Z"/></g></g><circle class="h" cx="1064" cy="87" r="60"/><circle class="h" cx="1064" cy="87" r="60"/><g class="i"><g class="i"><path d="M1064,55a32,32,0,0,1,32,32h56a88,88,0,0,0-88-88Zm-32,32a32,32,0,0,1,32-32V-1a88,88,0,0,0-88,88Zm32,32a32,32,0,0,1-32-32H976a88,88,0,0,0,88,88Zm32-32a32,32,0,0,1-32,32v56a88,88,0,0,0,88-88Z"/></g></g><circle class="h" cx="1202" cy="331" r="138"/><g class="j"><path d="M1202,213a118,118,0,0,1,118,118h40a158,158,0,0,0-158-158ZM1084,331a118,118,0,0,1,118-118V173a158,158,0,0,0-158,158Zm118,118a118,118,0,0,1-118-118h-40a158,158,0,0,0,158,158Zm118-118a118,118,0,0,1-118,118v40a158,158,0,0,0,158-158Z"/></g><circle class="c" cx="1202" cy="331" r="82.96"/><circle class="c" cx="1202" cy="331" r="82.96"/><g class="k"><g class="k"><path d="M1202,260.54A70.47,70.47,0,0,1,1272.46,331h25A95.46,95.46,0,0,0,1202,235.54ZM1131.54,331A70.47,70.47,0,0,1,1202,260.54v-25A95.46,95.46,0,0,0,1106.54,331ZM1202,401.46A70.47,70.47,0,0,1,1131.54,331h-25A95.46,95.46,0,0,0,1202,426.46ZM1272.46,331A70.47,70.47,0,0,1,1202,401.46v25A95.46,95.46,0,0,0,1297.46,331Z"/></g></g><g class="l"><g class="l"><path d="M1202,312.48A18.52,18.52,0,0,1,1220.52,331h56A74.53,74.53,0,0,0,1202,256.48ZM1183.48,331A18.52,18.52,0,0,1,1202,312.48v-56A74.53,74.53,0,0,0,1127.48,331ZM1202,349.52A18.52,18.52,0,0,1,1183.48,331h-56A74.53,74.53,0,0,0,1202,405.52ZM1220.52,331A18.52,18.52,0,0,1,1202,349.52v56A74.53,74.53,0,0,0,1276.52,331Z"/></g></g></g></svg>