<svg xmlns="http://www.w3.org/2000/svg" xmlns:xlink="http://www.w3.org/1999/xlink" viewBox="0 0 300 609"><defs><style>.a{fill:url(#a);}.b{fill:none;stroke:#fff;stroke-miterlimit:10;stroke-width:10px;}</style><linearGradient id="a" x1="150" y1="609" x2="150" gradientUnits="userSpaceOnUse"><stop offset="0" stop-color="#4a80c1"/><stop offset="1" stop-color="#319fa7"/></linearGradient></defs><title>menu-bg</title><rect class="a" width="300" height="609"/><path class="b" d="M21.08-7.71a69,69,0,0,1,6.16,4.42,162.6,162.6,0,0,1,16.24,14.8A256.7,256.7,0,0,1,66.61,39.15,360.7,360.7,0,0,1,93.24,81.87a489.64,489.64,0,0,1,26.94,60.24,669.6,669.6,0,0,1,24,80.13A919.86,919.86,0,0,1,162,324.64c4.62,38.8,5.84,77.9,11.16,116.62a599.6,599.6,0,0,0,20.4,94.53A437.69,437.69,0,0,0,223,608.68q3.85,7.44,8,14.7"/><path class="b" d="M-20.42-3.27A90.74,90.74,0,0,1-3.57,10.06C22.12,34.57,40,64.12,56.87,94.82c4,8,6.84,15,10.84,23C95.64,183,111.14,249.44,118.56,318.9c9.78,81.79,11.28,164.46,40.87,245.18.11,1,2.41,2.89,2.52,3.93,7.4,20.18,14.57,38.28,25.9,56,1.14.92,1.37,3,1.64,3.85"/><path class="b" d="M-11.45,45.9C11.68,75.78,28.84,109.79,42,145.08A660.22,660.22,0,0,1,73.17,258c7.6,41.88,12.11,83.84,15.87,126.2.95,10.71,2,21.41,3.32,32.09s3.38,21.23,4.22,32a234.09,234.09,0,0,0,4.1,30.31c2.13,10.18,2.93,20.6,5.31,30.74,4.53,19.24,10.8,38.38,17.38,57a357.78,357.78,0,0,0,23.19,53q3.44,6.27,7.2,12.35"/></svg>