<svg xmlns="http://www.w3.org/2000/svg" viewBox="0 0 712.81 707.5"><defs><style>.a{fill:#e66831;}.b{fill:#000;}.c{fill:#872484;}.d{fill:#e7d934;}.e{fill:#e83c7d;}</style></defs><title>menu-decor</title><circle class="a" cx="582.48" cy="657.23" r="196.71" transform="translate(-429.18 448.93) rotate(-45)"/><path class="b" d="M582.48,469.52a187.7,187.7,0,1,1-132.74,55,186.52,186.52,0,0,1,132.74-55m0-18c-113.61,0-205.71,92.1-205.71,205.71s92.1,205.71,205.71,205.71,205.71-92.1,205.71-205.71-92.1-205.71-205.71-205.71Z" transform="translate(-135.05 -155.44)"/><circle class="c" cx="582.48" cy="657.23" r="127.96" transform="translate(-429.18 448.93) rotate(-45)"/><path class="b" d="M582.48,546.77a110.45,110.45,0,1,1-78.11,32.35,109.73,109.73,0,0,1,78.11-32.35m0-35A145.46,145.46,0,1,0,727.93,657.23,145.46,145.46,0,0,0,582.48,511.77Z" transform="translate(-135.05 -155.44)"/><path class="d" d="M582.48,720.07a62.84,62.84,0,1,1,62.84-62.84A62.92,62.92,0,0,1,582.48,720.07Z" transform="translate(-135.05 -155.44)"/><path class="b" d="M582.48,600.89a56.34,56.34,0,1,1-56.34,56.34,56.41,56.41,0,0,1,56.34-56.34m0-13a69.34,69.34,0,1,0,69.34,69.34,69.34,69.34,0,0,0-69.34-69.34Z" transform="translate(-135.05 -155.44)"/><circle class="e" cx="340.76" cy="520.86" r="187.21" transform="translate(-403.55 238.07) rotate(-45)"/><path class="b" d="M340.76,352.15a168.73,168.73,0,1,1-119.29,49.42,167.6,167.6,0,0,1,119.29-49.42m0-37c-113.61,0-205.71,92.1-205.71,205.71s92.1,205.71,205.71,205.71,205.71-92.1,205.71-205.71-92.1-205.71-205.71-205.71Z" transform="translate(-135.05 -155.44)"/><circle class="d" cx="340.76" cy="520.86" r="117.16" transform="translate(-379.51 577.4) rotate(-76.72)"/><path class="b" d="M340.76,410.2a110.69,110.69,0,1,1-78.24,32.42,109.95,109.95,0,0,1,78.24-32.42m0-13A123.66,123.66,0,1,0,464.42,520.86,123.67,123.67,0,0,0,340.76,397.2Z" transform="translate(-135.05 -155.44)"/><path class="a" d="M340.76,575.7a54.84,54.84,0,1,1,54.84-54.84A54.9,54.9,0,0,1,340.76,575.7Z" transform="translate(-135.05 -155.44)"/><path class="b" d="M340.76,480.52a40.34,40.34,0,1,1-40.34,40.34,40.38,40.38,0,0,1,40.34-40.34m0-29a69.34,69.34,0,1,0,69.34,69.34,69.35,69.35,0,0,0-69.34-69.34Z" transform="translate(-135.05 -155.44)"/><circle class="c" cx="553.38" cy="185.42" r="141.93"/><path class="b" d="M688.43,216.43a124.43,124.43,0,1,1-88,36.45,123.62,123.62,0,0,1,88-36.45m0-35A159.43,159.43,0,1,0,847.86,340.86,159.43,159.43,0,0,0,688.43,181.43Z" transform="translate(-135.05 -155.44)"/><circle class="d" cx="553.38" cy="185.42" r="89.34"/><path class="b" d="M688.43,258a82.84,82.84,0,1,1-82.84,82.83A82.93,82.93,0,0,1,688.43,258m0-13a95.84,95.84,0,1,0,95.83,95.83A95.83,95.83,0,0,0,688.43,245Z" transform="translate(-135.05 -155.44)"/><circle class="e" cx="553.38" cy="185.42" r="39.24"/><path class="b" d="M688.43,316.12a24.74,24.74,0,1,1-24.74,24.74,24.77,24.77,0,0,1,24.74-24.74m0-29a53.74,53.74,0,1,0,53.74,53.74,53.74,53.74,0,0,0-53.74-53.74Z" transform="translate(-135.05 -155.44)"/><path class="e" d="M535.48,221.38a137.74,137.74,0,0,1-1.21,28.41,2.23,2.23,0,0,1-.47,1.26,2.14,2.14,0,0,1-2,.31,20.83,20.83,0,0,1-13.34-9.05c-2.06-3.2-3.29-7-6.16-9.52-1.51-1.3-3.52-2.32-4.06-4.24l.49.36-26.2,10.25c-2.3.9-4.7,1.82-7.16,1.65a1.79,1.79,0,0,1-1.16-.4,2,2,0,0,1-.36-1.58,50.89,50.89,0,0,1,10.65-27.71l-.58-.66c-2.6-2.53-4.17-6-6.62-8.64-3.51-3.84-8.61-5.95-12.06-9.84a2.87,2.87,0,0,1-.84-1.6c-.07-1.14,1.1-1.94,2.15-2.39,4.5-1.92,9.56-2,14.44-1.66s9.74,1.19,14.63,1l1.33-.61a72.53,72.53,0,0,1,20.58-24.27,9.71,9.71,0,0,1,3.57-1.93,3.64,3.64,0,0,1,3.7,1.11,5.48,5.48,0,0,1,.81,2.55l3.65,26.26,0,.64c12.72-.26,24.37,7.41,33,16.74A3.05,3.05,0,0,1,563.4,210c-.08,1-1.1,1.68-2,2.14A88.07,88.07,0,0,1,537,220.2" transform="translate(-135.05 -155.44)"/><path class="b" d="M530.48,221.38c.25,4.74.33,9.49.12,14.24-.19,4.49-.05,9.86-1.62,14.1l2.3-3c1.31-.56-2.44-1.63-2.59-1.7a16.72,16.72,0,0,1-2.71-1.75,20.37,20.37,0,0,1-4.94-6.62,32.44,32.44,0,0,0-3.74-5.87c-1.39-1.63-3.83-2.83-4.73-4.77l-6.84,6.84.5.36,1.19-9.14-15.72,6.16-7,2.73c-2.24.88-6.63,3.48-9.15,2.62l3,2.29c.69,1.47.28.4.47-.72s.35-2.42.59-3.63a48.06,48.06,0,0,1,2.07-7.23,49.69,49.69,0,0,1,7.17-12.66c1.38-1.82.56-4.52-.79-6-2.75-3.15-4.81-6.88-7.74-9.85a40.9,40.9,0,0,0-5.23-4.24c-1.1-.79-2.24-1.52-3.31-2.35a15.91,15.91,0,0,1-1.89-1.59l-.46,2.68c.1.11,6.49-1.07,7.5-1.07a83.59,83.59,0,0,1,8.66.59c4.07.42,9.84,1.78,13.57-.55,3.26-2,4.94-7,7.15-10.15a67.84,67.84,0,0,1,10.44-11.5,32.71,32.71,0,0,1,3.34-2.77c1.43-1,.45-1.6.86-.32.82,2.6.79,5.73,1.17,8.44.74,5.33,1.95,10.81,2.2,16.19a5.09,5.09,0,0,0,5,5c9.78.05,18.44,4.83,25.5,11.32.79.73,1.56,1.47,2.31,2.23,1.11,1.11,1.84,3,1.7-.07.57-1.77.3-2.23-.79-1.39-.82.41-1.66.81-2.49,1.18-1.29.58-2.59,1.12-3.91,1.62a92.45,92.45,0,0,1-15.94,4.39c-6.32,1.17-3.64,10.81,2.66,9.64,7.64-1.43,38.78-7.73,27.5-20.72-9.08-10.45-22.52-18.13-36.54-18.2l5,5c-.32-6.88-1.87-13.9-2.82-20.72-.84-6.09-.91-14.51-9-14.93-6-.31-11.83,5.9-15.75,9.77a74.7,74.7,0,0,0-12.93,16.88c-.64.76-.54.92.29.48-.74.47-.84.4-.29-.21-1.41-.57-4-.19-5.49-.33-3.8-.34-7.58-.88-11.4-.87-5.37,0-14.11.69-16.78,6.26-2.85,6,3.83,10.42,8,13.36,5.45,3.88,8.54,8.92,12.88,13.87l-.78-6.06a56.64,56.64,0,0,0-9,17.41c-1.39,4.48-4.36,13.31-.91,17.43,4.4,5.26,13,.76,17.95-1.17l21.83-8.54c4.15-1.63,4.82-6.52,1.2-9.14l-.5-.36c-4.49-3.24-8.69,2.82-6.84,6.84,1.34,2.91,3.85,3.94,5.85,6.25s2.82,5.1,4.37,7.51a26.11,26.11,0,0,0,14.86,11c2.41.64,5.09,1,7.31-.47,3-2,3-6.09,3.44-9.34a144,144,0,0,0,.71-24.65c-.35-6.4-10.35-6.44-10,0Z" transform="translate(-135.05 -155.44)"/><path class="a" d="M478.15,306.71a88.2,88.2,0,0,1-.78,18.08,1.42,1.42,0,0,1-.29.81,1.37,1.37,0,0,1-1.27.19,13.21,13.21,0,0,1-8.48-5.76c-1.31-2-2.09-4.47-3.92-6-1-.83-2.25-1.48-2.59-2.71l.32.23L444.46,318a10.9,10.9,0,0,1-4.56,1.05,1.15,1.15,0,0,1-.74-.26,1.24,1.24,0,0,1-.22-1,32.43,32.43,0,0,1,6.77-17.64l-.37-.42c-1.65-1.61-2.65-3.79-4.21-5.49-2.23-2.45-5.48-3.79-7.67-6.27a1.83,1.83,0,0,1-.54-1c0-.73.7-1.24,1.37-1.53a19.56,19.56,0,0,1,9.19-1,85.47,85.47,0,0,0,9.31.64l.85-.38a46.13,46.13,0,0,1,13.1-15.45A6.28,6.28,0,0,1,469,268a2.32,2.32,0,0,1,2.35.71,3.29,3.29,0,0,1,.51,1.62L474.2,287l0,.41c8.09-.16,15.51,4.72,21,10.66a1.93,1.93,0,0,1,.68,1.34c0,.66-.7,1.07-1.28,1.37A55.83,55.83,0,0,1,479.12,306" transform="translate(-135.05 -155.44)"/><path class="b" d="M473.15,306.71c.26,5.34,1,12.47-.89,17.56l2.29-3c2.27-1-.72-1.48-1.78-2.47a14.59,14.59,0,0,1-2.54-3.86c-1.37-2.37-3.82-4-5.09-6.2l-6.84,6.84.31.23,1.2-9.14-10.19,4c-1.86.73-7.23,4-9.13,3.33l3.49,3.49c-1-4.56,3.54-11.4,6-14.78,1.37-1.85.57-4.52-.78-6.06-1.64-1.88-2.87-4.11-4.58-5.92-2.1-2.22-6-3.6-7.43-6.27v5.05c.62-1.39,12.42.6,14.62.54,4.93-.13,6-3.18,8.49-6.92a40.76,40.76,0,0,1,4.63-5.7,28.22,28.22,0,0,0,2.85-2.7l1.2-1-2-2.07c-.81.42,2.1,14.25,2.17,15.79a5.1,5.1,0,0,0,5,5,19.82,19.82,0,0,1,10.27,3.12,30.69,30.69,0,0,1,3.91,2.87c.77.67,1.52,1.37,2.24,2.1q1.85,2.1.45.24l.51-3.85c.58-1.08-.28,0-1.13.37-1.57.66-3.12,1.3-4.74,1.84a63.5,63.5,0,0,1-7.93,2c-6.32,1.21-3.64,10.85,2.65,9.64s26.25-5.5,18.8-15.6c-5.59-7.57-15.74-12.57-25-12.74l5,5c-.22-4.58-1.24-9.26-1.88-13.8-.59-4.24-.79-9-5.7-10.45-4.68-1.36-8.93,2.62-12.05,5.52-3.68,3.42-6.14,7.42-9.12,11.38-1.18,1.56.2.23.34.21a33.78,33.78,0,0,0-3.61-.53,48.26,48.26,0,0,0-8.41-.38c-4,.33-9,1.41-10.44,5.67-1.53,4.58,2.57,7.59,5.82,10s5.3,5.57,8,8.66l-.78-6.06a38.21,38.21,0,0,0-6,11.78c-1.05,3.48-2.71,9.2-.18,12.41s7.2,2.2,10.55,1c5.61-2,11.12-4.35,16.68-6.53,4.15-1.62,4.82-6.51,1.19-9.13l-.32-.23c-4.22-3.06-9.18,2.77-6.84,6.84,1.18,2,3,3.07,4.38,4.93s2,3.81,3.41,5.55c2.71,3.34,7.11,6.27,11.52,6.51,4.2.24,6.06-2.74,6.63-6.46a88,88,0,0,0,.71-17.62c-.33-6.4-10.33-6.44-10,0Z" transform="translate(-135.05 -155.44)"/></svg>