<svg width="50" height="48" viewBox="0 0 50 48" fill="none" xmlns="http://www.w3.org/2000/svg">
<g id="Frame 48">
<path id="Vector" d="M33.4592 25.904C34.4886 28.9831 35.1966 32.1604 35.5718 35.3853C35.6046 35.5386 35.5894 35.6983 35.5281 35.8426C35.4539 35.9377 35.3573 36.013 35.2469 36.0617C35.1365 36.1104 35.0158 36.131 34.8956 36.1217C33.9519 36.1813 33.0059 36.0522 32.1128 35.742C31.2196 35.4317 30.3972 34.9466 29.6937 34.315C28.731 33.4412 27.9892 32.2961 26.8194 31.7183C26.2062 31.4229 25.4528 31.264 25.1049 30.6783L25.2984 30.7537L17.5595 36.4523C16.8802 36.9526 16.1696 37.4684 15.3428 37.6298C15.2044 37.6695 15.0563 37.6591 14.9247 37.6004C14.8499 37.5413 14.7882 37.4673 14.7437 37.383C14.6992 37.2986 14.6728 37.206 14.6662 37.1108C14.0108 33.7181 14.3813 30.2071 15.7304 27.0259L15.4807 26.8594C14.3991 26.2545 13.5742 25.2483 12.5324 24.5938C11.0347 23.6371 9.16536 23.3918 7.68305 22.4132C7.49829 22.311 7.35147 22.1519 7.26441 21.9595C7.14052 21.5896 7.45585 21.2222 7.76253 20.9808C9.07762 19.9494 10.7402 19.4757 12.3805 19.1564C14.0208 18.8371 15.6995 18.6879 17.2963 18.1929L17.6812 17.874C18.4829 14.2946 20.0694 10.9379 22.3261 8.04617C22.591 7.66128 22.9343 7.3367 23.3334 7.09371C23.5348 6.97581 23.7653 6.91695 23.9985 6.92387C24.2318 6.93079 24.4584 7.00321 24.6524 7.13284C24.8777 7.34479 25.047 7.60926 25.1451 7.90263L28.6713 16.2448L28.7279 16.456C32.902 15.2456 37.4243 16.7464 41.0968 19.0619C41.2293 19.1199 41.3484 19.2048 41.4463 19.3113C41.5443 19.4178 41.619 19.5435 41.6657 19.6805C41.7277 20.0175 41.4512 20.3321 41.1949 20.5634C38.9974 22.5192 36.5249 24.1421 33.8564 25.3803" fill="#E83C7D"/>
<path id="Vector_2" d="M32.1134 27.4729C32.676 29.1528 33.1785 30.8532 33.5766 32.5825C33.956 34.2163 34.5418 36.1337 34.4 37.8153L34.9281 36.5069C35.3434 36.1749 33.8879 36.164 33.827 36.1538C33.4333 36.0714 33.0484 35.9511 32.6778 35.7946C31.7451 35.3382 30.9158 34.6955 30.241 33.9063C29.6617 33.2593 29.0144 32.6765 28.3105 32.168C27.648 31.7204 26.6508 31.5321 26.1336 30.9241L24.3556 34.0662L24.5714 34.1459L24.0879 30.7399L19.0483 34.523L16.8029 36.2029C16.0851 36.7428 14.7654 38.1157 13.7733 38.0576L15.0806 38.5821C15.4754 39.042 15.2212 38.698 15.1779 38.2763C15.1345 37.8545 15.0624 37.371 15.0281 36.9119C14.9626 35.9771 14.9705 35.0386 15.0516 34.1051C15.2295 32.2939 15.6731 30.5188 16.368 28.8368C16.6828 28.0446 16.1186 27.1553 15.4855 26.7576C14.1823 25.8989 13.0695 24.7628 11.7195 23.9868C10.9805 23.5896 10.2099 23.254 9.41568 22.9834C8.94127 22.8089 8.45847 22.6601 7.99087 22.4682C7.70192 22.3624 7.42164 22.2342 7.15256 22.0849L7.25435 23.0946C7.30129 23.1242 9.48185 22.0626 9.84511 21.9619C10.8909 21.69 11.9502 21.4725 13.0186 21.3105C14.5243 21.0557 16.7352 20.9695 17.8444 19.7595C18.8174 18.7151 18.923 16.7493 19.4038 15.396C20.0721 13.5761 20.9472 11.839 22.0119 10.2188C22.2905 9.75573 22.5995 9.31164 22.9369 8.88949C23.3515 8.38724 22.9392 8.26916 23.2143 8.68864C23.7685 9.54199 24.0698 10.6707 24.4767 11.6075C25.2744 13.4507 26.256 15.301 26.8824 17.211C27.0223 17.6831 27.3399 18.0824 27.7684 18.3248C28.1968 18.5673 28.7027 18.6339 29.1793 18.5107C32.7018 17.5535 36.2931 18.4091 39.4795 20.0393C39.8364 20.223 40.1872 20.4124 40.5327 20.611C41.0426 20.8995 41.4936 21.5065 41.1371 20.4163C41.1656 19.7228 41.0226 19.5843 40.7144 19.9951C40.4603 20.2243 40.1981 20.452 39.9365 20.6678C39.5304 21.0051 39.1167 21.3289 38.6918 21.6404C37.0249 22.8525 35.2527 23.9129 33.3966 24.8088C31.2402 25.8598 33.1653 29.0597 35.3145 28.0107C37.9197 26.7345 48.4913 21.3634 43.139 17.8162C38.8312 14.9632 33.2316 13.5413 28.1822 14.9141L30.4791 16.2138C29.6779 13.7713 28.4204 11.401 27.3986 9.04288C26.4892 6.93632 25.6244 3.91496 22.6729 4.57062C20.484 5.05744 19.0064 7.87229 17.9825 9.65508C16.6475 11.9545 15.6484 14.4331 15.0153 17.0155C14.8609 17.3527 14.9128 17.4002 15.1675 17.1592C14.9482 17.4021 14.9053 17.3869 15.0423 17.1126C14.4783 17.0482 13.5847 17.4432 13.0348 17.5414C11.6342 17.798 10.2208 17.9808 8.84792 18.3653C6.91654 18.9008 3.84192 20.0205 3.43706 22.29C3.01034 24.7322 5.85363 25.6558 7.64659 26.2974C9.99364 27.1494 11.6076 28.6539 13.6621 30.0015L12.7773 27.8997C11.8648 30.1807 11.3569 32.6034 11.2764 35.0589C11.2233 36.8087 11.0356 40.2807 12.6872 41.4185C14.7943 42.8715 17.4386 40.3955 19.0265 39.2077L26.0263 33.9594C27.3563 32.9593 27.1097 31.1337 25.5464 30.5524L25.3307 30.4728C23.3927 29.7552 22.4865 32.3536 23.5527 33.6149C24.3248 34.5279 25.3303 34.6481 26.28 35.2795C27.2296 35.9108 27.8028 36.8325 28.6006 37.5447C30.3741 39.1276 32.6649 40.0076 35.042 40.0192C35.9726 40.0091 36.9724 39.8713 37.6243 39.1212C38.5038 38.1027 38.096 36.6317 37.9301 35.4189C37.4528 32.3826 36.7159 29.3929 35.7274 26.4825C34.9634 24.2156 31.3628 25.1984 32.1308 27.4797L32.1134 27.4729Z" fill="#000"/>
</g>
</svg>
