<svg width="664" height="214" viewBox="0 0 664 214" fill="none" xmlns="http://www.w3.org/2000/svg">
<circle cx="251.599" cy="251.599" r="159.5" transform="rotate(-46.8506 251.599 251.599)" fill="#EB3C7D" stroke="black" stroke-width="37"/>
<path d="M320.331 178.277C360.826 216.236 362.881 279.836 324.921 320.331C286.961 360.826 223.361 362.881 182.867 324.921C142.372 286.961 140.317 223.361 178.277 182.866C216.236 142.372 279.836 140.317 320.331 178.277Z" fill="#E6D933" stroke="black" stroke-width="13"/>
<path d="M273.484 228.252C286.377 240.339 287.032 260.59 274.945 273.484C262.858 286.377 242.608 287.032 229.714 274.945C216.82 262.858 216.166 242.608 228.252 229.714C240.339 216.82 260.59 216.166 273.484 228.252Z" fill="#E66931" stroke="black" stroke-width="56"/>
<circle cx="468.06" cy="270.06" r="128" transform="rotate(-46.8506 468.06 270.06)" fill="#E66931" stroke="black" stroke-width="20"/>
<path d="M516.244 218.658C544.633 245.269 546.073 289.856 519.462 318.244C492.85 346.633 448.264 348.073 419.875 321.462C391.487 294.85 390.046 250.264 416.658 221.875C443.269 193.487 487.856 192.046 516.244 218.658Z" fill="#E6D933" stroke="black" stroke-width="25"/>
<path d="M480.723 256.55C488.184 263.544 488.563 275.263 481.569 282.724C474.575 290.185 462.857 290.563 455.396 283.569C447.935 276.575 447.556 264.857 454.55 257.396C461.544 249.935 473.262 249.557 480.723 256.55Z" fill="#8B1A89" stroke="black" stroke-width="56"/>
</svg>
